<svg xmlns="http://www.w3.org/2000/svg" width="64" height="64" fill="none"><path fill="#004791" d="M33.396 61.374c.612-.689 1.263-1.428 1.721-1.887.906-.905 1.836-.893 1.836-.893s-1.07-.522-2.192.6c-.306.306-.982 1.07-1.67 1.848-.255-.28-.498-.56-.727-.816.255-.28.497-.535.688-.74.905-.904 1.836-.892 1.836-.892s-1.07-.522-2.193.6c-.14.14-.37.395-.637.688a15.004 15.004 0 0 0-.638-.688c-1.122-1.122-2.193-.6-2.193-.6s.931-.012 1.836.893c.204.204.434.459.689.74-.23.254-.485.535-.727.815a86.994 86.994 0 0 0-1.67-1.848c-1.122-1.122-2.193-.6-2.193-.6s.93-.012 1.836.893c.459.459 1.11 1.198 1.721 1.887a41.243 41.243 0 0 1-1.44 1.568c-.753.752-1.632.816-1.632.816s.943.548 2.23-.765c.243-.242.664-.727 1.148-1.275.268.293.51.574.714.803-.153.166-.293.319-.395.42-.752.753-1.632.817-1.632.817s.943.548 2.231-.765l.115-.115c.038.038.076.09.114.115 1.288 1.313 2.232.765 2.232.765s-.88-.064-1.632-.816c-.102-.102-.242-.255-.395-.42.203-.23.459-.51.713-.804.485.548.906 1.033 1.148 1.275 1.288 1.313 2.23.765 2.23.765s-.879-.064-1.63-.816c-.32-.306-.868-.918-1.442-1.568Zm-1.338.816c-.23-.243-.472-.523-.727-.803.242-.268.485-.549.727-.816.242.267.484.548.727.816-.255.28-.498.548-.727.803ZM8.447 22.527c.14.447.548.714 1.058.714.153 0 .306-.025.446-.076.013.025.038.064.064.102.076.102.165.191.268.268.038.025.063.038.101.038a.182.182 0 0 0 .153-.077c.064-.089.039-.204-.05-.267a.789.789 0 0 1-.179-.179c-.013-.012-.025-.025-.025-.038.204-.128.37-.28.471-.472.128-.242.153-.51.077-.765a.47.47 0 0 0-.383-.331c-.013 0-.025 0-.038.013-.013-.064-.026-.128-.051-.192-.191-.586-.714-1.058-1.122-1.02-.05-.038-.127-.089-.23-.05-.101.025-.14.114-.152.178a.613.613 0 0 0-.255.28c-.166.332-.204.79-.077 1.199.026.064.038.114.064.178-.013 0-.026.013-.038.013a.482.482 0 0 0-.102.485Zm2.052-.548a.586.586 0 0 1-.064.383c-.101.204-.318.37-.586.446-.115.038-.23.051-.344.051-.306 0-.548-.14-.663-.37.127.026.255.038.331.038.192 0 .383-.025.574-.089.306-.089.587-.267.752-.459Zm-1.555-1.147c.05-.09.09-.128.127-.14a.205.205 0 0 0 .09-.051c.025.012.063 0 .102-.013.153-.051.586.268.739.752.051.153.064.319.064.485a1.597 1.597 0 0 1-.446.229 1.444 1.444 0 0 1-.46.076h-.038a1.643 1.643 0 0 1-.216-.42c-.115-.37-.064-.727.038-.918ZM12.832 25.69c.255 0 .395-.18.421-.281v-.038c.051 0 .102.012.153.012h.038c.42-.012.854-.191 1.11-.459a.745.745 0 0 0 .19-.331c.052-.038.115-.09.115-.191 0-.102-.063-.166-.127-.204-.102-.396-.701-.753-1.326-.74-.064 0-.128.013-.191.013v-.038c-.038-.102-.166-.255-.434-.255a1.037 1.037 0 0 0-.777.395c-.102.14-.179.319-.23.497-.013 0-.025-.013-.038-.013a.775.775 0 0 1-.23-.114c-.089-.064-.204-.051-.267.038a.198.198 0 0 0 .038.268c.102.076.217.127.331.178.051.013.09.026.115.038.026.714.472 1.224 1.071 1.224h.038Zm.587-1.85c.497-.012.943.307.956.46a.24.24 0 0 0 .025.102.24.24 0 0 0-.025.102c0 .025-.026.089-.09.165a1.254 1.254 0 0 1-.84.332c-.167 0-.332-.026-.473-.064a1.335 1.335 0 0 1-.089-.497c0-.204.026-.37.064-.497.153-.064.306-.102.472-.102Zm-1.3.6a.973.973 0 0 1 .19-.638.641.641 0 0 1 .396-.242c-.128.217-.204.548-.191.867.012.319.102.65.242.867-.37-.038-.625-.382-.638-.854ZM10.78 34.907a.65.65 0 0 0 0-.383.24.24 0 0 0 0-.23c-.051-.088-.14-.101-.204-.114-.28-.293-.995-.293-1.517.026-.051.038-.102.063-.153.102-.013-.013-.013-.026-.026-.026a.44.44 0 0 0-.255-.076.492.492 0 0 0-.255.076c-.268.166-.433.42-.484.74-.026.178 0 .37.05.548-.012 0-.025 0-.038.013-.089.012-.165.025-.255.012a.198.198 0 0 0-.216.166c-.013.102.063.204.165.204.039 0 .09.013.128.013.076 0 .166-.013.242-.026.051-.013.09-.025.115-.025.255.408.637.663 1.045.663.179 0 .357-.051.51-.14.217-.128.255-.345.23-.447 0-.013-.013-.025-.013-.038.051-.026.115-.064.166-.09.382-.242.675-.611.765-.968Zm-1.53-.383c.433-.255.969-.204 1.045-.076a.216.216 0 0 0 .077.076c0 .026.012.064.025.102.013.026.026.09 0 .192-.05.204-.255.522-.56.714-.141.089-.294.14-.447.178a1.704 1.704 0 0 1-.331-.383 1.926 1.926 0 0 1-.192-.471c.115-.14.243-.242.383-.332Zm-.829 1.173a1.043 1.043 0 0 1-.153-.65.592.592 0 0 1 .217-.408c0 .255.09.574.255.854.166.28.408.51.637.625-.318.153-.726-.026-.956-.42ZM4.125 35.302c.05.051.102.09.14.127l-.026.026a.482.482 0 0 0 .128.497c.191.179.42.268.688.268.332 0 .689-.166.957-.446.025.012.063.038.114.05.115.052.243.09.37.103h.013c.102 0 .178-.077.191-.179.013-.102-.064-.191-.178-.204a.754.754 0 0 1-.243-.063c-.012-.013-.025-.013-.038-.013.115-.204.179-.434.166-.638a1 1 0 0 0-.319-.7.455.455 0 0 0-.319-.141.409.409 0 0 0-.178.038.027.027 0 0 0-.026.026 1.388 1.388 0 0 0-.127-.14c-.446-.421-1.135-.574-1.479-.345a.242.242 0 0 0-.23.064.268.268 0 0 0-.05.23.61.61 0 0 0-.077.382c.013.344.217.765.523 1.058Zm1.912-.472c.013.23-.102.472-.293.676-.191.204-.446.331-.676.331a.56.56 0 0 1-.344-.114c.242-.064.523-.242.752-.485.23-.242.383-.535.434-.777.076.102.114.229.127.37Zm-2.002-.803c.026-.025.039-.064.051-.09.026-.012.064-.025.09-.05.102-.115.65-.051 1.02.293.127.115.216.242.293.383-.051.127-.14.267-.28.42-.14.14-.281.242-.409.306a1.544 1.544 0 0 1-.395-.267c-.268-.255-.395-.6-.395-.816-.026-.09 0-.153.025-.179ZM12.412 45.578a.655.655 0 0 0-.192-.332c0-.064-.025-.153-.102-.191a.24.24 0 0 0-.23 0c-.382-.127-1.006.217-1.312.752-.026.051-.064.115-.09.166-.012 0-.025-.013-.038-.013h-.05a.452.452 0 0 0-.396.242c-.255.434-.128.957.255 1.326-.013.013-.025.013-.038.026a.542.542 0 0 1-.217.127c-.102.038-.14.153-.102.255.025.077.102.115.178.115.026 0 .052 0 .077-.013.115-.05.23-.114.319-.204.038-.025.063-.064.089-.076.23.127.472.204.714.204.395 0 .714-.192.905-.51a.467.467 0 0 0-.013-.51c-.012-.013-.025-.013-.025-.026a.72.72 0 0 0 .102-.165c.191-.357.255-.816.166-1.173Zm-1.518.42c.255-.433.753-.65.88-.573.038.025.064.025.102.025a.13.13 0 0 0 .077.064c.025.013.063.064.089.166.05.204.038.573-.153.892-.09.14-.179.268-.293.357a1.515 1.515 0 0 1-.485-.178 1.26 1.26 0 0 1-.382-.32c.025-.14.076-.292.165-.433Zm-.165 1.428c-.345-.204-.6-.586-.446-.956.114.217.356.46.637.625.28.166.612.255.854.242-.204.28-.65.306-1.045.09ZM9.237 48.242c-.038-.102-.153-.14-.255-.102a.754.754 0 0 1-.242.064h-.038c0-.191-.026-.383-.102-.535a1 1 0 0 0-.676-.561.514.514 0 0 0-.485.153c-.012.012-.012.025-.012.038-.064-.026-.128-.038-.179-.051-.599-.153-1.262.05-1.453.42-.064.026-.14.064-.166.166-.025.102.026.166.064.217 0 .115.038.242.115.37.19.318.573.586.981.688l.191.038v.039a.46.46 0 0 0 .357.37.785.785 0 0 0 .243.025c.51 0 .943-.395 1.096-.982.038 0 .077 0 .115-.013.127-.012.255-.038.37-.089.076-.038.114-.153.076-.255Zm-3.11-.012c-.052-.09-.064-.153-.052-.179.013-.038.013-.077 0-.102a.206.206 0 0 0 .051-.09c.039-.152.536-.356 1.033-.242.166.039.319.115.446.205.013.127 0 .305-.038.497a1.407 1.407 0 0 1-.204.459c-.153.012-.319 0-.485-.039-.37-.089-.65-.318-.752-.51Zm2.154.267c-.102.42-.395.701-.727.701H7.49c.192-.178.345-.497.421-.79.077-.319.077-.65 0-.892.179.076.28.216.332.318.089.191.102.421.038.663ZM18.493 56.657h.013c.7 0 1.236-.46 1.249-1.059a.456.456 0 0 0-.268-.433h-.038c.013-.064.013-.127.013-.191 0-.421-.153-.854-.421-1.122a.714.714 0 0 0-.331-.204c-.026-.051-.09-.128-.192-.128-.102 0-.165.064-.204.115-.395.077-.777.689-.777 1.3 0 .064 0 .128.012.192h-.038c-.102.038-.268.165-.268.433 0 .306.128.587.37.79.14.115.306.192.497.243 0 .013-.012.025-.012.038a.61.61 0 0 1-.128.217.198.198 0 0 0 .026.267.206.206 0 0 0 .114.039.199.199 0 0 0 .153-.077 1.04 1.04 0 0 0 .179-.331c.025-.026.038-.064.05-.09Zm-.077-2.64a.24.24 0 0 0 .102-.025.24.24 0 0 0 .102.026c.026 0 .09.025.153.102.153.153.306.484.306.854 0 .165-.038.331-.089.471a1.696 1.696 0 0 1-.497.077c-.204 0-.37-.038-.497-.09a1.175 1.175 0 0 1-.077-.484c.013-.51.344-.93.497-.93Zm-.79 1.645c.217.14.535.23.892.23.319 0 .638-.077.842-.204-.064.382-.46.586-.854.586h-.013a.992.992 0 0 1-.625-.204.604.604 0 0 1-.242-.408ZM17.37 57.906a1.181 1.181 0 0 1-.178.178c-.012.013-.025.013-.038.026-.217-.383-.56-.612-.956-.612a.97.97 0 0 0-.268.038.461.461 0 0 0-.344.37v.038l-.191.038c-.6.166-1.084.676-1.071 1.084-.038.051-.09.128-.064.23a.2.2 0 0 0 .166.153.713.713 0 0 0 .28.267c.204.115.472.179.74.179.153 0 .306-.026.446-.064a.739.739 0 0 0 .178-.064c0 .013.013.026.013.026a.425.425 0 0 0 .345.166c.038 0 .089 0 .14-.013a.896.896 0 0 0 .599-.472c.166-.28.204-.65.102-1.02.025-.013.064-.038.102-.064.102-.076.204-.153.28-.255.064-.089.051-.203-.038-.267-.05-.064-.178-.051-.242.038Zm-1.555 1.555c-.356.102-.713.026-.905-.089a.344.344 0 0 1-.14-.127.205.205 0 0 0-.05-.09c.012-.025.012-.063 0-.102-.04-.153.292-.573.777-.714.165-.05.331-.063.484-.05.077.114.153.267.204.458.051.192.064.37.051.498a1.099 1.099 0 0 1-.42.216Zm1.059-.178a.602.602 0 0 1-.28.255c.076-.242.063-.574-.014-.893-.076-.293-.242-.599-.433-.777.357-.038.689.242.803.675.051.28.038.549-.076.74Z"/><path fill="#004791" d="M28.883 61.769c.128 0 .242-.013.28-.102 0-.013.014-.026 0-.038v-.026c.014-.09.014-.191-1.249-.42.013-.46-.012-1.39-.573-1.747a.617.617 0 0 0-.345-.115c-.318 0-.484.268-.599.446a1.154 1.154 0 0 1-.063.102c-.052-.038-.077-.153-.128-.484l-.026-.217c-.05-.357-.165-1.084-.905-1.3a.97.97 0 0 0-.267-.038c-.536 0-.689.51-.778.815-.038.115-.09.294-.14.32-.102-.077-.09-.575-.09-.779v-.153c0-.994-.471-1.568-1.274-1.568-.077 0-.166 0-.243.013a.838.838 0 0 0-.56.268c-.243.306-.192.752-.14 1.134.012.128.037.332.025.421-.026.013-.051.013-.077.013-.127 0-.28-.14-.433-.446-.306-.536-.778-.842-1.3-.842-.524 0-1.008.293-1.352.816-.344.523-.395 1.122-.14 1.607.255.484.777.765 1.402.765h.306c.382 0 .523.102.6.267a1.87 1.87 0 0 1-.358.191c-.357.166-.752.358-.854.74-.051.217 0 .446.166.688.459.6.981.714 1.326.714.42 0 .854-.178 1.21-.51.052-.05.103-.089.141-.14.204-.191.485-.446.637-.446.013 0 .052 0 .077.025.013.051-.051.204-.09.294-.101.242-.229.548-.088.841.089.204.28.344.56.446.166.064.345.09.498.09.612 0 .994-.408 1.173-.612l.025-.026c.064-.064.115-.127.166-.191.178-.204.28-.306.382-.306.013.038.013.076.026.115.038.23.102.777.777.714.536-.064.97-.536 1.263-1.416.471.039.816.077 1.032.077Zm-2.371.752h-.102c-.026-.025-.051-.153-.051-.23-.026-.19-.077-.51-.395-.586a.979.979 0 0 0-.191-.025c-.37 0-.587.242-.804.497a2.211 2.211 0 0 0-.153.178l-.038.039c-.153.165-.395.433-.752.433-.102 0-.204-.025-.319-.064a.437.437 0 0 1-.23-.14c-.038-.076.039-.255.103-.395.102-.255.28-.676-.09-.956a.645.645 0 0 0-.42-.14c-.383 0-.714.306-1.033.611-.05.051-.09.09-.14.128-.255.23-.548.357-.829.357-.319 0-.625-.179-.867-.485-.038-.05-.102-.153-.076-.204.038-.127.344-.28.548-.37.357-.165.841-.394.663-.866-.255-.689-.93-.689-1.16-.689h-.191c-.472.039-.842-.14-1.008-.459-.153-.293-.114-.675.102-1.02.242-.356.561-.56.88-.56.319 0 .6.19.803.548.179.318.46.74.944.74.114 0 .23-.026.344-.077.382-.153.319-.6.28-.995-.025-.255-.076-.586.026-.701.012-.013.038-.051.178-.064.064-.013.128-.013.179-.013.191 0 .7 0 .714 1.008v.153c0 .433 0 .918.255 1.185a.586.586 0 0 0 .471.166c.421-.038.536-.433.625-.727.128-.433.179-.433.344-.382.37.102.447.459.497.829l.026.216c.064.434.128.88.637.995.026 0 .064.012.09.012.267 0 .408-.229.51-.382.038-.064.102-.166.114-.178 0 0 .013 0 .051.025.128.077.32.331.306 1.173-.14-.026-.28-.051-.446-.077-2.116-.37-4.78-1.427-5.66-1.772a1.218 1.218 0 0 0-.306-.102.18.18 0 0 0-.077.026c-.013.013-.013.013-.013.025 0 .013-.012.013-.012.026v.038c.063.179 3.518 1.823 5.953 2.257.166.025.306.05.46.063-.256.727-.549.906-.74.931ZM11.749 22.451l.038.051v.026h.09c.037 0 .088 0 .356-.294.357.191.829.408 1.288.408.191 0 .37-.038.51-.127a.596.596 0 0 0 .293-.37c.064-.242-.064-.459-.166-.625-.013-.025-.038-.063-.05-.089.076-.025.241.038.445.102l.243.077c.165.05.42.14.688.14.344 0 .625-.128.842-.37a.763.763 0 0 0 .242-.535c-.013-.32-.242-.536-.434-.727-.076-.064-.191-.179-.216-.242.012-.013.012-.013.05-.013.166 0 .46.153.702.268l.102.05c.994.472 1.772.205 2.052-.65a.759.759 0 0 0-.012-.624c-.166-.345-.561-.485-.918-.612a2.017 2.017 0 0 1-.37-.153c.013-.115.09-.268.6-.268.586-.013 1.057-.28 1.3-.714.255-.459.229-1.045-.09-1.606-.293-.523-.79-.829-1.313-.829-.6 0-1.122.383-1.39 1.007-.216.46-.37.561-.548.561-.025-.089-.012-.267-.012-.395 0-.37.012-.79-.256-1.058a.705.705 0 0 0-.51-.191c-.063 0-.127.012-.203.025-.549.115-.957.383-1.186.778-.23.382-.268.854-.115 1.351.026.077.038.153.064.23.115.382.204.714.064.777-.051-.012-.153-.14-.217-.216-.178-.204-.395-.46-.74-.46-.204 0-.407.103-.624.294-.663.676-.383 1.402-.268 1.721l.013.038c.025.077.05.14.076.204.115.306.14.396.102.485-.038-.013-.076-.026-.102-.039a1.198 1.198 0 0 0-.382-.076c-.153 0-.434.064-.587.446-.204.51.039 1.11.727 1.785-.217.344-.191.408-.178.459Zm-.026-2.027c.026-.064.051-.077.051-.077.051 0 .128.026.204.051a.967.967 0 0 0 .332.077c.178 0 .293-.09.356-.166.306-.382.166-.752.026-1.109-.026-.064-.051-.115-.076-.191l-.013-.051c-.14-.357-.23-.74.14-1.11.127-.114.204-.14.23-.14.076 0 .204.14.305.255.153.179.357.408.65.408a.5.5 0 0 0 .23-.05c.625-.268.408-.982.268-1.467-.026-.076-.038-.14-.064-.217-.102-.344-.09-.65.064-.892.153-.255.433-.433.803-.51.038-.013.064-.013.102-.013.077 0 .102.026.102.026.09.09.09.42.09.65 0 .395-.013.93.471.969.663.064.969-.42 1.186-.893.178-.42.497-.662.867-.662.318 0 .624.204.816.535.216.383.242.765.089 1.045-.153.255-.434.408-.816.421-.905 0-1.135.46-1.16.854-.026.408.408.561.752.676.23.076.523.178.586.306.013.013.026.064-.012.191-.14.447-.408.497-.6.497-.19 0-.42-.063-.663-.178l-.102-.051c-.306-.153-.65-.332-.956-.332a.616.616 0 0 0-.573.358c-.179.382.14.675.344.88.102.101.255.241.255.318 0 .025-.026.076-.09.14a.516.516 0 0 1-.42.179c-.179 0-.37-.064-.51-.115l-.23-.077c-.216-.076-.408-.14-.586-.14a.677.677 0 0 0-.535.255c-.204.255-.039.536.063.701.026.051.077.14.09.179-.013 0-.013.012-.026.012a.436.436 0 0 1-.23.051c-.293 0-.65-.152-.892-.28.204-.242.472-.56.803-.969 1.275-1.555 3.29-3.302 4.182-4.016l.025-.013c.23-.165.345-.267.357-.293v-.038l-.05-.064h-.052c-.038 0-.05 0-.395.268-.777.548-3.11 2.193-4.462 3.837-.357.434-.612.778-.803 1.033-.587-.574-.587-.905-.523-1.058ZM14.745 57.09c.56 0 1.083-.42 1.364-.663.204.14.357.217.433.217.077 0 .102-.038.115-.064v-.013c.013-.012.026-.025.026-.038.012-.05.025-.09-.294-.408.204-.331.752-1.236.396-1.861-.154-.268-.358-.332-.51-.332-.179 0-.332.09-.46.153-.025.013-.05.026-.089.038-.013-.063.013-.178.115-.446l.077-.216c.114-.306.382-1.008-.166-1.53-.166-.179-.344-.28-.548-.28-.306 0-.536.229-.727.407-.077.077-.204.204-.255.204-.064-.102.204-.574.293-.727l.051-.102c.28-.522.344-.981.204-1.364-.115-.318-.37-.56-.752-.714a.888.888 0 0 0-.344-.076c-.548 0-.765.548-.918.956-.051.115-.115.293-.166.37-.115-.026-.255-.115-.268-.574.026-.472-.102-.867-.382-1.147-.434-.447-1.186-.523-1.874-.179-.536.28-.867.765-.867 1.313 0 .574.344 1.097.943 1.403.485.216.561.382.548.548-.063.013-.229.013-.395 0-.102 0-.204-.013-.319-.013-.267 0-.599.026-.803.268-.14.153-.19.382-.153.65.128.905.727 1.479 1.556 1.479.165 0 .344-.025.51-.064.076-.012.153-.038.23-.063.216-.052.433-.115.598-.115.153 0 .166.038.179.076-.013.051-.14.153-.217.204-.204.153-.446.357-.484.676-.026.217.063.433.255.676.28.306.624.459 1.02.459.28 0 .522-.077.688-.128l.051-.013c.076-.025.14-.05.204-.076.166-.064.306-.102.395-.102.026 0 .051 0 .09.025l-.039.115c-.076.204-.293.74.332.995.089.05.216.076.357.076Zm-.753-1.785c-.19 0-.37.064-.586.14-.064.026-.128.051-.191.064l-.064.026c-.127.038-.306.102-.497.102a.75.75 0 0 1-.587-.268c-.089-.102-.127-.191-.114-.242.012-.09.153-.204.267-.294.23-.178.561-.446.396-.866-.064-.166-.243-.447-.714-.447-.243 0-.498.064-.74.128-.076.025-.14.038-.217.064a1.291 1.291 0 0 1-.37.05c-.547 0-.892-.356-.994-.981-.012-.102 0-.166.026-.191.025-.026.102-.077.37-.077.089 0 .19 0 .28.013.102 0 .191.013.28.013.434 0 .663-.153.702-.434.114-.688-.408-1.007-.855-1.211-.382-.204-.624-.535-.624-.892 0-.332.204-.625.56-.816.46-.243.944-.217 1.2.063.165.166.241.421.229.753.012.7.28 1.096.828 1.16h.039c.382 0 .535-.383.662-.74.102-.255.23-.586.396-.586.038 0 .076.013.14.038.23.09.37.217.433.383.09.216.026.535-.165.892l-.051.102c-.217.383-.447.803-.345 1.16a.603.603 0 0 0 .549.42c.267 0 .471-.19.65-.369.102-.102.255-.242.319-.242.025 0 .063.025.14.102.268.268.178.586.038.93l-.076.217c-.153.383-.294.778.063 1.135.09.077.179.115.294.115.152 0 .28-.077.407-.128.064-.025.154-.089.166-.089 0 0 .013.013.026.051.05.102.127.395-.319 1.173-.23-.217-.523-.485-.905-.841-1.084-.957-2.41-2.474-3.927-4.5-.115-.154-.191-.23-.217-.23h-.038a.13.13 0 0 0-.064.076c-.038.191 2.066 3.391 3.902 5.023.37.332.675.612.943.829-.357.293-.65.446-.905.446-.064 0-.115-.013-.166-.025l-.076-.039c-.013-.038.038-.153.063-.216.077-.179.192-.485-.05-.702a.693.693 0 0 0-.51-.242ZM6.394 44.596c.09.013.166.026.242.051.306.051.395.077.446.153-.025.026-.063.051-.089.077-.166.14-.599.497-.204 1.02.217.293.574.433 1.058.433.306 0 .6-.064.778-.102.204.433.28.446.319.446a.116.116 0 0 0 .09-.038l.037-.026c.026-.038.064-.089-.063-.522.37-.217 1.198-.727 1.224-1.403a.632.632 0 0 0-.153-.446c-.179-.178-.434-.191-.612-.191h-.102c.012-.064.089-.14.331-.344l.166-.14c.268-.23.828-.69.624-1.428-.102-.37-.357-.574-.7-.574-.166 0-.332.05-.485.089-.115.025-.23.064-.306.064-.026 0-.026 0-.038-.013.025-.115.433-.37.599-.472l.127-.076c.51-.319.79-.676.854-1.071.051-.344-.063-.689-.331-1.007-.204-.28-.446-.332-.612-.332-.344 0-.663.255-.93.472-.103.076-.256.204-.32.242-.089-.076-.165-.191.09-.65.293-.497.319-1.033.09-1.466-.256-.472-.791-.765-1.429-.79h-.064c-.599 0-1.109.28-1.35.752-.256.497-.192 1.109.178 1.657.293.42.255.612.165.752-.089-.025-.242-.127-.344-.191-.268-.166-.56-.357-.867-.357-.217 0-.497.09-.688.535-.179.498-.166.982.038 1.39.204.395.6.701 1.096.841.064.013.128.039.192.052.408.114.726.204.726.37a1.061 1.061 0 0 1-.293.076c-.255.038-.574.089-.752.357-.128.178-.153.408-.09.7.205.931.97 1.085 1.301 1.148l.051-.038Zm-.79-1.275c-.039-.178-.013-.242 0-.255.038-.064.23-.102.37-.115.267-.038.713-.114.764-.573.064-.65-.637-.842-1.134-.982-.064-.013-.128-.038-.179-.051-.344-.102-.612-.293-.752-.56-.128-.256-.14-.587-.013-.919.077-.178.14-.178.166-.178.14 0 .37.153.56.267.243.153.46.294.69.294a.47.47 0 0 0 .382-.192c.459-.637.013-1.262-.128-1.466-.255-.37-.306-.752-.14-1.058.153-.28.459-.446.854-.446h.051c.434.013.79.204.956.484.14.255.115.574-.076.906-.14.242-.561.968.102 1.427.076.064.178.09.28.09.243 0 .46-.179.702-.37.178-.14.42-.344.573-.344.026 0 .064 0 .153.114.166.204.242.396.217.561-.038.23-.242.46-.586.676l-.115.077c-.37.229-.79.484-.867.854a.612.612 0 0 0 .115.459c.076.102.23.23.484.23.153 0 .306-.04.446-.077.128-.026.243-.064.345-.064.063 0 .101 0 .152.153.102.357-.152.6-.446.841l-.165.14c-.332.268-.663.549-.498 1.046.102.306.434.319.625.319.064 0 .153 0 .204.012v.026c0 .14-.127.434-.816.854l-.395-1.134c-.65-1.875-1.02-4.463-1.186-5.572-.05-.395-.115-.599-.178-.599l-.077.038c-.089.128.102 3.85.956 6.285.179.498.32.867.447 1.16-.153.026-.357.064-.549.064-.293 0-.497-.063-.612-.204a.583.583 0 0 1-.05-.076c.012-.038.101-.115.152-.153.14-.128.396-.332.28-.638-.152-.458-.535-.522-.917-.586l-.23-.038-.05-.013c-.37-.09-.74-.204-.867-.714ZM5.884 31.146l.026.025c.063.051.127.102.178.14.242.204.319.268.319.358-.038.012-.077.012-.115.025-.204.038-.765.14-.676.79.064.523.561.931 1.454 1.186-.013.344.038.408.063.446.026.026.064.051.102.051h.026c.064 0 .102 0 .204-.433.408 0 1.39-.038 1.76-.638a.562.562 0 0 0 .089-.458c-.064-.243-.28-.37-.447-.46-.025-.012-.063-.038-.089-.05.038-.051.153-.077.446-.14l.23-.052c.319-.064 1.07-.204 1.236-.943.179-.752-.484-.918-.803-1.007-.102-.026-.255-.064-.306-.102v-.013c.102-.102.549-.115.79-.128h.115c.574-.038.995-.216 1.25-.522.217-.268.293-.625.23-1.033-.039-.255-.205-.688-.855-.688-.191 0-.382.038-.56.063-.141.026-.268.051-.37.051h-.026c-.038-.114-.038-.293.37-.522.51-.28.79-.74.803-1.237.013-.535-.319-1.045-.867-1.39-.65-.395-1.428-.306-1.874.179-.293.319-.446.778-.395 1.288.038.51-.026.675-.192.764a1.754 1.754 0 0 1-.204-.344c-.204-.37-.446-.829-.905-.829-.178 0-.357.077-.522.217-.421.345-.663.765-.676 1.224-.026.46.178.905.56 1.288.052.05.116.102.167.166.293.28.522.522.407.65-.063 0-.178-.039-.28-.077a1.372 1.372 0 0 0-.523-.127c-.242 0-.56.114-.726.65-.268.918.331 1.415.586 1.632Zm-.038-1.466c.064-.242.14-.242.178-.242.09 0 .204.05.332.089.153.05.319.114.484.114a.53.53 0 0 0 .46-.229c.42-.535-.116-1.058-.473-1.402l-.152-.153c-.268-.255-.408-.561-.396-.855.013-.28.179-.56.472-.803.102-.076.153-.089.166-.089.127 0 .306.331.408.523.178.318.357.65.688.65a.407.407 0 0 0 .179-.038c.688-.268.637-.982.599-1.352-.026-.344.064-.65.242-.854.28-.293.74-.331 1.16-.076.37.229.587.56.587.892 0 .293-.192.56-.51.74-.803.458-.714 1.007-.587 1.313.064.127.204.28.523.28.14 0 .293-.025.459-.05.153-.026.319-.052.459-.052.23 0 .268.064.28.204.039.255 0 .446-.102.587-.14.178-.433.293-.828.306h-.102c-.434.012-.931.038-1.186.318a.597.597 0 0 0-.153.446c.038.421.459.523.727.6.446.114.433.153.382.318-.089.357-.42.447-.79.523l-.23.051c-.408.076-.828.153-.918.663-.063.319.23.485.396.586.05.026.127.077.165.102 0 .013-.012.013-.012.026-.077.127-.332.331-1.148.357.064-.319.14-.727.242-1.262.332-1.925 1.288-4.348 1.696-5.38.153-.395.204-.612.166-.65a.097.097 0 0 0-.064-.026c-.23 0-1.887 3.582-2.308 5.954-.102.56-.165.981-.216 1.3-.765-.242-.918-.523-.944-.688-.012-.064 0-.09 0-.09.026-.025.153-.05.217-.063.191-.038.497-.102.561-.421.09-.484-.217-.74-.523-.982a1.608 1.608 0 0 1-.165-.14l-.039-.025c-.255-.23-.522-.51-.382-1.02ZM53.808 23.025c-.013.013-.013.025-.026.038-.05.076-.115.127-.178.178-.09.064-.102.179-.051.268a.2.2 0 0 0 .153.077.145.145 0 0 0 .102-.039.892.892 0 0 0 .267-.267c.026-.039.051-.077.064-.102.153.05.306.076.446.076.51 0 .918-.28 1.058-.714a.462.462 0 0 0-.127-.497c-.013-.013-.026-.013-.026-.013.026-.064.051-.114.064-.178.128-.395.102-.867-.076-1.199a.614.614 0 0 0-.255-.28.231.231 0 0 0-.153-.179c-.102-.038-.179.013-.23.051-.408-.025-.93.434-1.122 1.02-.025.064-.038.128-.05.192-.013 0-.026-.013-.039-.013a.45.45 0 0 0-.382.331c-.09.294-.051.6.127.867.14.153.28.28.434.383Zm.306-1.632c.153-.485.586-.803.739-.752.038.012.076.012.102.012a.206.206 0 0 0 .09.051.343.343 0 0 1 .127.14c.102.192.153.562.05.906a1.458 1.458 0 0 1-.216.42h-.051c-.14 0-.306-.025-.446-.076a1.317 1.317 0 0 1-.446-.23c-.026-.152 0-.318.05-.471Zm-.498.586c.166.192.447.37.765.472.191.064.383.09.561.09.077 0 .204-.014.332-.039-.115.23-.357.37-.663.37-.115 0-.23-.013-.344-.051-.23-.077-.434-.204-.549-.383a.684.684 0 0 1-.102-.459ZM52.38 24.465c.038-.012.063-.012.114-.038a.921.921 0 0 0 .332-.178c.09-.064.102-.179.038-.268-.064-.09-.178-.102-.268-.038a.646.646 0 0 1-.23.114c-.012.013-.025.013-.037.013-.115-.523-.51-.892-1.02-.905a.463.463 0 0 0-.42.255v.038c-.065-.013-.128-.013-.192-.013-.625-.012-1.224.332-1.326.727-.051.026-.128.09-.128.191 0 .102.064.166.115.204.026.115.09.23.191.332.255.267.689.446 1.11.459h.038c.05 0 .102 0 .14-.013v.038a.46.46 0 0 0 .42.28h.026c.625.014 1.071-.497 1.097-1.198Zm-1.709.536c-.37-.013-.688-.179-.841-.332-.064-.076-.09-.127-.09-.165 0-.039 0-.077-.025-.102a.24.24 0 0 0 .026-.102c0-.153.446-.472.956-.46.166 0 .331.039.471.103.039.127.077.293.064.497 0 .204-.05.37-.102.497-.14.038-.306.064-.459.064Zm.702.293c.14-.217.229-.548.242-.867 0-.331-.077-.65-.192-.867.358.064.587.42.574.88-.013.472-.267.816-.624.854ZM54.458 36.424c.153.102.331.14.51.14.408 0 .803-.242 1.045-.663.038.013.064.013.115.026.076.012.166.025.242.025.051 0 .09 0 .128-.013a.19.19 0 0 0 .165-.216.198.198 0 0 0-.216-.166.878.878 0 0 1-.255-.013c-.013 0-.026 0-.051-.012.063-.179.076-.37.05-.549a.996.996 0 0 0-.484-.74.46.46 0 0 0-.255-.076.442.442 0 0 0-.255.077c-.013.013-.013.025-.025.025-.051-.038-.102-.076-.153-.102-.523-.318-1.224-.318-1.517-.025-.064 0-.153.013-.204.102-.051.09-.026.166 0 .23a.651.651 0 0 0 0 .382c.089.357.382.727.74.943.05.038.114.064.165.09 0 .012-.013.025-.013.038.013.14.038.357.268.497Zm1.39-1.364c.025.204-.026.433-.154.65-.23.382-.637.574-.956.433.217-.114.46-.344.638-.624.165-.28.267-.612.267-.855a.63.63 0 0 1 .204.396Zm-2.142-.255c-.026-.102-.013-.166 0-.191.025-.039.025-.064.025-.102a.217.217 0 0 0 .077-.077c.076-.127.624-.191 1.058.077.14.089.267.19.37.318a1.351 1.351 0 0 1-.192.472c-.102.178-.23.306-.331.383a1.218 1.218 0 0 1-.447-.179c-.305-.178-.51-.484-.56-.701ZM58.538 34.04c-.013-.013-.013-.026-.026-.026-.013-.012-.077-.038-.166-.038a.436.436 0 0 0-.318.14 1.055 1.055 0 0 0-.32.702c0 .216.052.433.166.637-.012 0-.025.013-.038.013a.527.527 0 0 1-.242.063.206.206 0 0 0-.178.205c.012.101.089.178.19.178h.014c.127-.013.255-.051.37-.102.05-.026.076-.038.114-.051.268.28.612.446.956.446.255 0 .497-.09.676-.268.191-.178.178-.395.127-.497 0-.013-.012-.013-.025-.025a.668.668 0 0 0 .14-.128c.306-.28.51-.714.523-1.083a.852.852 0 0 0-.077-.383c.013-.064.026-.153-.05-.23-.064-.076-.154-.076-.23-.063-.332-.23-1.033-.077-1.48.344-.037.077-.076.115-.127.166Zm-.166 1.466a1.007 1.007 0 0 1-.294-.676c0-.14.051-.255.128-.37.051.243.204.536.433.778.23.242.51.421.753.485-.28.204-.714.102-1.02-.217Zm1.568-1.632a.39.39 0 0 0 .09.064c.012.025.025.064.05.09.026.025.038.076.038.178 0 .216-.127.56-.395.816a1.352 1.352 0 0 1-.395.267 1.38 1.38 0 0 1-.395-.306c-.14-.14-.23-.293-.28-.42a1.18 1.18 0 0 1 .292-.383c.357-.344.893-.408.995-.306ZM54.126 46.19a.452.452 0 0 0-.395-.243h-.05c-.014 0-.026.013-.04.013a.688.688 0 0 0-.088-.166c-.306-.535-.918-.866-1.314-.752-.05-.025-.14-.064-.229 0a.218.218 0 0 0-.115.204.654.654 0 0 0-.191.332c-.102.357-.026.816.191 1.185.026.064.064.115.102.166-.013.013-.025.013-.025.026a.467.467 0 0 0-.013.51c.178.318.51.51.905.51.242 0 .485-.064.714-.205.026.026.051.051.09.077.101.09.203.153.318.204a.162.162 0 0 0 .077.013c.076 0 .14-.051.178-.115.038-.102-.013-.204-.102-.255a.748.748 0 0 1-.217-.128c-.012-.012-.025-.025-.038-.025.37-.395.484-.918.242-1.351Zm-2.052-.51c.025-.102.064-.153.089-.166.038-.013.064-.051.076-.064a.392.392 0 0 0 .102-.025c.14-.077.638.14.893.573.09.14.14.306.166.447-.09.102-.217.216-.383.318a1.516 1.516 0 0 1-.484.179 1.331 1.331 0 0 1-.294-.357c-.203-.332-.229-.701-.165-.905Zm1.3 1.746a1.063 1.063 0 0 1-.523.153.624.624 0 0 1-.522-.242c.255.013.573-.09.854-.242.28-.166.523-.395.637-.625.153.37-.089.752-.446.956ZM58.334 47.669c-.179-.37-.855-.574-1.454-.421-.064.013-.127.038-.178.05 0-.012-.013-.025-.013-.037-.064-.102-.268-.217-.485-.153-.306.076-.535.28-.675.56a1.262 1.262 0 0 0-.115.536h-.051a.755.755 0 0 1-.242-.064.197.197 0 0 0-.255.102.197.197 0 0 0 .102.255c.114.051.242.077.37.09.05 0 .089.012.114.012.153.587.587.982 1.097.982.076 0 .165-.013.242-.026.255-.063.344-.255.357-.37v-.038l.191-.038c.408-.102.79-.37.982-.688a.731.731 0 0 0 .114-.37.226.226 0 0 0 .064-.217c-.025-.102-.102-.14-.166-.166Zm-2.5.828a.971.971 0 0 1 .039-.663.583.583 0 0 1 .331-.319c-.076.243-.076.574 0 .893.077.293.23.612.421.79-.37.039-.688-.255-.79-.7Zm2.155-.267c-.114.19-.395.42-.74.51a1.507 1.507 0 0 1-.47.038 1.545 1.545 0 0 1-.205-.46 1.408 1.408 0 0 1-.038-.496c.127-.09.28-.154.446-.205.485-.127.995.09 1.033.23a.206.206 0 0 0 .05.09.14.14 0 0 0 0 .101c-.012.039-.025.102-.076.192ZM46.018 56.644c0-.013-.013-.026-.013-.038.523-.14.88-.536.867-1.033 0-.255-.178-.395-.268-.42h-.038c0-.064.013-.128.013-.192-.013-.612-.383-1.211-.778-1.3a.212.212 0 0 0-.191-.115c-.102 0-.166.064-.204.127a.714.714 0 0 0-.331.204c-.256.268-.421.701-.421 1.122 0 .064 0 .128.012.191h-.038a.456.456 0 0 0-.267.434c.012.6.548 1.058 1.249 1.058h.013c.013.038.025.064.038.115.051.127.102.23.191.331.038.051.09.077.153.077.038 0 .09-.013.115-.038a.198.198 0 0 0 .025-.268l-.127-.255Zm-.676-2.524c.064-.077.128-.102.153-.102a.24.24 0 0 0 .102-.026.236.236 0 0 0 .09.026h.012c.153 0 .485.433.497.943 0 .166-.025.331-.076.472-.128.05-.306.089-.51.089-.191 0-.357-.038-.484-.077a1.41 1.41 0 0 1-.09-.471c-.013-.37.153-.701.306-.854Zm-.586 1.568c.204.127.523.204.867.204.331 0 .65-.09.867-.23-.051.357-.396.6-.855.612h-.012c-.408 0-.816-.204-.867-.586ZM48.708 57.97l-.191-.038v-.039a.461.461 0 0 0-.345-.37.97.97 0 0 0-.267-.038c-.395 0-.74.242-.956.612-.013 0-.026-.013-.039-.025a.84.84 0 0 1-.19-.179c-.065-.089-.18-.102-.269-.038-.089.064-.102.178-.038.268a.896.896 0 0 0 .28.255c.039.025.077.05.103.063-.102.37-.064.74.102 1.02.14.23.344.396.599.472.05.013.09.013.14.013.166 0 .293-.09.344-.166.013-.013.013-.025.013-.038.064.025.115.038.178.064.14.038.294.063.447.063.267 0 .535-.063.74-.178a.712.712 0 0 0 .28-.268.2.2 0 0 0 .165-.153.231.231 0 0 0-.063-.23c.05-.395-.447-.904-1.033-1.07Zm-1.173 1.58a.602.602 0 0 1-.28-.254c-.115-.192-.14-.472-.064-.74.115-.408.408-.688.726-.688h.077c-.191.178-.357.484-.446.777-.09.32-.09.663-.013.906Zm1.849-.395a.205.205 0 0 0-.051.09.344.344 0 0 1-.14.127 1.29 1.29 0 0 1-.906.077 1.235 1.235 0 0 1-.433-.204c-.013-.128 0-.306.05-.498.052-.19.128-.344.205-.459.153-.012.319 0 .484.051.485.128.829.561.778.702 0 .05 0 .089.013.114ZM44.17 57c-.523 0-1.008.307-1.301.855-.166.306-.306.446-.446.446-.026 0-.051 0-.077-.013-.012-.089.013-.28.026-.42.05-.383.102-.829-.14-1.135a.754.754 0 0 0-.536-.268c-.969-.127-1.53.447-1.543 1.556v.153c0 .216 0 .7-.102.777-.038-.038-.102-.216-.127-.318-.09-.306-.242-.816-.778-.816-.076 0-.178.013-.267.038-.753.217-.855.943-.906 1.3l-.025.217c-.051.332-.077.446-.128.485a.277.277 0 0 1-.063-.102c-.115-.179-.28-.447-.6-.447a.69.69 0 0 0-.357.115c-.56.357-.586 1.288-.573 1.747-1.262.23-1.262.331-1.25.42v.026c0 .013 0 .025.013.038.026.09.14.102.28.102.204 0 .561-.025 1.046-.102.293.88.727 1.364 1.262 1.415h.102c.561 0 .638-.497.676-.714 0-.038.012-.076.025-.114.102 0 .204.102.383.306.05.063.114.127.165.19l.026.04c.178.19.56.611 1.173.611.166 0 .331-.025.497-.09.293-.101.472-.241.561-.445.14-.294.013-.6-.09-.842a1.576 1.576 0 0 1-.101-.28c.038-.026.064-.026.076-.026.153 0 .434.255.638.446.05.051.102.09.14.14.357.332.79.51 1.211.51.357 0 .88-.127 1.339-.726.166-.242.216-.472.166-.689-.102-.382-.498-.573-.855-.739-.114-.064-.28-.14-.357-.191.077-.166.217-.268.6-.268h.153c.7.051 1.274-.242 1.555-.765.255-.484.204-1.084-.14-1.606-.345-.51-.842-.816-1.352-.816Zm.981 2.155c-.153.294-.485.46-.892.46h-.115c-.064 0-.128-.013-.191-.013-.217 0-.893 0-1.16.688-.18.459.318.688.662.867.204.102.51.242.549.37.012.063-.039.153-.077.204-.255.318-.548.497-.88.497-.28 0-.573-.128-.828-.357-.051-.038-.09-.09-.14-.128-.32-.293-.638-.611-1.033-.611a.725.725 0 0 0-.42.14c-.37.28-.192.7-.09.956.064.14.127.319.102.395-.026.051-.102.102-.23.14a1.01 1.01 0 0 1-.318.064c-.37 0-.6-.255-.765-.433l-.039-.039c-.063-.063-.114-.114-.153-.178-.229-.255-.446-.497-.803-.497a.98.98 0 0 0-.191.025c-.331.064-.382.395-.408.587-.013.063-.025.19-.05.23 0 0-.04.012-.103 0-.204-.026-.484-.205-.752-.932.14-.025.293-.05.459-.063 2.435-.434 5.89-2.078 5.954-2.257v-.038c0-.013 0-.026-.013-.026 0-.012-.013-.012-.013-.025-.013-.026-.038-.026-.064-.026-.025 0-.025 0-.306.115-.88.344-3.544 1.402-5.66 1.772-.166.026-.306.051-.446.077 0-.829.19-1.084.306-1.173.012-.013.025-.013.038-.026.038.026.09.115.127.179.115.178.268.446.612.382.51-.114.574-.56.638-.994l.025-.204c.064-.383.14-.727.498-.829.165-.05.216-.05.344.383.089.293.204.688.624.726a.572.572 0 0 0 .472-.165c.268-.268.255-.753.255-1.186v-.153c0-1.007.51-1.007.701-1.007.064 0 .115 0 .191.013.115.012.154.05.166.063.09.115.051.46.026.702-.051.395-.102.84.268.994.114.05.229.076.344.076.484 0 .765-.42.943-.739.204-.357.485-.548.803-.548.32 0 .65.204.88.56.28.307.319.69.153.982ZM54.139 51.94c-.102 0-.204 0-.319.012a1.978 1.978 0 0 1-.395 0c-.013-.166.051-.331.561-.56.587-.307.93-.83.93-1.403 0-.548-.318-1.033-.866-1.313-.689-.357-1.44-.28-1.874.178-.268.28-.395.689-.383 1.135-.012.51-.166.574-.267.6-.052-.065-.115-.243-.166-.37-.153-.396-.37-.957-.918-.957a.841.841 0 0 0-.344.077c-.383.153-.65.395-.765.714-.14.382-.077.841.204 1.377l.05.102c.09.153.332.599.281.726-.064-.025-.166-.14-.242-.204-.191-.178-.42-.408-.727-.408a.707.707 0 0 0-.535.268c-.561.548-.293 1.25-.179 1.543l.077.216c.102.28.127.383.114.447-.025-.013-.063-.026-.076-.039-.127-.064-.28-.153-.459-.153-.153 0-.357.064-.497.319-.37.625.191 1.543.382 1.861-.318.32-.318.357-.306.408 0 .013.013.039.039.051.012.013.012.026.025.039.013.012.064.025.09.025.076 0 .229-.076.433-.217.28.243.803.663 1.364.663.127 0 .255-.025.382-.076.612-.255.408-.79.32-.995l-.04-.114c.04-.026.065-.026.09-.026.09 0 .23.051.395.102.064.026.128.051.204.077l.051.012c.166.051.395.128.689.128.395 0 .74-.153 1.032-.485.192-.23.268-.446.255-.663-.038-.318-.28-.522-.484-.675-.077-.064-.204-.166-.217-.217.013-.038.026-.077.179-.077.165 0 .382.064.599.115.076.026.153.038.217.051.178.051.344.064.51.064.828 0 1.428-.56 1.555-1.479.038-.268-.013-.484-.153-.65-.217-.191-.548-.23-.816-.23Zm.395.84c-.114.779-.612 1.136-1.364.932-.064-.013-.14-.039-.217-.051-.255-.064-.51-.128-.74-.128-.47 0-.65.28-.713.446-.166.421.178.689.395.867.115.09.255.204.268.293 0 .051-.038.14-.115.23-.178.191-.37.28-.599.28-.191 0-.37-.063-.51-.102l-.051-.012a1.123 1.123 0 0 0-.191-.064c-.204-.077-.395-.14-.587-.14a.744.744 0 0 0-.522.216c-.243.23-.128.523-.051.702.025.063.076.19.063.216 0 0-.025.026-.063.039-.255.102-.625-.051-1.071-.421.255-.217.573-.485.943-.816 1.836-1.632 3.94-4.845 3.901-5.023 0-.026-.025-.064-.063-.077h-.039c-.038 0-.102.077-.216.23-1.53 2.027-2.843 3.544-3.94 4.5-.382.357-.675.625-.905.842-.446-.765-.37-1.071-.319-1.173.013-.013.013-.026.013-.026a.773.773 0 0 1 .178.09.853.853 0 0 0 .396.127.457.457 0 0 0 .306-.115c.357-.344.204-.74.064-1.134l-.077-.217c-.127-.344-.23-.676.064-.956.064-.064.102-.09.114-.09.077 0 .23.153.32.243.178.178.382.37.65.37.089 0 .165-.026.242-.064a.603.603 0 0 0 .306-.357c.102-.37-.128-.79-.345-1.16l-.05-.09c-.192-.37-.256-.688-.166-.905.063-.166.204-.293.446-.382.05-.026.09-.026.127-.026.153 0 .294.332.396.587.14.344.293.739.663.739h.05c.523-.064.804-.459.816-1.186-.012-.306.064-.56.23-.726.255-.268.74-.294 1.198-.064.357.178.561.472.561.816 0 .357-.23.688-.599.88-.459.203-.982.535-.867 1.21.038.294.268.447.701.447.09 0 .179 0 .28-.013.09 0 .192-.013.281-.013.268 0 .345.051.37.077.038-.013.051.064.038.153ZM59.277 39.114c-.306 0-.612.191-.867.357-.102.064-.255.166-.344.191-.09-.14-.115-.344.165-.752.37-.535.434-1.16.179-1.645-.242-.471-.752-.752-1.351-.752h-.064c-.638.026-1.173.319-1.428.79-.242.434-.204.97.09 1.467.254.446.19.573.101.65a2.175 2.175 0 0 1-.319-.23c-.267-.216-.586-.471-.93-.471-.166 0-.395.063-.587.319-.28.33-.395.675-.357 1.02.064.395.345.764.855 1.07l.127.077c.178.102.587.357.6.484h-.039c-.076 0-.191-.025-.306-.063-.153-.039-.319-.09-.484-.09-.357 0-.6.204-.702.574-.204.74.357 1.211.625 1.428l.166.14c.242.204.319.28.331.344h-.102c-.191 0-.433 0-.612.192a.632.632 0 0 0-.153.446c.013.688.842 1.198 1.224 1.402-.127.446-.089.497-.063.523l.089.05h.012l.026.014c.051 0 .115 0 .319-.434.178.038.471.102.777.102.485 0 .842-.14 1.071-.433.395-.523-.038-.88-.204-1.02-.025-.026-.063-.051-.089-.077.051-.076.14-.102.446-.153.077-.013.153-.025.242-.05l.052-.014c.331-.063 1.096-.216 1.3-1.147.064-.293.038-.523-.09-.701-.178-.268-.496-.319-.752-.357-.102-.013-.255-.038-.28-.064-.013-.166.306-.268.714-.382.064-.013.127-.038.191-.051.497-.14.893-.447 1.097-.842.204-.408.216-.88.025-1.402-.191-.408-.484-.51-.701-.51Zm-4.093 7.407.013-.013.013.013h-.026Zm4.246-5.737c-.128.255-.395.459-.752.561-.064.013-.115.038-.179.051-.497.14-1.198.319-1.135.982.052.459.498.522.766.573.14.026.331.051.37.115.012.013.037.077 0 .255-.115.523-.485.638-.855.701l-.051.013-.23.038c-.37.064-.764.128-.917.587-.115.319.14.523.28.637.051.051.153.128.153.153 0 0 0 .026-.05.077-.103.14-.32.216-.613.216-.204 0-.395-.038-.548-.063.115-.294.255-.663.446-1.16.854-2.448 1.046-6.158.956-6.286l-.076-.038c-.064 0-.128.204-.179.6-.153 1.108-.522 3.696-1.185 5.57a21.81 21.81 0 0 0-.395 1.148c-.702-.42-.816-.714-.816-.854v-.038c.05-.013.14-.013.203-.013.192 0 .523-.013.638-.319.166-.484-.178-.765-.497-1.045l-.166-.14c-.293-.243-.535-.485-.446-.842.038-.153.089-.153.153-.153.089 0 .217.038.331.064.153.038.293.076.447.076a.567.567 0 0 0 .484-.23.612.612 0 0 0 .115-.458c-.077-.37-.498-.625-.867-.854l-.115-.077c-.357-.217-.561-.446-.587-.676-.025-.178.051-.357.23-.573.076-.102.127-.102.14-.102.14 0 .396.19.574.344.242.204.459.37.701.37a.4.4 0 0 0 .268-.09c.676-.459.255-1.198.115-1.428-.192-.318-.217-.637-.077-.905.153-.293.51-.471.956-.484h.051c.396 0 .702.166.855.446.165.306.114.688-.14 1.058-.141.204-.587.829-.116 1.48a.49.49 0 0 0 .383.19c.23 0 .446-.14.688-.293.192-.115.421-.268.561-.268.026 0 .09 0 .153.153.115.345.115.663-.025.931ZM55.503 24.657c-.459-.498-1.224-.574-1.874-.179-.548.332-.867.854-.867 1.39.013.497.306.943.803 1.236.421.243.408.421.37.523h-.025c-.09 0-.23-.025-.37-.05-.179-.026-.37-.065-.561-.065-.65 0-.816.434-.854.689-.064.42 0 .765.23 1.032.254.32.675.498 1.261.523h.115c.242.013.688.026.778.128v.012c-.051.039-.204.077-.306.102-.319.077-.982.255-.803 1.008.178.752.918.892 1.236.956l.23.05c.293.052.395.09.446.141-.026.013-.064.038-.09.051-.152.09-.382.217-.446.459a.591.591 0 0 0 .09.472c.37.599 1.351.624 1.76.637.101.42.14.42.203.42h.026a.193.193 0 0 0 .102-.05c.025-.026.076-.09.063-.446.893-.268 1.39-.663 1.454-1.186.089-.65-.472-.752-.676-.79-.038-.013-.077-.013-.115-.026 0-.09.077-.166.319-.357.051-.05.115-.09.178-.14l.026-.026c.255-.216.854-.714.586-1.632-.153-.535-.484-.65-.726-.65-.192 0-.37.064-.523.128a.977.977 0 0 1-.306.076c-.09-.114.14-.357.42-.637.065-.051.116-.115.167-.153.382-.37.586-.829.56-1.288-.025-.459-.255-.88-.675-1.224-.179-.14-.357-.216-.523-.216-.459 0-.714.459-.905.828-.064.115-.14.268-.204.344-.166-.076-.242-.242-.191-.764.05-.549-.09-1.008-.383-1.326Zm.408 2.6a.51.51 0 0 0 .191.039c.332 0 .51-.332.689-.65.102-.205.293-.523.408-.523.013 0 .076.012.166.089.293.242.459.523.471.803.013.293-.127.587-.395.854l-.153.153c-.357.345-.905.88-.484 1.403.114.153.267.23.471.23.166 0 .319-.065.485-.116.114-.038.242-.089.331-.089.038 0 .102 0 .179.23.153.51-.128.79-.408 1.032l-.038.026c-.064.05-.115.09-.166.14-.306.242-.612.497-.523.969.064.319.37.383.561.42.064.014.191.039.217.064 0 0 .013.026 0 .102-.026.154-.179.434-.944.689-.038-.319-.102-.74-.204-1.288-.408-2.358-2.078-5.953-2.307-5.953a.097.097 0 0 0-.064.025c-.038.038.026.255.178.637.408 1.033 1.352 3.455 1.696 5.38.102.536.179.957.242 1.263-.816-.026-1.07-.23-1.147-.357 0-.013-.013-.026-.013-.026.038-.025.115-.076.166-.102.166-.102.459-.267.395-.586-.102-.498-.51-.587-.918-.663l-.23-.051c-.369-.064-.7-.166-.79-.523-.038-.166-.05-.204.395-.319.281-.076.702-.178.727-.612a.586.586 0 0 0-.153-.433c-.255-.28-.752-.293-1.185-.319h-.102c-.408-.025-.702-.127-.842-.319-.115-.14-.14-.331-.102-.586.026-.14.064-.204.28-.204.14 0 .307.026.46.051.165.026.318.051.459.051.318 0 .459-.153.535-.293.127-.293.217-.842-.586-1.3-.332-.192-.51-.447-.51-.74 0-.332.216-.663.586-.892.42-.255.892-.217 1.16.076.191.204.28.51.242.854-.05.395-.102 1.097.574 1.364ZM44.769 15.592c-.32.561-.345 1.147-.09 1.606.242.434.714.689 1.313.714.498 0 .574.153.587.268-.064.051-.242.102-.37.153-.357.128-.752.268-.918.612a.782.782 0 0 0-.012.612c.28.867 1.045 1.135 2.052.663l.102-.051c.23-.115.523-.268.701-.268.026 0 .038 0 .051.013-.025.05-.14.166-.217.242-.19.179-.433.408-.433.727 0 .191.077.37.23.535.216.255.51.37.854.37.267 0 .522-.09.688-.14l.242-.077c.192-.063.357-.127.447-.102-.013.026-.039.064-.051.09-.102.153-.23.37-.166.624.038.153.14.268.306.37.14.076.319.127.51.127.446 0 .93-.216 1.288-.407.267.293.318.293.356.293a.18.18 0 0 0 .077-.026h.025l.026-.05c.025-.039.05-.115-.153-.447.676-.676.918-1.275.727-1.785-.153-.382-.434-.446-.587-.446-.14 0-.267.038-.382.076-.026.013-.077.026-.102.039-.038-.09-.013-.179.102-.485.025-.064.05-.127.076-.204l.013-.038c.115-.306.395-1.045-.28-1.721-.204-.191-.408-.293-.612-.293-.345 0-.561.255-.74.459-.064.076-.178.204-.23.204-.14-.064-.05-.383.064-.778.026-.077.051-.153.064-.217.153-.497.115-.969-.115-1.351-.23-.395-.65-.663-1.198-.778-.357-.064-.6.064-.701.179-.255.255-.255.688-.255 1.058 0 .127 0 .306-.013.395-.178 0-.331-.102-.548-.548-.268-.638-.79-1.007-1.39-1.007-.548-.039-1.045.267-1.338.79Zm.497.28c.191-.331.497-.535.816-.535.357 0 .688.255.867.676.204.446.484.892 1.07.892h.115c.485-.05.485-.574.472-.969 0-.23 0-.56.09-.65.012-.013.025-.025.101-.025.026 0 .064 0 .09.012.382.077.662.255.815.51.14.243.166.548.064.905-.025.064-.038.14-.064.204-.14.485-.37 1.199.255 1.467a.5.5 0 0 0 .23.05c.293 0 .497-.229.65-.407.102-.115.217-.255.306-.255.026 0 .09.012.217.127.382.383.28.752.14 1.11l-.013.05-.076.192c-.14.357-.28.726.025 1.109a.453.453 0 0 0 .357.165c.115 0 .23-.038.332-.076a.756.756 0 0 1 .216-.051s.026.013.051.076c.064.153.064.485-.522 1.097-.191-.255-.447-.6-.803-1.033-1.352-1.645-3.685-3.302-4.463-3.837-.331-.268-.357-.268-.395-.268h-.038l-.064.064v.05c0 .039.115.14.357.294l.026.013c.892.714 2.906 2.473 4.181 4.016.345.42.6.74.803.969-.242.127-.599.28-.892.28a.436.436 0 0 1-.23-.051c-.012-.013-.025-.013-.025-.013.013-.05.064-.127.09-.178.101-.166.267-.446.063-.701a.653.653 0 0 0-.535-.268c-.192 0-.37.064-.587.14l-.242.077c-.14.05-.331.114-.51.114a.57.57 0 0 1-.434-.19c-.05-.052-.076-.103-.076-.128 0-.077.153-.23.255-.32.204-.203.523-.496.344-.879-.102-.23-.319-.344-.574-.344-.306 0-.65.178-.956.331l-.089.051c-.255.115-.484.179-.663.179-.178 0-.446-.051-.6-.51-.037-.115-.025-.166-.012-.178.064-.128.37-.243.587-.306.344-.115.777-.268.752-.676-.026-.383-.255-.854-1.148-.854-.382-.013-.675-.166-.828-.421-.14-.344-.102-.714.102-1.097ZM18.25 43.283l1.288-3.366h-.726l-.676 1.747a9.92 9.92 0 0 0-.28.867h-.013c-.09-.319-.179-.612-.28-.88l-.651-1.734h-.778l1.288 3.366h.829ZM22.407 42.722h-1.275v-.905h1.224v-.536h-1.224v-.828h1.275v-.549H20.43v3.379h1.976v-.561ZM24.918 43.283v-2.78h.944v-.599h-2.575v.6h.93v2.779h.701ZM28.845 40.453v-.549h-1.989v3.379h1.989v-.561h-1.288v-.905h1.224v-.536h-1.224v-.828h1.288ZM32.236 41.702l-1.134-1.798h-.931v3.379h.676l-.013-1.76c0-.306-.013-.522-.026-.7h.013c.09.203.217.446.344.637l1.16 1.823h.931v-3.379h-.675l.012 1.48c0 .433.013.764.013.968a7.918 7.918 0 0 0-.37-.65ZM35.347 42.76c-.28 0-.548-.05-.752-.127l-.026.624c.192.051.46.09.689.09.867 0 1.453-.447 1.453-1.135 0-1.058-1.504-.803-1.504-1.377 0-.255.191-.42.612-.42.191 0 .459.038.65.101l.025-.599a3.605 3.605 0 0 0-.637-.064c-.892 0-1.377.421-1.377 1.059 0 1.096 1.479.79 1.479 1.376.013.32-.293.472-.612.472ZM37.948 39.904v3.379h.714v-1.594l1.25 1.594h.917l-1.44-1.76 1.376-1.619h-.867l-1.236 1.505v-1.505h-.714ZM42.334 42.62h1.402l.242.65h.778l-1.275-3.378h-.829l-1.275 3.378h.701l.255-.65Zm.535-1.453c.064-.179.127-.37.166-.523.05.153.114.357.178.535l.357.944H42.5l.369-.956ZM46.872 39.879c-.395 0-.816.013-1.096.025v3.379h.7v-1.11c.09.014.218.014.294.014.854 0 1.44-.472 1.44-1.212 0-.688-.484-1.096-1.338-1.096Zm-.102 1.747c-.09 0-.217 0-.293-.026v-1.147h.344c.434 0 .65.242.65.573 0 .383-.267.6-.7.6ZM18.263 48.956c.97 0 1.772-.663 1.772-1.772 0-1.11-.675-1.708-1.657-1.708s-1.747.663-1.747 1.772c-.012 1.007.536 1.708 1.632 1.708Zm.064-2.868c.574 0 .956.395.956 1.147s-.446 1.122-.981 1.122c-.663 0-.931-.51-.931-1.147 0-.74.433-1.122.956-1.122ZM22.496 48.943c.332 0 .625-.05.905-.153l-.064-.624a1.613 1.613 0 0 1-.7.153c-.664 0-1.059-.383-1.059-1.11 0-.662.357-1.147 1.02-1.147.23 0 .472.038.714.115l.064-.612c-.23-.064-.51-.09-.727-.09-1.262 0-1.81.855-1.81 1.798 0 1.033.56 1.67 1.657 1.67ZM27.494 48.905v-3.378h-.689v1.338h-1.593v-1.338h-.702v3.378h.702v-1.428h1.593v1.428h.689ZM31.204 47.312l1.249 1.593h.93l-1.466-1.76 1.39-1.618h-.867l-1.236 1.504v-1.504h-.702v3.378h.702v-1.593ZM35.487 48.956c.97 0 1.772-.663 1.772-1.772 0-1.11-.675-1.708-1.657-1.708s-1.747.663-1.747 1.772c-.012 1.007.536 1.708 1.632 1.708Zm.064-2.868c.574 0 .956.395.956 1.147s-.433 1.122-.981 1.122c-.663 0-.931-.51-.931-1.147-.013-.74.446-1.122.956-1.122ZM39.3 47.07l1.16 1.822h.93v-3.365h-.676l.013 1.479c0 .433 0 .764.013.968a8.123 8.123 0 0 0-.37-.662l-1.134-1.798h-.931v3.366h.688v-1.76c0-.318-.013-.522-.025-.7h.012c.064.216.179.445.32.65ZM43.443 48.383c-.28 0-.549-.052-.74-.128l-.025.625c.19.05.459.089.688.089.867 0 1.453-.446 1.453-1.135 0-1.058-1.504-.803-1.504-1.377 0-.255.191-.42.612-.42.191 0 .46.038.638.102l.025-.6c-.191-.025-.446-.063-.637-.063-.893 0-1.377.42-1.377 1.058 0 1.096 1.479.778 1.479 1.377 0 .331-.294.471-.612.471ZM47.127 48.905v-2.78h.944v-.598h-2.576v.599h.93v2.78h.702ZM20.992 35.978l-.077-.013c-1.772-.217-1.785-.574-1.823-2.04v-2.562l2.958 3.212c1.122 1.237 1.746 1.913 3.391 1.913.306 0 .637-.026 1.033-.064l.076-.013.013-.395h-.09c-.981-.038-1.53-.6-2.6-1.721-.153-.153-.306-.319-.472-.485l-2.881-3.212 1.16-1.186.242-.255c.97-1.02 2.078-2.18 3.557-2.346l.09-.013v-.395h-3.902v.395l.09.013c.382.038.599.128.65.28.114.281-.23.868-1.046 1.785l-2.269 2.41v-2.435c.038-1.479.051-1.823 1.44-2.04l.077-.013v-.395h-4.755v.395l.089.013c1.645.217 1.645.574 1.696 2.04V33.9c-.039 1.479-.051 1.823-1.696 2.04l-.09.012v.395h5.139v-.37ZM33.957 35.978l-.089-.013c-1.849-.217-1.925-.638-1.925-2.384v-6.528h.765c1.696 0 2.384.523 2.843 2.168l.026.089.37-.076-.18-2.805h-9.102l-.178 2.805.37.076.025-.09c.459-1.631 1.147-2.167 2.843-2.167h.765v6.528c0 1.746-.077 2.167-1.925 2.384l-.077.013v.395h5.47v-.395ZM48.568 26.837l.076-.013v-.395h-5.138v.395l.077.013c1.823.267 1.823.497 1.823 2.04v1.976H40.23v-1.99c0-1.542 0-1.771 1.823-2.04l.077-.012v-.395h-5.138v.395l.076.013c1.645.217 1.657.574 1.696 2.04v5.048c-.051 1.48-.051 1.824-1.696 2.04l-.076.013v.395h5.138v-.395l-.077-.013c-1.823-.267-1.823-.497-1.823-2.04v-2.269h5.176v2.27c0 1.542 0 1.772-1.823 2.04l-.077.012v.395h5.138v-.395l-.076-.013c-1.645-.216-1.658-.573-1.696-2.04v-5.048c.038-1.466.051-1.81 1.696-2.027ZM20.176 13.412c-.039.076-.268.56.076 1.084.37.573 1.007.471 1.033.471.433.548 1.173 1.211 1.772 1.046 0 0 3.774-1.747 9-1.76 5.24.013 9.014 1.76 9.014 1.76.6.165 1.326-.485 1.772-1.046.026 0 .65.102 1.033-.471.344-.523.115-1.02.077-1.084.318-.51.79-.956.79-.956a1.08 1.08 0 0 0 .357-.816c0-.612-.51-1.122-1.122-1.122-.05 0-.102 0-.14.013-.013-.026-.013-.064-.026-.09a.928.928 0 0 0 .51-.828.941.941 0 0 0-1.415-.816c-.025-.026-.05-.064-.076-.09a.782.782 0 0 0 .242-.548.773.773 0 0 0-.778-.777.762.762 0 0 0-.637.331c-.051-.025-.09-.064-.14-.09a.668.668 0 0 0 .14-.42.701.701 0 0 0-1.364-.23c-.077-.025-.153-.063-.23-.089a.575.575 0 0 0 .09-.318.631.631 0 0 0-.638-.638.622.622 0 0 0-.625.536c-.05-.013-.089-.026-.14-.038a.89.89 0 0 0-1.11-.612c-.037-.026-.063-.051-.101-.077v-.038a.754.754 0 0 0-.752-.752.706.706 0 0 0-.434.14c-.025-.013-.064-.026-.09-.038v-.013a.675.675 0 0 0-.688-.676.657.657 0 0 0-.586.357.64.64 0 0 0-.153-.025v-.026a.626.626 0 0 0-.625-.625.642.642 0 0 0-.612.485c-.063 0-.114-.013-.178-.013a1.464 1.464 0 0 0-.676-1.874s-.178-.09-.42-.14V1.377h.624c.026-.026.064-.115.064-.268a.462.462 0 0 0-.064-.268h-.637v-.65c-.026-.025-.102-.064-.255-.064-.153 0-.242.039-.268.064v.625h-.625c-.025.025-.063.115-.063.255s.038.242.063.268h.625V2.46a1.464 1.464 0 0 0-1.084 2.014c-.063 0-.127.013-.178.013a.626.626 0 0 0-.6-.498.626.626 0 0 0-.624.625v.026a.747.747 0 0 1-.166.025.682.682 0 0 0-.586-.357.691.691 0 0 0-.689.676v.013c-.025.012-.063.025-.089.038a.734.734 0 0 0-.433-.14.754.754 0 0 0-.753.752v.038c-.038.026-.063.051-.102.077a.89.89 0 0 0-1.11.612c-.05.012-.088.025-.139.038a.631.631 0 0 0-.625-.536.64.64 0 0 0-.637.638c0 .114.038.23.09.318-.077.026-.154.064-.23.09a.719.719 0 0 0-.663-.472.71.71 0 0 0-.714.701c0 .153.05.293.14.42-.051.026-.09.065-.14.09a.763.763 0 0 0-.638-.331.773.773 0 0 0-.777.777c0 .217.089.421.242.561-.026.026-.051.064-.077.09a.875.875 0 0 0-.471-.128.941.941 0 0 0-.944.944c0 .37.204.675.51.828a.235.235 0 0 0-.025.09c-.051-.013-.102-.013-.14-.013-.613 0-1.123.51-1.123 1.122 0 .331.14.611.357.816 0 .038.485.497.804.994Zm.969 1.173a.686.686 0 0 1-.689-.689c0-.14.051-.28.115-.382a.706.706 0 0 1 .574-.306.687.687 0 0 1 .689.701c0 .37-.307.676-.69.676Zm10.913-2.257a.686.686 0 0 1-.689-.688c0-.383.306-.689.689-.689.382 0 .688.306.688.689a.694.694 0 0 1-.688.688Zm0-5.342c.382 0 .688.306.688.676 0 .37-.306.676-.688.676a.672.672 0 0 1-.676-.676c-.013-.382.293-.676.676-.676Zm-.536-.764c0-.294.243-.536.536-.536.293 0 .535.242.535.536a.539.539 0 0 1-.535.535.539.539 0 0 1-.536-.535Zm.536 2.384a.84.84 0 0 1 .841.841.865.865 0 0 1-.204.561 1.014 1.014 0 0 0-.637-.217c-.242 0-.46.077-.638.217a.865.865 0 0 1-.204-.561.84.84 0 0 1 .842-.841Zm10.913 5.979a.686.686 0 0 1-.688-.689c0-.19.076-.357.19-.484a.716.716 0 0 1 .498-.217.71.71 0 0 1 .701.689.707.707 0 0 1-.701.7Zm1.007-3.685a.74.74 0 0 1 .74.74c0 .268-.256.599-.498.74a1.062 1.062 0 0 0-.816-.383h-.089a.697.697 0 0 1-.102-.37.76.76 0 0 1 .765-.727Zm-.6-1.861c.307 0 .562.255.562.561a.566.566 0 0 1-.561.561.566.566 0 0 1-.561-.561c0-.306.242-.561.56-.561Zm-1.096-1.3c.217 0 .396.178.396.395a.397.397 0 0 1-.395.395.397.397 0 0 1-.396-.395c0-.217.179-.395.395-.395Zm-1.338-.867c.178 0 .319.14.319.318 0 .179-.14.32-.32.32a.324.324 0 0 1-.318-.32c0-.165.14-.318.319-.318Zm-1.428-.6c.14 0 .255.115.255.255s-.115.255-.255.255a.256.256 0 0 1-.255-.255c0-.14.102-.254.255-.254Zm-.854.778c2.167.689 3.289 1.734 3.799 2.78.42.956.344 1.185.382 1.784.013.217.064.357.102.485-.497.268-.548.65-.56.675-.026-.012-.039-.025-.064-.038a1.009 1.009 0 0 0-.663-.242c-.79.013-1.275.778-.956 1.517.076.179.51.829 1.377.51.05.064.114.128.178.191a1.075 1.075 0 0 1-1.351.51 1.715 1.715 0 0 1-1.02-1.122c-.383.345-.918.51-1.467.396a1.084 1.084 0 0 1-.854-1.263c.013-.05.064-.267.09-.344.076.408.395.74.816.829a1.036 1.036 0 0 0 1.223-.816 1.041 1.041 0 0 0-.828-1.224c-.064-.013-.128 0-.191 0 .012-.05.038-.102.038-.102a.903.903 0 0 0 0-.37c.51-.14.892-.612.892-1.16a1.19 1.19 0 0 0-.612-1.045c.306-.179.51-.497.51-.867a1 1 0 0 0-.918-.995.129.129 0 0 0 .077-.089Zm-.752 3.315c-.09-.013-.179-.026-.255-.013a.747.747 0 0 1-.051-.293c0-.459.37-.829.828-.829.46 0 .829.37.829.829 0 .395-.28.727-.65.803a1.096 1.096 0 0 0-.701-.497Zm1.236-2.231a.626.626 0 0 1-1.25 0 .626.626 0 0 1 1.25 0ZM37.884 6.12c.28 0 .51.229.51.51 0 .28-.23.51-.51.51s-.51-.23-.51-.51c0-.281.23-.51.51-.51Zm-.344 5.367c.382 0 .688.306.688.688a.686.686 0 0 1-.688.689.686.686 0 0 1-.689-.689c0-.382.32-.688.689-.688Zm-.765-6.196a.37.37 0 1 1 0 .74.37.37 0 0 1 0-.74Zm-1.211-.587a.3.3 0 0 1 .306.294.3.3 0 0 1-.306.293.289.289 0 0 1-.294-.293c0-.166.128-.294.294-.294ZM34.2 4.373c.14 0 .242.102.242.242s-.102.242-.242.242a.234.234 0 0 1-.243-.242c0-.127.102-.242.243-.242Zm2.715 5.928.153.268c-.191.153-.331.37-.382.625v.102c-.064-.026-.115-.051-.179-.064a1.041 1.041 0 0 0-1.224.829c-.114.56.255 1.109.829 1.223.433.09.841-.114 1.07-.459-.012.09-.037.294-.05.357a1.075 1.075 0 0 1-1.262.855c-.548-.102-.944-.46-1.173-.918a1.63 1.63 0 0 1-1.326.675c-.587 0-1.071-.484-1.071-1.07 0-.052.013-.268.013-.357.153.382.535.662.969.662a1.05 1.05 0 0 0 1.045-1.045 1.05 1.05 0 0 0-1.045-1.045c-.064 0-.128.025-.192.038.013-.051.013-.115.013-.115 0-.102-.013-.204-.038-.293l.37-.242s-.064-3.532-.702-5.113c.026-.012.039-.025.064-.038 5.164.28 4.717 3.863 4.118 5.125Zm-3.786-6.49v.065a.988.988 0 0 1-.179.573h-.357c.013-.038.013-.089.013-.14a.564.564 0 0 0-.293-.497h.816Zm-.816-.968c.306.077.573.293.714.561h-.714v-.561Zm-.255 1.224c.127 0 .242.102.242.242s-.102.242-.242.242a.234.234 0 0 1-.242-.242c0-.14.102-.242.242-.242Zm0 .714c.204 0 .357.166.357.357a.365.365 0 0 1-.357.357.365.365 0 0 1-.357-.357c0-.204.153-.357.357-.357Zm-.268-1.938v.574h-.701c.14-.28.395-.51.701-.574Zm-.816.969h.79a.564.564 0 0 0-.293.497c0 .051.013.09.013.14h-.344a1.09 1.09 0 0 1-.179-.573c.013-.026.013-.051.013-.064Zm-1.058.56c.127 0 .242.103.242.243s-.102.242-.242.242a.234.234 0 0 1-.242-.242c0-.14.114-.242.242-.242Zm-1.377.332c.166 0 .293.128.293.294a.289.289 0 0 1-.293.293.3.3 0 0 1-.306-.293.308.308 0 0 1 .306-.294Zm-1.198.587a.37.37 0 1 1 0 .74.37.37 0 0 1 0-.74Zm3.965-.128c.025.013.038.026.063.039-.624 1.58-.7 5.112-.7 5.112l.369.242c-.026.09-.038.191-.038.293 0 0 .012.064.012.115-.063-.013-.127-.038-.19-.038a1.05 1.05 0 0 0-1.046 1.045 1.05 1.05 0 0 0 1.045 1.046c.434 0 .816-.268.969-.663.013.076.013.293.013.357 0 .599-.485 1.07-1.071 1.07-.548 0-1.007-.267-1.326-.675-.23.459-.625.816-1.173.918a1.075 1.075 0 0 1-1.262-.854c-.013-.051-.038-.268-.051-.357.23.344.637.548 1.07.459.562-.115.932-.663.83-1.224-.102-.561-.663-.93-1.224-.829-.064.013-.115.051-.179.064v-.102a1.067 1.067 0 0 0-.382-.625l.153-.268c-.6-1.249-1.046-4.831 4.118-5.125Zm-4.055 7.012a.686.686 0 0 1-.688.689.686.686 0 0 1-.688-.689c0-.382.305-.688.688-.688.382 0 .688.306.688.688Zm-1.746-1.313a.832.832 0 0 1-.65-.803c0-.459.37-.829.828-.829.46 0 .829.37.829.829 0 .102-.026.204-.051.293-.09 0-.166 0-.255.013a1.064 1.064 0 0 0-.701.497Zm.727-4.742c.28 0 .51.229.51.51 0 .28-.23.51-.51.51-.281 0-.51-.23-.51-.51 0-.281.229-.51.51-.51Zm-.638 1.39a.626.626 0 0 1 0 1.249.626.626 0 0 1-.625-.625.61.61 0 0 1 .625-.625ZM24.6 6.272c.14 0 .255.114.255.254s-.115.255-.255.255a.256.256 0 0 1-.255-.255c0-.14.114-.254.255-.254Zm-1.428.599c.178 0 .318.14.318.318 0 .179-.14.32-.318.32-.179 0-.332-.154-.332-.32 0-.178.153-.318.332-.318Zm2.269.178c.013.026.038.064.051.09a1.01 1.01 0 0 0-.918.994c0 .37.204.701.51.867-.37.204-.612.599-.612 1.045 0 .561.383 1.02.892 1.16a1.797 1.797 0 0 0 0 .37s.026.051.039.102c-.064 0-.128-.013-.191 0-.561.115-.931.663-.83 1.224.116.56.664.93 1.225.816.433-.09.74-.42.816-.829.025.077.076.293.089.345a1.075 1.075 0 0 1-.841 1.262 1.71 1.71 0 0 1-1.467-.396c-.14.498-.51.918-1.02 1.122a1.08 1.08 0 0 1-1.35-.51.857.857 0 0 0 .178-.19c.866.305 1.3-.332 1.376-.51.32-.74-.165-1.518-.956-1.518-.255 0-.484.09-.663.242-.025.013-.038.026-.063.038-.013-.025-.064-.407-.561-.675.038-.128.102-.268.102-.485.038-.612-.039-.828.382-1.785.523-1.045 1.645-2.09 3.812-2.779Zm-3.608.689c.217 0 .395.178.395.395a.397.397 0 0 1-.395.395.397.397 0 0 1-.395-.395c0-.217.178-.395.395-.395ZM20.176 9.6c0-.306.255-.561.56-.561.307 0 .562.255.562.561a.566.566 0 0 1-.561.561.566.566 0 0 1-.561-.561Zm-.039 1.3a.74.74 0 0 1 .74.74c0 .14-.038.255-.102.37h-.09c-.33 0-.611.153-.815.382-.23-.14-.485-.472-.485-.74a.762.762 0 0 1 .752-.752ZM39.694 18.932a.252.252 0 0 0 .23-.153.227.227 0 0 0-.14-.306 21.814 21.814 0 0 0-7.637-1.364h-.166c-2.626 0-5.201.46-7.636 1.364-.128.051-.192.192-.14.306.05.128.19.192.305.14a21.501 21.501 0 0 1 7.471-1.325h.166c2.575 0 5.087.446 7.47 1.325.014 0 .052.013.077.013Z"/><path fill="#004791" d="m41.16 17.504-.356-.943-.051-.14-.46.076a23.01 23.01 0 0 0-7.815-1.517l-.433-.242-.433.242c-2.69.051-5.317.561-7.816 1.517l-.459-.076-.05.14-.357.943 1.02.561.33-.395a21.8 21.8 0 0 1 7.242-1.39l.523.294.523-.294c2.498.051 4.92.523 7.241 1.39l.332.395 1.02-.56Zm-17.274.102c-.14-.076-.332-.178-.472-.255.064-.153.127-.357.191-.497.166.026.51.077.816.14a8.22 8.22 0 0 0-.535.612Zm4.283-1.224-.816.166a.422.422 0 0 1-.497-.318.403.403 0 0 1 .319-.485l.816-.166a.422.422 0 0 1 .497.319.405.405 0 0 1-.319.485Zm3.889-.229-.854-.484.854-.485.854.485-.854.484Zm5.189.077a.412.412 0 0 1-.498.318l-.816-.165a.424.424 0 0 1-.331-.485.412.412 0 0 1 .497-.319l.816.166c.23.038.383.255.332.485Zm2.46.739c.306-.051.638-.102.816-.14.051.153.128.344.191.497-.14.076-.331.178-.471.255a6.029 6.029 0 0 1-.536-.612Z"/></svg>