<svg width="20" height="20" viewBox="0 0 20 20" fill="none" xmlns="http://www.w3.org/2000/svg">
<path d="M4.50006 15.4999H5.42633L13.6235 7.30279L12.6972 6.37652L4.50006 14.5737V15.4999ZM3.41675 16.5833V14.1169L13.7837 3.73394C13.8959 3.61948 14.0165 3.53798 14.1457 3.48944C14.2748 3.4409 14.4102 3.41663 14.5518 3.41663C14.6933 3.41663 14.8286 3.43933 14.9574 3.48475C15.0863 3.53015 15.211 3.61054 15.3318 3.72592L16.2661 4.65219C16.3814 4.77291 16.4632 4.89794 16.5112 5.02727C16.5593 5.15659 16.5834 5.28968 16.5834 5.42652C16.5834 5.57248 16.5581 5.71181 16.5075 5.8445C16.4569 5.97718 16.3764 6.09843 16.2661 6.20825L5.88306 16.5833H3.41675ZM13.1522 6.84779L12.6972 6.37652L13.6235 7.30279L13.1522 6.84779Z" fill="#212121"/>
</svg>
