<svg width="20" height="20" viewBox="0 0 20 20" fill="none" xmlns="http://www.w3.org/2000/svg">
<path d="M4.55979 17.1694C4.08086 17.1694 3.67293 17.0009 3.336 16.664C2.99907 16.3271 2.8306 15.9191 2.8306 15.4402V4.55978C2.8306 4.08085 2.99907 3.67292 3.336 3.33599C3.67293 2.99906 4.08086 2.8306 4.55979 2.8306H10V4.55978H4.55979V15.4402H15.4402V9.99999H17.1694V15.4402C17.1694 15.9191 17.0009 16.3271 16.664 16.664C16.3271 17.0009 15.9191 17.1694 15.4402 17.1694H4.55979ZM8.21694 13L7 11.7831L14.2233 4.55978H12V2.8306H17.1694V7.99999H15.4402V5.77672L8.21694 13Z" fill="#212121"/>
</svg>
