<svg width="20" height="20" viewBox="0 0 20 20" fill="none" xmlns="http://www.w3.org/2000/svg">
<path d="M4.75644 16.5833C4.38133 16.5833 4.06426 16.4538 3.80523 16.1948C3.5462 15.9357 3.41669 15.6187 3.41669 15.2436V4.75644C3.41669 4.38133 3.5462 4.06426 3.80523 3.80523C4.06426 3.5462 4.38133 3.41669 4.75644 3.41669H9.67946V4.5H4.75644C4.69233 4.5 4.63355 4.52671 4.58012 4.58013C4.52671 4.63356 4.5 4.69233 4.5 4.75644V15.2436C4.5 15.3077 4.52671 15.3664 4.58012 15.4199C4.63355 15.4733 4.69233 15.5 4.75644 15.5H15.2436C15.3077 15.5 15.3664 15.4733 15.4199 15.4199C15.4733 15.3664 15.5 15.3077 15.5 15.2436V10.3205H16.5833V15.2436C16.5833 15.6187 16.4538 15.9357 16.1948 16.1948C15.9357 16.4538 15.6187 16.5833 15.2436 16.5833H4.75644ZM8.07852 12.6955L7.3045 11.9215L14.726 4.5H12V3.41669H16.5833V8H15.5V5.27402L8.07852 12.6955Z" fill="#212121"/>
</svg>
