<svg width="20" height="20" viewBox="0 0 20 20" fill="none" xmlns="http://www.w3.org/2000/svg">
<path d="M15.8894 16.6474L10.9263 11.6843C10.5096 12.0005 10.0527 12.2454 9.55559 12.4191C9.05848 12.5927 8.54553 12.6795 8.01674 12.6795C6.71694 12.6795 5.61196 12.2245 4.7018 11.3146C3.79163 10.4047 3.33655 9.30026 3.33655 8.00133C3.33655 6.70238 3.79151 5.59751 4.70142 4.68672C5.61134 3.77595 6.71577 3.32056 8.01471 3.32056C9.31365 3.32056 10.4185 3.77564 11.3293 4.68581C12.2401 5.59597 12.6955 6.70095 12.6955 8.00074C12.6955 8.54556 12.606 9.06653 12.427 9.56364C12.2481 10.0608 12.0058 10.5096 11.7003 10.9103L16.6634 15.8734L15.8894 16.6474ZM8.01601 11.5962C9.02028 11.5962 9.87071 11.2479 10.5673 10.5513C11.2639 9.85472 11.6122 9.00429 11.6122 8.00002C11.6122 6.99574 11.2639 6.14531 10.5673 5.44872C9.87071 4.75214 9.02028 4.40385 8.01601 4.40385C7.01173 4.40385 6.1613 4.75214 5.46471 5.44872C4.76815 6.14531 4.41986 6.99574 4.41986 8.00002C4.41986 9.00429 4.76815 9.85472 5.46471 10.5513C6.1613 11.2479 7.01173 11.5962 8.01601 11.5962Z" fill="#212121"/>
</svg>
