<svg width="20" height="20" viewBox="0 0 20 20" fill="none" xmlns="http://www.w3.org/2000/svg">
<path d="M17 10C17 8.61553 16.5895 7.26215 15.8203 6.11101C15.0511 4.95986 13.9579 4.06266 12.6788 3.53284C11.3997 3.00303 9.99223 2.86441 8.63437 3.1345C7.2765 3.4046 6.02922 4.07128 5.05025 5.05025C4.07128 6.02922 3.4046 7.2765 3.1345 8.63437C2.86441 9.99223 3.00303 11.3997 3.53284 12.6788C4.06266 13.9579 4.95986 15.0511 6.11101 15.8203C7.26215 16.5895 8.61553 17 10 17L10 15.25C8.96165 15.25 7.94661 14.9421 7.08326 14.3652C6.2199 13.7883 5.54699 12.9684 5.14963 12.0091C4.75227 11.0498 4.6483 9.99418 4.85088 8.97578C5.05345 7.95738 5.55346 7.02192 6.28769 6.28769C7.02192 5.55346 7.95738 5.05345 8.97578 4.85088C9.99418 4.6483 11.0498 4.75227 12.0091 5.14963C12.9684 5.54699 13.7883 6.2199 14.3652 7.08326C14.9421 7.94661 15.25 8.96165 15.25 10H17Z" fill="black"/>
</svg>
