<svg width="20" height="20" viewBox="0 0 20 20" fill="none" xmlns="http://www.w3.org/2000/svg">
<path d="M14.8755 17.2889H5.3456V7.09959L11.2709 1.17432L12.0686 1.71132C12.317 1.88532 12.5078 2.10909 12.6411 2.38265C12.7744 2.65621 12.8133 2.94183 12.7577 3.23952L12.7369 3.2889L11.9602 7.09959H17.3954C17.8685 7.09959 18.275 7.2695 18.6149 7.60932C18.9547 7.94915 19.1246 8.35563 19.1246 8.82875V9.71236C19.1246 9.83155 19.1142 9.94091 19.0933 10.0404C19.0725 10.1399 19.0379 10.24 18.9896 10.3405L16.4791 16.2419C16.3385 16.5567 16.1224 16.81 15.8309 17.0015C15.5394 17.1931 15.2209 17.2889 14.8755 17.2889ZM7.00004 15.5597H14.8755L17.3855 9.71236V8.82875H9.92258L10.8836 4.01038L7.00004 7.89396V15.5597ZM5.3456 7.09959V8.82875H2.50004V15.5597H5.3456V17.2889H0.770874V7.09959H5.3456Z" fill="#212121"/>
</svg>
