<svg width="20" height="20" viewBox="0 0 20 20" fill="none" xmlns="http://www.w3.org/2000/svg">
<path d="M2.91528 16.5833C2.77524 16.5833 2.65442 16.5526 2.55284 16.4912C2.45126 16.4298 2.37224 16.3488 2.3158 16.2483C2.25081 16.15 2.22201 16.0389 2.2294 15.915C2.23679 15.7911 2.2721 15.6719 2.33534 15.5574L9.42763 3.7759C9.49087 3.66143 9.57368 3.58042 9.67607 3.53288C9.77846 3.48533 9.88663 3.46155 10.0006 3.46155C10.1145 3.46155 10.2225 3.48533 10.3246 3.53288C10.4266 3.58042 10.5092 3.66143 10.5725 3.7759L17.6648 15.5574C17.728 15.6719 17.7633 15.7911 17.7707 15.915C17.7781 16.0389 17.7493 16.15 17.6843 16.2483C17.6218 16.3474 17.5413 16.428 17.4427 16.4901C17.3442 16.5522 17.2249 16.5833 17.0848 16.5833H2.91528ZM3.64588 15.5H16.3542L10 4.91663L3.64588 15.5ZM9.99565 14.3397C10.1615 14.3397 10.302 14.2836 10.4171 14.1714C10.5322 14.0592 10.5898 13.9202 10.5898 13.7544C10.5898 13.5885 10.5337 13.448 10.4215 13.3329C10.3093 13.2178 10.1703 13.1602 10.0044 13.1602C9.83858 13.1602 9.6981 13.2163 9.58299 13.3285C9.46788 13.4407 9.41032 13.5797 9.41032 13.7456C9.41032 13.9114 9.46642 14.0519 9.57861 14.167C9.69079 14.2821 9.82981 14.3397 9.99565 14.3397ZM9.99594 12.1602C10.1483 12.1602 10.2773 12.1083 10.383 12.0045C10.4888 11.9007 10.5417 11.772 10.5417 11.6186V8.70188C10.5417 8.54841 10.4902 8.41977 10.3872 8.31597C10.2841 8.21215 10.1565 8.16024 10.0042 8.16024C9.85185 8.16024 9.72281 8.21215 9.61705 8.31597C9.51129 8.41977 9.4584 8.54841 9.4584 8.70188V11.6186C9.4584 11.772 9.50992 11.9007 9.61295 12.0045C9.71597 12.1083 9.84364 12.1602 9.99594 12.1602Z" fill="#212121"/>
</svg>
