<svg width="20" height="20" viewBox="0 0 20 20" fill="none" xmlns="http://www.w3.org/2000/svg">
<path d="M2.38633 17.0847C2.21151 17.0847 2.05859 17.0448 1.92756 16.9651C1.79653 16.8854 1.69462 16.7803 1.62183 16.6499C1.54242 16.5222 1.50618 16.3788 1.51312 16.2196C1.52007 16.0605 1.56325 15.9088 1.64267 15.7645L9.25452 3.06249C9.33394 2.91756 9.44215 2.81317 9.57917 2.7493C9.71618 2.68546 9.85681 2.65353 10.001 2.65353C10.1453 2.65353 10.2856 2.68546 10.4219 2.7493C10.5582 2.81317 10.6661 2.91756 10.7455 3.06249L18.3573 15.7645C18.4368 15.9088 18.4799 16.0605 18.4869 16.2196C18.4938 16.3788 18.4576 16.5222 18.3782 16.6499C18.2988 16.7776 18.1952 16.882 18.0675 16.9631C17.9398 17.0441 17.7885 17.0847 17.6137 17.0847H2.38633ZM3.77037 15.4302H16.2296L10 5.05616L3.77037 15.4302ZM9.9956 14.4851C10.2102 14.4851 10.3937 14.4103 10.5462 14.2607C10.6987 14.1112 10.7749 13.9291 10.7749 13.7145C10.7749 13.4999 10.7001 13.3172 10.5506 13.1664C10.401 13.0156 10.219 12.9402 10.0044 12.9402C9.78981 12.9402 9.60628 13.0142 9.45381 13.1621C9.30133 13.3099 9.22508 13.4912 9.22508 13.7057C9.22508 13.9203 9.29986 14.1039 9.44942 14.2563C9.59897 14.4088 9.78103 14.4851 9.9956 14.4851ZM9.9956 12C10.2069 12 10.3854 11.9281 10.5312 11.7844C10.6771 11.6406 10.75 11.4625 10.75 11.25V8.80478C10.75 8.5923 10.6785 8.41417 10.5356 8.27041C10.3927 8.12666 10.2156 8.05478 10.0044 8.05478C9.79313 8.05478 9.61458 8.12666 9.46875 8.27041C9.32292 8.41417 9.25 8.5923 9.25 8.80478V11.25C9.25 11.4625 9.32145 11.6406 9.46435 11.7844C9.60727 11.9281 9.78435 12 9.9956 12Z" fill="#212121"/>
</svg>
