<svg width="640" height="640" viewBox="0 0 640 640" fill="none" xmlns="http://www.w3.org/2000/svg">
<rect width="640" height="640" rx="64" fill="#FCFCFC"/>
<path d="M329.46 549.43C334.25 543.99 339.4 538.19 342.98 534.62C350.07 527.53 357.4 527.59 357.4 527.59C357.4 527.59 349.03 523.48 340.2 532.3C337.83 534.68 332.51 540.66 327.08 546.76C325.11 544.55 323.17 542.36 321.37 540.37C323.36 538.17 325.23 536.18 326.8 534.62C333.89 527.53 341.22 527.59 341.22 527.59C341.22 527.59 332.85 523.48 324.04 532.3C322.92 533.43 321.13 535.36 319 537.72C316.87 535.35 315.07 533.42 313.96 532.3C305.14 523.48 296.77 527.59 296.77 527.59C296.77 527.59 304.09 527.52 311.19 534.62C312.76 536.18 314.62 538.18 316.62 540.37C314.82 542.37 312.87 544.55 310.91 546.76C305.47 540.66 300.15 534.68 297.78 532.3C288.96 523.48 280.6 527.59 280.6 527.59C280.6 527.59 287.92 527.52 295.02 534.62C298.6 538.21 303.74 543.97 308.54 549.43C304.01 554.5 299.69 559.29 297.23 561.74C291.33 567.65 284.45 568.1 284.45 568.1C284.45 568.1 291.85 572.43 301.93 562.12C303.79 560.22 307.15 556.42 310.91 552.12C312.96 554.45 314.9 556.64 316.52 558.46C315.31 559.77 314.23 560.91 313.4 561.73C307.5 567.64 300.61 568.09 300.61 568.09C300.61 568.09 308.01 572.41 318.11 562.1C318.38 561.82 318.68 561.51 319.01 561.17C319.33 561.51 319.64 561.83 319.91 562.1C329.99 572.41 337.39 568.09 337.39 568.09C337.39 568.09 330.51 567.63 324.61 561.73C323.77 560.9 322.69 559.76 321.48 558.46C323.11 556.65 325.04 554.45 327.09 552.12C330.87 556.42 334.2 560.21 336.08 562.12C346.16 572.43 353.56 568.1 353.56 568.1C353.56 568.1 346.68 567.65 340.78 561.74C338.33 559.29 334 554.49 329.47 549.43H329.46ZM319 555.77C317.22 553.83 315.28 551.66 313.29 549.43C315.18 547.28 317.12 545.09 319 542.99C320.88 545.09 322.82 547.28 324.71 549.43C322.71 551.66 320.77 553.83 319 555.77Z" fill="#004791"/>
<path d="M133.76 244.73C134.85 248.21 138.02 250.37 142.06 250.37C143.23 250.37 144.42 250.18 145.6 249.82C145.74 250.06 145.91 250.3 146.14 250.62C146.75 251.45 147.47 252.15 148.27 252.7C148.53 252.87 148.82 252.96 149.11 252.96C149.59 252.96 150.05 252.73 150.35 252.31C150.82 251.63 150.65 250.7 149.96 250.23C149.44 249.88 148.96 249.4 148.54 248.85C148.45 248.72 148.39 248.65 148.33 248.56C149.9 247.6 151.19 246.34 151.98 244.85C152.98 242.95 153.17 240.88 152.54 238.85C151.93 236.91 150.36 236.32 149.52 236.26C149.42 236.26 149.32 236.3 149.22 236.32C149.12 235.83 149 235.34 148.85 234.86C147.4 230.26 143.23 226.55 140.07 226.83C139.71 226.52 139.09 226.14 138.32 226.39C137.55 226.62 137.26 227.24 137.11 227.75C136.32 228.2 135.63 228.96 135.09 229.99C133.74 232.55 133.5 236.23 134.48 239.35C134.63 239.83 134.81 240.3 135.01 240.76C134.92 240.8 134.83 240.82 134.75 240.88C134.1 241.4 133.15 242.8 133.76 244.74V244.73ZM149.86 240.45C150.02 241.47 149.84 242.49 149.34 243.44C148.51 245.02 146.84 246.3 144.76 246.95C143.85 247.23 142.94 247.38 142.05 247.38C139.61 247.38 137.73 246.32 136.87 244.51C137.83 244.75 138.82 244.8 139.43 244.8C140.88 244.8 142.41 244.56 143.88 244.11C146.36 243.33 148.59 241.95 149.87 240.45H149.86ZM137.74 231.38C138.1 230.69 138.48 230.37 138.73 230.29C139.01 230.2 139.23 230.05 139.4 229.87C139.64 229.92 139.9 229.91 140.19 229.82C141.39 229.46 144.8 231.97 146 235.75C146.39 237 146.55 238.28 146.5 239.5C145.67 240.13 144.48 240.8 142.98 241.27C141.81 241.63 140.58 241.83 139.42 241.83C139.29 241.83 139.19 241.83 139.07 241.81C138.34 240.84 137.72 239.73 137.33 238.47C136.48 235.73 136.94 232.88 137.73 231.37L137.74 231.38Z" fill="#004791"/>
<path d="M168.25 269.46C170.27 269.42 171.3 268.08 171.59 267.29C171.62 267.2 171.61 267.1 171.62 267.01C172 267.04 172.38 267.06 172.78 267.06H173.11C176.38 266.99 179.79 265.59 181.79 263.5C182.6 262.66 183.1 261.75 183.27 260.86C183.66 260.6 184.19 260.13 184.17 259.33C184.17 258.52 183.65 258.06 183.2 257.77C182.44 254.66 177.68 251.92 172.78 252.02C172.28 252.02 171.77 252.07 171.29 252.14C171.27 252.04 171.29 251.94 171.25 251.83C170.94 251.07 169.9 249.81 167.84 249.81C165.41 249.87 163.24 250.98 161.73 252.96C160.88 254.08 160.3 255.43 159.97 256.9C159.88 256.87 159.78 256.84 159.64 256.8C158.99 256.59 158.39 256.29 157.85 255.9C157.18 255.41 156.25 255.55 155.76 256.22C155.27 256.88 155.41 257.83 156.08 258.31C156.87 258.89 157.76 259.35 158.72 259.66C159.1 259.79 159.38 259.86 159.65 259.92C159.8 265.48 163.32 269.51 168.06 269.51C168.06 269.47 168.24 269.47 168.26 269.47L168.25 269.46ZM172.84 254.98C176.77 254.84 180.28 257.34 180.31 258.54C180.31 258.85 180.39 259.11 180.51 259.33C180.39 259.55 180.33 259.82 180.34 260.12C180.34 260.36 180.16 260.83 179.62 261.4C178.45 262.63 175.88 263.98 173.04 264.04C171.74 264.07 170.47 263.87 169.33 263.5C168.95 262.52 168.63 261.19 168.59 259.59C168.56 258.04 168.81 256.72 169.13 255.73C170.26 255.28 171.51 255 172.84 254.97V254.98ZM162.62 259.74C162.57 257.8 163.09 256.03 164.08 254.74C164.66 253.98 165.63 253.1 167.15 252.84C166.17 254.52 165.55 257.12 165.61 259.68C165.67 262.17 166.36 264.76 167.48 266.44C164.7 266.11 162.69 263.4 162.62 259.74Z" fill="#004791"/>
<path d="M152.1 341.76C152.38 340.63 152.37 339.6 152.08 338.74C152.29 338.32 152.52 337.63 152.1 336.94C151.7 336.26 151.02 336.11 150.49 336.08C148.29 333.77 142.73 333.77 138.58 336.26C138.15 336.52 137.73 336.8 137.34 337.1C137.28 337.02 137.23 336.92 137.15 336.86C137.01 336.75 136.28 336.22 135.17 336.22C134.49 336.22 133.82 336.42 133.2 336.79C131.12 338.05 129.79 340.09 129.45 342.56C129.26 343.95 129.45 345.41 129.88 346.86C129.78 346.88 129.68 346.91 129.54 346.94C128.86 347.08 128.19 347.11 127.55 347.04C126.73 346.94 125.98 347.53 125.89 348.35C125.8 349.17 126.38 349.91 127.2 350C127.54 350.04 127.88 350.06 128.22 350.06C128.86 350.06 129.51 349.99 130.16 349.86C130.55 349.77 130.83 349.7 131.1 349.63C133.07 352.87 136.14 354.81 139.34 354.81C140.76 354.81 142.1 354.42 143.34 353.67C145.07 352.63 145.3 350.96 145.15 350.14C145.13 350.04 145.07 349.97 145.04 349.88C145.48 349.67 145.93 349.43 146.35 349.17C149.14 347.49 151.4 344.57 152.1 341.76ZM140.12 338.83C143.53 336.78 147.76 337.18 148.37 338.18C148.53 338.46 148.73 338.66 148.95 338.79C148.95 339.03 149.03 339.29 149.19 339.56C149.32 339.77 149.39 340.27 149.19 341.04C148.79 342.68 147.23 345.13 144.78 346.6C143.66 347.28 142.47 347.74 141.29 347.97C140.47 347.31 139.54 346.31 138.71 344.96C137.9 343.61 137.46 342.32 137.25 341.29C138.02 340.35 138.99 339.5 140.11 338.83H140.12ZM133.61 348.04C132.61 346.38 132.18 344.59 132.4 342.97C132.53 342.02 132.94 340.76 134.12 339.79C134.1 341.75 134.85 344.31 136.17 346.51C137.52 348.73 139.42 350.56 141.15 351.44C138.6 352.53 135.42 351.08 133.6 348.05L133.61 348.04Z" fill="#004791"/>
<path d="M99.92 344.88C100.28 345.23 100.67 345.56 101.06 345.85C101.01 345.93 100.93 345.99 100.89 346.08C100.58 346.86 100.44 348.54 101.91 349.93C103.39 351.32 105.23 352.06 107.26 352.06C109.9 352.06 112.63 350.78 114.73 348.55C114.97 348.69 115.23 348.82 115.59 348.97C116.5 349.39 117.46 349.65 118.45 349.74C118.5 349.74 118.55 349.74 118.6 349.74C119.36 349.74 120.02 349.17 120.09 348.39C120.17 347.56 119.56 346.84 118.74 346.75C118.08 346.69 117.43 346.51 116.81 346.24C116.69 346.18 116.61 346.14 116.52 346.1C117.42 344.49 117.9 342.75 117.84 341.06C117.78 338.93 116.92 337.02 115.38 335.58C114.46 334.69 113.49 334.5 112.85 334.5C112.14 334.5 111.64 334.71 111.5 334.78C111.41 334.83 111.34 334.91 111.26 334.98C110.93 334.6 110.59 334.23 110.22 333.89C106.71 330.61 101.33 329.42 98.64 331.21C98.17 331.12 97.44 331.08 96.89 331.69C96.34 332.26 96.39 332.96 96.51 333.46C96.05 334.25 95.82 335.25 95.86 336.42C95.94 339.32 97.54 342.64 99.92 344.87V344.88ZM114.88 341.17C114.94 342.96 114.11 344.89 112.61 346.46C111.06 348.11 109.12 349.06 107.28 349.06C106.27 349.06 105.34 348.77 104.54 348.21C106.43 347.71 108.68 346.3 110.44 344.43C112.21 342.54 113.47 340.24 113.85 338.32C114.49 339.11 114.83 340.09 114.87 341.17H114.88ZM99.16 334.92C99.36 334.71 99.49 334.46 99.55 334.23C99.79 334.16 100.01 334.03 100.21 333.79C101.06 332.9 105.28 333.4 108.17 336.1C109.13 337 109.9 338.04 110.45 339.11C110.03 340.07 109.32 341.24 108.25 342.38C107.18 343.52 106.04 344.28 105.06 344.78C103.97 344.3 102.92 343.62 101.97 342.72C99.89 340.77 98.89 338.06 98.84 336.35C98.82 335.57 98.98 335.1 99.15 334.91L99.16 334.92Z" fill="#004791"/>
<path d="M164.89 425.51C164.58 424.38 164.08 423.48 163.41 422.87C163.39 422.4 163.26 421.7 162.58 421.32C161.89 420.89 161.21 421.09 160.74 421.32C157.7 420.35 152.83 423.05 150.4 427.24C150.15 427.68 149.92 428.12 149.72 428.57C149.63 428.53 149.54 428.46 149.43 428.44C149.35 428.44 149.11 428.42 149.04 428.42C147.77 428.42 146.61 429.14 145.93 430.32C143.97 433.7 144.88 437.79 147.9 440.72C147.83 440.78 147.74 440.85 147.63 440.95C147.11 441.4 146.55 441.74 145.94 442C145.18 442.32 144.81 443.19 145.12 443.95C145.36 444.53 145.91 444.88 146.5 444.88C146.69 444.88 146.89 444.84 147.07 444.76C147.98 444.39 148.83 443.86 149.59 443.2C149.89 442.95 150.1 442.74 150.3 442.55C152.09 443.56 154.02 444.12 155.89 444.12C158.95 444.12 161.53 442.67 162.96 440.17C163.97 438.42 163.36 436.85 162.84 436.19C162.78 436.11 162.68 436.07 162.61 436.02C162.89 435.61 163.17 435.2 163.42 434.76C165.06 431.94 165.63 428.32 164.88 425.5L164.89 425.51ZM152.98 428.75C154.97 425.31 158.87 423.62 159.9 424.21C160.18 424.38 160.44 424.44 160.7 424.45C160.83 424.65 161.01 424.85 161.28 425C161.48 425.13 161.79 425.52 161.99 426.28C162.44 427.93 162.27 430.82 160.83 433.28C160.18 434.39 159.38 435.36 158.49 436.12C157.43 435.95 156.07 435.55 154.72 434.77C153.36 433.98 152.35 433.06 151.67 432.28C151.89 431.09 152.32 429.88 152.98 428.74V428.75ZM151.74 439.95C149 438.37 147.04 435.38 148.19 432.49C149.11 434.22 150.98 436.06 153.23 437.37C155.43 438.63 158.02 439.38 159.96 439.29C158.28 441.45 154.79 441.72 151.73 439.95H151.74Z" fill="#004791"/>
<path d="M140 446.43C139.66 445.67 138.77 445.34 138.03 445.67C137.44 445.94 136.79 446.1 136.1 446.16C135.95 446.18 135.86 446.18 135.75 446.19C135.75 444.69 135.5 443.23 134.91 441.95C133.87 439.71 132 438.13 129.65 437.54C127.93 437.11 126.42 437.99 125.87 438.77C125.81 438.86 125.8 438.95 125.76 439.05C125.29 438.88 124.81 438.74 124.32 438.61C119.65 437.45 114.38 439.05 112.9 441.91C112.44 442.08 111.77 442.4 111.6 443.2C111.4 443.97 111.77 444.54 112.13 444.93C112.1 445.84 112.39 446.83 112.99 447.83C114.48 450.31 117.49 452.43 120.66 453.23C121.15 453.36 121.64 453.43 122.13 453.51C122.13 453.61 122.08 453.71 122.09 453.8C122.2 454.63 122.91 456.17 124.87 456.66C125.52 456.83 126.17 456.9 126.81 456.9C130.78 456.9 134.22 453.81 135.39 449.2C135.39 449.2 135.41 449.2 135.42 449.2C135.69 449.2 135.98 449.18 136.36 449.14C137.37 449.05 138.35 448.8 139.25 448.4C140.01 448.07 140.34 447.17 140.01 446.43H140ZM115.56 446.28C115.16 445.61 115.07 445.12 115.14 444.89C115.21 444.59 115.2 444.32 115.14 444.08C115.31 443.89 115.44 443.66 115.5 443.36C115.81 442.16 119.75 440.55 123.58 441.5C124.87 441.82 126.03 442.38 127.04 443.07C127.13 444.11 127.08 445.45 126.71 446.96C126.32 448.5 125.71 449.75 125.14 450.61C123.94 450.73 122.66 450.64 121.39 450.31C118.64 449.63 116.44 447.75 115.57 446.28H115.56ZM132.51 448.41C131.69 451.7 129.4 453.89 126.81 453.89C126.64 453.89 126.47 453.89 126.3 453.86C127.78 452.44 129.03 450 129.61 447.68C130.22 445.21 130.21 442.53 129.61 440.66C131.02 441.23 131.78 442.33 132.19 443.19C132.87 444.68 132.98 446.52 132.5 448.4L132.51 448.41Z" fill="#004791"/>
<path d="M212.55 512.39H212.68C218.2 512.39 222.4 508.83 222.44 504.12C222.47 502.09 221.17 501.01 220.39 500.7C220.3 500.67 220.21 500.68 220.11 500.66C220.17 500.17 220.2 499.68 220.21 499.17C220.25 495.9 218.97 492.44 216.95 490.37C216.13 489.54 215.26 489 214.37 488.8C214.13 488.4 213.66 487.84 212.85 487.84C212.04 487.82 211.58 488.32 211.28 488.74C208.16 489.39 205.22 494.12 205.15 498.95C205.15 499.45 205.17 499.96 205.21 500.45C205.11 500.47 205 500.45 204.9 500.48C204.11 500.77 202.78 501.82 202.77 503.83C202.74 506.26 203.78 508.47 205.7 510.05C206.79 510.95 208.12 511.56 209.57 511.95C209.54 512.04 209.51 512.14 209.45 512.27C209.21 512.93 208.89 513.51 208.49 514.01C207.97 514.66 208.07 515.59 208.72 516.12C209 516.34 209.33 516.46 209.66 516.46C210.1 516.46 210.53 516.26 210.82 515.89C211.43 515.13 211.92 514.26 212.27 513.29C212.39 512.91 212.47 512.64 212.55 512.38V512.39ZM211.96 491.66C212.28 491.69 212.54 491.6 212.77 491.49C212.98 491.62 213.25 491.69 213.56 491.69C213.8 491.69 214.25 491.89 214.8 492.46C215.99 493.67 217.25 496.28 217.21 499.13C217.19 500.45 216.92 501.69 216.49 502.84C215.51 503.16 214.19 503.44 212.61 503.44C211.05 503.41 209.74 503.11 208.75 502.76C208.35 501.61 208.1 500.34 208.12 499.01C208.18 495.04 210.75 491.66 211.94 491.66H211.96ZM205.79 504.62C207.44 505.68 210.01 506.37 212.75 506.42C215.28 506.42 217.76 505.8 219.39 504.81C218.93 507.83 215.77 509.4 212.67 509.4H212.53C210.59 509.38 208.84 508.79 207.59 507.75C206.84 507.14 205.98 506.14 205.79 504.62Z" fill="#004791"/>
<path d="M203.83 522.21C203.44 522.73 202.95 523.2 202.38 523.58C202.26 523.66 202.18 523.71 202.1 523.77C200.45 520.8 197.68 518.94 194.61 518.94C193.92 518.94 193.22 519.04 192.53 519.22C190.58 519.75 189.91 521.29 189.82 522.13C189.82 522.24 189.85 522.33 189.86 522.44C189.37 522.52 188.88 522.62 188.39 522.75C183.74 524.02 179.91 528.01 180.03 531.22C179.72 531.57 179.31 532.17 179.53 532.97C179.73 533.73 180.34 534.05 180.84 534.2C181.26 535.02 182 535.73 183.02 536.32C184.63 537.24 186.73 537.74 188.85 537.74C190.03 537.74 191.23 537.58 192.35 537.28C192.84 537.14 193.31 536.99 193.77 536.82C193.81 536.9 193.82 536.99 193.88 537.07C194.32 537.66 195.3 538.35 196.62 538.35C196.97 538.35 197.34 538.3 197.7 538.21C199.75 537.66 201.38 536.39 202.44 534.54C203.71 532.33 204 529.42 203.23 526.56C203.47 526.42 203.72 526.27 204.05 526.05C204.88 525.49 205.62 524.8 206.21 524C206.71 523.33 206.57 522.4 205.92 521.9C205.26 521.41 204.32 521.55 203.83 522.21ZM191.59 534.39C188.84 535.15 186 534.57 184.53 533.73C183.85 533.33 183.53 532.94 183.48 532.72C183.41 532.42 183.27 532.18 183.09 532C183.15 531.76 183.15 531.5 183.06 531.2C182.74 530 185.38 526.67 189.2 525.62C190.47 525.27 191.75 525.16 192.96 525.25C193.56 526.11 194.18 527.33 194.6 528.84C195.01 530.35 195.09 531.7 195.01 532.75C194 533.47 192.86 534.04 191.59 534.39ZM199.86 533.05C199.32 533.98 198.56 534.68 197.61 535.08C198.17 533.21 198.14 530.54 197.48 528.07C196.84 525.76 195.54 523.35 194.04 521.96C196.83 521.62 199.42 523.83 200.36 527.29C200.93 529.41 200.76 531.51 199.86 533.06V533.05Z" fill="#004791"/>
<path d="M294.05 552.52C295.06 552.52 295.99 552.46 296.21 551.73C296.24 551.62 296.26 551.52 296.25 551.41C296.27 551.36 296.27 551.3 296.28 551.24C296.34 550.55 296.37 549.78 286.48 547.97C286.57 544.34 286.37 537.07 281.97 534.23C281.06 533.65 280.13 533.36 279.23 533.36C276.72 533.36 275.4 535.47 274.52 536.85C274.38 537.08 274.19 537.38 274.02 537.61C273.59 537.27 273.38 536.42 273.01 533.79L272.77 532.1C272.36 529.33 271.51 523.56 265.63 521.9C264.89 521.7 264.18 521.59 263.53 521.59C259.3 521.59 258.11 525.58 257.39 527.95C257.13 528.8 256.71 530.23 256.26 530.48C255.51 529.87 255.53 526 255.54 524.35V523.15C255.51 515.31 251.85 510.81 245.51 510.81C244.86 510.81 244.17 510.86 243.57 510.94C241.69 511.11 240.23 511.81 239.21 513.06C237.27 515.46 237.7 518.91 238.08 521.97C238.21 523.02 238.4 524.53 238.31 525.23C238.08 525.31 237.86 525.34 237.66 525.34C236.62 525.34 235.5 524.19 234.21 521.82C231.86 517.6 228.14 515.17 223.99 515.17C219.84 515.17 216.05 517.5 213.35 521.56C210.64 525.64 210.24 530.33 212.29 534.15C214.3 537.9 218.41 540.15 223.27 540.15C223.66 540.15 224.06 540.13 224.44 540.12C224.86 540.09 225.26 540.07 225.65 540.07C228.65 540.07 229.75 540.89 230.36 542.2C229.8 542.66 228.49 543.29 227.57 543.72C224.8 545.05 221.67 546.54 220.88 549.55C220.43 551.25 220.86 553.06 222.22 554.99C225.81 559.66 229.88 560.63 232.66 560.63C235.96 560.63 239.34 559.21 242.16 556.63C242.54 556.28 242.92 555.92 243.31 555.56C244.89 554.07 247.06 552.02 248.31 552.02C248.46 552.02 248.66 552.05 248.92 552.19C248.99 552.58 248.5 553.79 248.2 554.52C247.41 556.42 246.44 558.8 247.51 561.14C248.23 562.72 249.68 563.87 251.96 564.64C253.3 565.1 254.62 565.32 255.89 565.32C260.73 565.32 263.7 562.07 265.13 560.52L265.36 560.28C265.85 559.77 266.29 559.27 266.69 558.8C268.1 557.22 268.86 556.39 269.67 556.39H269.69C269.75 556.67 269.81 557.03 269.85 557.31C270.12 559.09 270.68 563.41 275.94 562.87C280.18 562.42 283.5 558.67 285.84 551.77C289.69 552.25 292.44 552.51 294.05 552.51V552.52ZM275.46 558.39C275.02 558.44 274.71 558.36 274.7 558.36C274.5 558.16 274.35 557.15 274.26 556.61C274.04 555.11 273.65 552.58 271.12 552.05C270.62 551.94 270.13 551.88 269.65 551.88C266.79 551.88 265.09 553.78 263.32 555.8C262.93 556.24 262.53 556.7 262.07 557.18L261.81 557.47C260.58 558.79 258.73 560.82 255.87 560.82C255.08 560.82 254.24 560.66 253.38 560.37C252.41 560.03 251.74 559.61 251.58 559.26C251.32 558.68 251.89 557.3 252.34 556.19C253.16 554.19 254.53 550.85 251.63 548.65C250.62 547.89 249.51 547.5 248.32 547.5C245.29 547.5 242.73 549.92 240.25 552.25C239.89 552.6 239.52 552.94 239.16 553.28C237.18 555.09 234.88 556.1 232.69 556.1C230.15 556.1 227.76 554.75 225.87 552.28C225.59 551.88 225.12 551.12 225.25 550.64C225.52 549.64 227.94 548.48 229.54 547.71C232.31 546.38 236.09 544.57 234.75 540.94C232.72 535.52 227.43 535.52 225.69 535.52C225.21 535.52 224.71 535.54 224.19 535.57C220.53 535.83 217.63 534.49 216.28 531.97C215.03 529.65 215.35 526.67 217.12 523.99C218.98 521.2 221.49 519.59 224.02 519.59C226.55 519.59 228.76 521.14 230.31 523.93C231.67 526.43 233.93 529.77 237.7 529.77C238.59 529.77 239.5 529.57 240.41 529.2C243.38 527.98 242.95 524.47 242.57 521.37C242.33 519.42 242 516.75 242.74 515.85C242.82 515.75 243.06 515.46 244.11 515.36C244.61 515.28 245.09 515.25 245.55 515.25C247.05 515.25 251.06 515.25 251.1 523.13V524.29C251.08 527.69 251.07 531.54 253.12 533.6C254.08 534.57 255.45 535.01 256.8 534.91C260.09 534.65 261.03 531.5 261.72 529.21C262.73 525.83 263.13 525.81 264.44 526.18C267.3 527 267.93 529.74 268.37 532.73L268.61 534.39C269.09 537.78 269.58 541.29 273.63 542.19C273.87 542.24 274.1 542.26 274.34 542.26C276.43 542.26 277.54 540.5 278.35 539.21C278.65 538.73 279.16 537.94 279.23 537.81C279.23 537.81 279.35 537.83 279.58 537.98C280.54 538.59 282.04 540.62 282.02 547.15C280.93 546.97 279.79 546.78 278.53 546.58C261.98 543.68 241.02 535.39 234.13 532.67C232.697 532.11 231.91 531.83 231.77 531.83C231.55 531.83 231.35 531.92 231.21 532.07C231.16 532.13 231.12 532.2 231.08 532.27C231.05 532.33 231.02 532.42 231.02 532.49C231.02 532.61 231.02 532.71 231.05 532.82C231.53 534.22 258.63 547.12 277.77 550.51C279.03 550.71 280.21 550.89 281.33 551.05C279.28 556.77 277.04 558.23 275.47 558.39H275.46Z" fill="#004791"/>
<path d="M159.71 244.06L159.99 244.49L160.03 244.74H160.73C161.05 244.74 161.4 244.74 163.54 242.41C166.32 243.9 170.07 245.61 173.59 245.61C175.11 245.61 176.46 245.28 177.63 244.63C178.88 243.9 179.66 242.94 179.97 241.77C180.47 239.85 179.45 238.15 178.71 236.9C178.58 236.69 178.42 236.4 178.29 236.17C178.92 235.98 180.24 236.46 181.78 236.98L183.64 237.6C184.95 238.04 186.91 238.7 189.08 238.7C191.76 238.7 193.99 237.71 195.67 235.81C196.95 234.48 197.58 233.05 197.55 231.56C197.49 229.09 195.62 227.31 194.13 225.89C193.56 225.35 192.64 224.47 192.44 224.03C192.5 223.96 192.57 223.94 192.81 223.94C194.14 223.94 196.44 225.11 198.29 226.06L199.11 226.48C206.91 230.19 213.04 228.08 215.2 221.37C215.85 219.58 215.84 217.93 215.14 216.48C213.84 213.76 210.69 212.67 207.93 211.71C206.98 211.38 205.61 210.91 205.05 210.55C205.18 209.63 205.76 208.43 209.72 208.42C214.31 208.27 218.04 206.24 219.96 202.84C221.99 199.23 221.74 194.64 219.25 190.27C216.95 186.22 213.09 183.79 208.93 183.79C204.24 183.79 200.17 186.76 198.06 191.68C196.39 195.31 195.18 196.05 193.77 196.06C193.62 195.34 193.64 193.93 193.64 192.93C193.66 190 193.69 186.68 191.67 184.64C190.97 183.93 189.71 183.1 187.67 183.1C187.18 183.1 186.67 183.15 186.06 183.26C181.78 184.14 178.55 186.24 176.71 189.33C174.91 192.35 174.59 196.03 175.77 199.91C175.93 200.48 176.1 201.07 176.28 201.66C177.21 204.7 177.89 207.26 176.77 207.76C176.4 207.66 175.54 206.67 175.03 206.07C173.65 204.48 171.94 202.49 169.27 202.49C167.64 202.49 166.07 203.24 164.39 204.82C159.17 210.09 161.35 215.84 162.28 218.3L162.4 218.62C162.6 219.17 162.81 219.69 163.01 220.18C163.94 222.55 164.15 223.31 163.81 223.98C163.55 223.91 163.23 223.8 162.98 223.71C162.08 223.41 161.06 223.06 159.94 223.06C158.72 223.06 156.51 223.52 155.33 226.53C153.75 230.51 155.67 235.22 160.99 240.55C159.35 243.2 159.59 243.73 159.74 244.05L159.71 244.06ZM159.47 228.18C159.67 227.67 159.92 227.58 159.91 227.54C160.3 227.54 160.95 227.76 161.53 227.95C162.36 228.23 163.23 228.52 164.16 228.52C165.61 228.52 166.49 227.81 166.99 227.21C169.39 224.21 168.25 221.32 167.15 218.52C166.97 218.06 166.78 217.57 166.58 217.05L166.45 216.7C165.39 213.91 164.61 210.93 167.5 208.01C168.51 207.06 169.06 206.96 169.25 206.96C169.87 206.96 170.84 208.09 171.62 208.98C172.86 210.42 174.41 212.21 176.71 212.21C177.33 212.21 177.95 212.08 178.51 211.82C183.42 209.77 181.7 204.09 180.56 200.33C180.39 199.77 180.22 199.21 180.06 198.63C179.24 195.93 179.41 193.5 180.55 191.59C181.73 189.62 183.95 188.23 186.89 187.62C187.17 187.57 187.43 187.54 187.66 187.54C188.26 187.54 188.42 187.71 188.48 187.76C189.19 188.48 189.16 191.11 189.16 192.86C189.14 195.93 189.1 200.12 192.86 200.47C198.01 200.98 200.44 197.2 202.16 193.47C203.57 190.19 206.09 188.24 208.93 188.24C211.46 188.24 213.86 189.81 215.35 192.44C217.03 195.41 217.29 198.4 216.04 200.61C214.89 202.64 212.6 203.81 209.64 203.91C202.5 203.93 200.76 207.56 200.54 210.62C200.37 213.82 203.75 214.99 206.46 215.92C208.21 216.53 210.6 217.35 211.09 218.37C211.15 218.49 211.33 218.86 210.96 219.88C209.82 223.42 207.74 223.82 206.28 223.82C204.82 223.82 203.01 223.33 201.09 222.41L200.33 222.02C197.94 220.8 195.22 219.42 192.81 219.42C190.78 219.42 189.19 220.39 188.32 222.21C186.96 225.21 189.41 227.55 191.04 229.09C191.84 229.85 193.05 231.01 193.07 231.62C193.07 231.86 192.84 232.24 192.39 232.73C191.52 233.71 190.47 234.18 189.09 234.18C187.71 234.18 186.17 233.68 185.09 233.31L183.24 232.7C181.53 232.12 180.06 231.62 178.61 231.62C176.9 231.62 175.49 232.31 174.42 233.66C172.8 235.63 174.11 237.85 174.89 239.16C175.13 239.57 175.53 240.22 175.63 240.58C175.58 240.61 175.52 240.66 175.44 240.71C174.98 240.97 174.37 241.1 173.63 241.1C171.32 241.1 168.52 239.88 166.61 238.91C168.21 237.03 170.26 234.55 172.94 231.27C182.9 219.09 198.73 205.33 205.73 199.74L205.91 199.61C207.723 198.33 208.643 197.55 208.67 197.27L208.69 196.97L208.27 196.45H207.91C207.62 196.45 207.46 196.45 204.83 198.55C198.78 202.81 180.47 215.76 169.87 228.69C167.08 232.11 165.05 234.74 163.55 236.78C158.96 232.02 159 229.37 159.47 228.17V228.18Z" fill="#004791"/>
<path d="M183.16 515.78C187.54 515.78 191.69 512.51 193.84 510.57C195.45 511.68 196.59 512.25 197.23 512.25C197.78 512.25 198.03 511.92 198.11 511.78C198.13 511.76 198.14 511.73 198.15 511.69C198.25 511.6 198.32 511.5 198.35 511.39C198.48 510.97 198.55 510.7 196 508.16C197.59 505.59 201.89 498.42 199.05 493.57C197.87 491.45 196.24 491.01 195.08 491.01C193.68 491.01 192.44 491.67 191.45 492.19C191.25 492.3 191.01 492.42 190.8 492.53C190.67 492.03 190.9 491.17 191.72 489L192.35 487.32C193.24 484.97 195.32 479.47 191.04 475.29C189.74 473.86 188.3 473.13 186.77 473.13C184.38 473.13 182.57 474.89 181.11 476.3C180.5 476.89 179.5 477.87 179.13 477.88C178.66 477.09 180.74 473.39 181.42 472.16L181.87 471.34C184.03 467.23 184.55 463.61 183.43 460.6C182.49 458.09 180.48 456.21 177.49 455.04C176.55 454.65 175.63 454.46 174.76 454.46C170.46 454.46 168.76 458.78 167.53 461.91C167.16 462.85 166.63 464.22 166.22 464.77C165.32 464.58 164.19 463.91 164.12 460.22C164.29 456.55 163.27 453.43 161.14 451.2C157.76 447.65 151.82 447.07 146.44 449.84C142.21 452.02 139.67 455.88 139.65 460.15C139.63 464.62 142.36 468.72 147.05 471.16C150.87 472.88 151.42 474.13 151.31 475.47C150.84 475.55 149.51 475.54 148.19 475.47C147.38 475.43 146.55 475.39 145.74 475.39C143.66 475.39 141.07 475.62 139.44 477.49C138.34 478.74 137.92 480.46 138.2 482.6C139.24 489.74 143.91 494.18 150.4 494.18C151.71 494.18 153.06 494 154.38 493.65C154.95 493.52 155.55 493.37 156.15 493.2C157.83 492.76 159.56 492.31 160.86 492.31C162.02 492.31 162.14 492.63 162.28 492.94C162.17 493.3 161.15 494.1 160.55 494.59C158.98 495.83 157.02 497.4 156.75 499.92C156.57 501.63 157.21 503.34 158.78 505.24C161 507.66 163.7 508.89 166.81 508.89C169.04 508.89 170.92 508.25 172.18 507.84L172.6 507.7C173.17 507.52 173.72 507.31 174.23 507.13C175.5 506.68 176.59 506.3 177.3 506.3C177.5 506.3 177.69 506.32 177.96 506.49C177.87 506.77 177.73 507.13 177.63 507.4C177.01 508.98 175.36 513.21 180.22 515.24C181.14 515.58 182.13 515.76 183.15 515.76L183.16 515.78ZM177.31 501.82C175.83 501.82 174.4 502.32 172.74 502.91C172.26 503.08 171.75 503.27 171.22 503.44L170.76 503.6C169.72 503.94 168.31 504.42 166.81 504.42C164.99 504.42 163.44 503.7 162.17 502.31C161.52 501.52 161.18 500.82 161.22 500.41C161.29 499.75 162.43 498.84 163.35 498.12C165.1 496.73 167.74 494.63 166.47 491.35C165.98 490.04 164.59 487.85 160.88 487.85C159.01 487.85 156.99 488.37 155.03 488.88C154.46 489.04 153.9 489.18 153.31 489.33C152.3 489.59 151.34 489.72 150.41 489.72C146.13 489.72 143.38 486.97 142.65 482.02C142.55 481.27 142.61 480.71 142.82 480.49C143.01 480.28 143.64 479.91 145.75 479.91C146.48 479.91 147.23 479.96 147.97 479.99C148.74 480.04 149.48 480.07 150.17 480.07C153.55 480.07 155.4 478.91 155.68 476.66C156.56 471.29 152.5 468.74 148.99 467.17C145.94 465.57 144.11 462.96 144.13 460.21C144.13 457.59 145.73 455.28 148.49 453.86C152.12 451.99 155.86 452.19 157.89 454.32C159.15 455.65 159.76 457.62 159.64 460.19C159.73 465.69 161.89 468.77 166.14 469.32L166.48 469.34C169.44 469.34 170.64 466.29 171.7 463.59C172.51 461.54 173.5 458.99 174.76 458.99C175.04 458.99 175.38 459.08 175.81 459.25C177.63 459.97 178.75 460.93 179.23 462.22C179.88 463.95 179.42 466.41 177.92 469.27L177.51 470.02C175.86 472.98 173.99 476.33 174.83 479.17C175.19 480.38 176.01 481.37 177.21 481.99C177.82 482.3 178.47 482.47 179.14 482.47C181.23 482.47 182.83 480.92 184.24 479.55C185.03 478.79 186.21 477.65 186.78 477.65C186.94 477.65 187.27 477.83 187.83 478.44C189.94 480.5 189.19 483.08 188.18 485.77L187.55 487.46C186.4 490.47 185.23 493.6 188.07 496.36C188.72 496.94 189.52 497.26 190.4 497.26C191.57 497.26 192.63 496.7 193.55 496.21C194.01 495.97 194.79 495.55 194.9 495.49C194.9 495.49 194.99 495.57 195.15 495.86C195.59 496.62 196.19 498.99 192.67 505.03C190.88 503.35 188.58 501.22 185.53 498.43C177.03 490.89 166.66 479 154.69 463.11C153.797 461.917 153.22 461.32 152.96 461.32C152.87 461.32 152.78 461.34 152.69 461.37C152.45 461.46 152.26 461.69 152.21 461.94C151.94 463.4 168.43 488.56 182.8 501.37C185.66 504 188.12 506.14 190.17 507.82C187.4 510.16 185.03 511.34 183.12 511.34C182.64 511.34 182.21 511.25 181.85 511.13C181.45 510.96 181.28 510.82 181.27 510.82C181.21 510.53 181.57 509.59 181.77 509.08C182.32 507.66 183.25 505.3 181.4 503.6C180.24 502.42 178.85 501.85 177.3 501.85L177.31 501.82Z" fill="#004791"/>
<path d="M117.7 417.75C118.38 417.89 119.01 417.99 119.62 418.1C121.99 418.52 122.75 418.73 123.12 419.32C122.92 419.5 122.66 419.73 122.46 419.89C121.18 420.97 117.79 423.82 120.9 427.9C122.63 430.17 125.44 431.33 129.25 431.33C131.67 431.33 133.97 430.85 135.38 430.51C136.99 433.92 137.53 433.96 137.93 433.96C138.2 433.96 138.44 433.83 138.6 433.64L138.92 433.47C139.12 433.19 139.38 432.78 138.42 429.34C141.35 427.67 147.85 423.66 147.98 418.31C148.01 416.86 147.6 415.7 146.77 414.84C145.39 413.41 143.41 413.38 141.96 413.36C141.72 413.36 141.39 413.36 141.13 413.34C141.23 412.82 141.85 412.21 143.75 410.63L145.04 409.54C147.16 407.78 151.56 404.11 149.96 398.3C149.15 395.41 147.2 393.82 144.44 393.82C143.13 393.82 141.81 394.17 140.64 394.49C139.77 394.72 138.86 394.96 138.27 394.96C138.09 394.96 138.02 394.93 137.99 394.88C138.15 393.94 141.36 392.01 142.73 391.17L143.71 390.56C147.66 388.11 149.91 385.27 150.4 382.13C150.82 379.42 149.9 376.73 147.76 374.24C146.15 372.08 144.29 371.62 143.01 371.62C140.28 371.62 137.86 373.57 135.72 375.29C134.92 375.94 133.75 376.89 133.19 377.15C132.46 376.59 131.87 375.66 133.92 372.07C136.22 368.18 136.46 364.01 134.59 360.58C132.58 356.9 128.37 354.58 123.35 354.42L122.81 354.4C118.11 354.4 114.13 356.6 112.2 360.29C110.16 364.15 110.69 368.99 113.61 373.25C115.91 376.52 115.59 378.09 114.93 379.17C114.26 378.93 113.07 378.17 112.23 377.64C110.17 376.32 107.82 374.83 105.42 374.83C103.76 374.83 101.47 375.54 99.98 379.02C98.56 382.95 98.66 386.72 100.28 389.89C101.9 393.04 104.95 395.41 108.87 396.53C109.36 396.67 109.86 396.81 110.36 396.95C113.61 397.82 116.09 398.6 116.03 399.81C115.75 400.05 114.49 400.26 113.73 400.38C111.73 400.7 109.24 401.11 107.81 403.2C106.85 404.62 106.63 406.43 107.14 408.73C108.77 416 114.78 417.18 117.34 417.68L117.69 417.74L117.7 417.75ZM111.53 407.77C111.22 406.34 111.46 405.84 111.53 405.72C111.87 405.22 113.36 404.97 114.46 404.8C116.56 404.46 120.06 403.9 120.44 400.3C120.9 395.15 115.48 393.69 111.53 392.61C111.04 392.48 110.57 392.35 110.1 392.21C107.38 391.44 105.3 389.89 104.25 387.84C103.21 385.8 103.18 383.28 104.13 380.66C104.71 379.29 105.2 379.29 105.41 379.29C106.5 379.29 108.34 380.45 109.81 381.41C111.68 382.6 113.45 383.73 115.23 383.73C116.42 383.73 117.48 383.22 118.27 382.21C121.87 377.23 118.4 372.29 117.29 370.69C115.31 367.8 114.9 364.77 116.16 362.37C117.32 360.15 119.76 358.88 122.82 358.88H123.2C126.62 359.01 129.41 360.45 130.66 362.72C131.77 364.75 131.56 367.25 130.05 369.8C128.96 371.69 125.65 377.44 130.87 380.99C131.5 381.45 132.24 381.68 133.02 381.68C134.93 381.68 136.61 380.33 138.54 378.78C139.95 377.64 141.87 376.09 143.02 376.09C143.19 376.09 143.57 376.09 144.26 377.01C145.61 378.59 146.19 380.09 145.98 381.42C145.7 383.19 144.11 385.02 141.36 386.74L140.42 387.31C137.49 389.09 134.17 391.09 133.6 394C133.36 395.25 133.66 396.5 134.47 397.59C135.08 398.42 136.22 399.42 138.29 399.42C139.46 399.42 140.65 399.1 141.81 398.8C142.76 398.55 143.74 398.29 144.46 398.29C144.96 398.29 145.31 398.29 145.65 399.49C146.42 402.28 144.45 404.21 142.19 406.09L140.9 407.16C138.34 409.29 135.68 411.5 136.97 415.37C137.81 417.78 140.38 417.82 141.91 417.82C142.39 417.82 143.15 417.84 143.51 417.93C143.51 417.99 143.51 418.08 143.51 418.18C143.49 419.29 142.56 421.58 137.07 424.9C136.31 422.61 135.31 419.72 133.95 415.97C128.82 401.26 125.92 380.93 124.67 372.26C124.223 369.14 123.76 367.58 123.28 367.58L122.66 367.89C121.95 368.9 123.49 398.05 130.16 417.22C131.56 421.08 132.69 424.01 133.61 426.3C132.41 426.54 130.85 426.8 129.28 426.8C126.94 426.8 125.34 426.25 124.5 425.15C124.19 424.74 124.15 424.54 124.15 424.54C124.23 424.26 124.98 423.64 125.38 423.29C126.53 422.32 128.46 420.7 127.61 418.29C126.41 414.69 123.36 414.16 120.42 413.65C119.86 413.56 119.26 413.45 118.63 413.33L118.26 413.25C115.38 412.7 112.49 411.8 111.57 407.75L111.53 407.77Z" fill="#004791"/>
<path d="M113.74 312.29L113.99 312.51C114.48 312.93 114.96 313.3 115.4 313.66C117.34 315.22 117.91 315.79 117.94 316.5C117.67 316.57 117.32 316.63 117.05 316.68C115.41 316.99 111.06 317.83 111.73 322.87C112.24 327 116.1 330.13 123.13 332.22C123.02 334.95 123.41 335.45 123.6 335.67C123.76 335.87 124.14 336.06 124.42 336.02C124.5 336.05 124.58 336.07 124.65 336.07C125.15 336.07 125.47 336.02 126.26 332.72C129.47 332.7 137.16 332.44 140.05 327.75C140.8 326.5 141.03 325.28 140.73 324.12C140.23 322.21 138.52 321.22 137.27 320.49C137.07 320.37 136.81 320.22 136.59 320.08C136.92 319.7 137.75 319.46 140.05 319.02L141.82 318.67C144.32 318.21 150.18 317.1 151.54 311.22C152.95 305.32 147.74 303.98 145.23 303.34C144.48 303.14 143.26 302.84 142.86 302.55C142.86 302.52 142.88 302.51 142.88 302.5C143.63 301.68 147.14 301.55 149.04 301.49L149.95 301.45C154.49 301.17 157.79 299.79 159.77 297.31C161.46 295.19 162.05 292.46 161.52 289.17C161.2 287.15 159.9 283.75 154.85 283.75C153.38 283.75 151.83 284.03 150.47 284.26C149.38 284.45 148.34 284.64 147.61 284.64C147.51 284.64 147.44 284.64 147.37 284.64C147.06 283.75 147.05 282.34 150.27 280.52C154.23 278.27 156.52 274.75 156.59 270.86C156.65 266.68 154.13 262.63 149.83 260.01C144.75 256.92 138.67 257.56 135.1 261.43C132.76 263.97 131.65 267.57 131.98 271.56C132.3 275.56 131.78 276.82 130.45 277.52C129.98 276.97 129.3 275.73 128.83 274.85C127.26 271.96 125.3 268.37 121.69 268.37C120.31 268.37 118.92 268.93 117.55 270.04C114.23 272.74 112.39 276.05 112.22 279.61C112.05 283.17 113.62 286.75 116.59 289.66C117 290.08 117.44 290.5 117.89 290.94C120.16 293.14 121.97 295.02 121.12 296.01C120.62 296.01 119.7 295.68 118.88 295.38C117.64 294.92 116.23 294.41 114.77 294.41C112.87 294.41 110.34 295.28 109.09 299.49C107.01 306.66 111.72 310.61 113.73 312.29H113.74ZM113.39 300.75C113.94 298.89 114.5 298.89 114.77 298.89C115.44 298.89 116.41 299.24 117.34 299.58C118.56 300.02 119.82 300.48 121.12 300.48C122.63 300.48 123.9 299.85 124.73 298.73C128.08 294.55 123.83 290.43 121.01 287.71C120.59 287.3 120.18 286.9 119.76 286.47C117.68 284.43 116.59 282.06 116.69 279.81C116.8 277.56 118.07 275.39 120.36 273.52C121.11 272.91 121.52 272.85 121.67 272.85C122.62 272.85 124.04 275.45 124.88 276.99C126.26 279.52 127.68 282.14 130.29 282.14C130.81 282.14 131.32 282.02 131.71 281.84C137.12 279.71 136.67 274.16 136.43 271.19C136.21 268.45 136.89 266.07 138.37 264.46C140.53 262.12 144.21 261.84 147.47 263.83C150.4 265.62 152.11 268.21 152.07 270.79C152.03 273.09 150.59 275.16 148.02 276.62C141.68 280.21 142.39 284.57 143.43 286.94C143.93 287.94 145.04 289.14 147.57 289.14C148.7 289.14 149.91 288.92 151.21 288.69C152.45 288.47 153.74 288.24 154.81 288.24C156.6 288.24 156.88 288.76 157.06 289.88C157.39 291.85 157.11 293.41 156.24 294.5C155.11 295.92 152.83 296.77 149.69 296.95L148.84 296.98C145.43 297.11 141.56 297.26 139.55 299.44C138.7 300.37 138.28 301.56 138.35 302.97C138.63 306.26 141.91 307.1 144.09 307.65C147.54 308.53 147.45 308.88 147.14 310.16C146.49 312.98 143.84 313.69 140.96 314.24L139.17 314.59C135.98 315.2 132.66 315.84 131.92 319.77C131.45 322.3 133.67 323.59 135 324.36C135.4 324.59 136.04 324.96 136.31 325.2C136.29 325.26 136.25 325.33 136.21 325.4C135.6 326.38 133.62 327.98 127.22 328.2C127.72 325.75 128.34 322.53 129.14 318.28C131.76 303.15 139.24 284.17 142.43 276.05C143.637 272.99 144.077 271.297 143.75 270.97C143.62 270.87 143.45 270.8 143.28 270.8C141.47 270.8 128.44 298.95 125.21 317.49C124.39 321.87 123.87 325.15 123.55 327.66C117.53 325.73 116.33 323.51 116.17 322.29C116.1 321.77 116.17 321.57 116.17 321.57C116.37 321.37 117.35 321.18 117.88 321.07C119.35 320.79 121.81 320.31 122.29 317.8C123.02 314.02 120.57 312.05 118.19 310.14C117.77 309.81 117.33 309.46 116.88 309.06L116.6 308.83C114.38 306.97 112.26 304.76 113.41 300.76L113.39 300.75Z" fill="#004791"/>
<path d="M489.64 248.57C489.58 248.65 489.51 248.73 489.44 248.85C489.02 249.42 488.54 249.89 488.02 250.24C487.34 250.71 487.18 251.64 487.63 252.32C487.92 252.74 488.39 252.97 488.87 252.97C489.16 252.97 489.46 252.88 489.71 252.71C490.5 252.17 491.22 251.47 491.85 250.63C492.08 250.31 492.25 250.08 492.38 249.84C493.55 250.2 494.76 250.39 495.92 250.39C499.96 250.39 503.14 248.23 504.22 244.75C504.83 242.81 503.88 241.41 503.22 240.89C503.14 240.83 503.05 240.82 502.97 240.77C503.16 240.31 503.35 239.84 503.49 239.36C504.47 236.24 504.24 232.56 502.89 230C502.35 228.97 501.65 228.2 500.87 227.76C500.74 227.3 500.47 226.64 499.71 226.41C498.95 226.15 498.34 226.49 497.92 226.83C494.74 226.59 490.58 230.25 489.13 234.86C488.97 235.35 488.85 235.83 488.75 236.32C488.65 236.32 488.56 236.26 488.46 236.26C487.62 236.31 486.04 236.91 485.43 238.85C484.71 241.16 485.07 243.59 486.46 245.65C487.26 246.82 488.36 247.8 489.65 248.58L489.64 248.57ZM491.98 235.75C493.18 231.97 496.62 229.46 497.77 229.81C498.06 229.9 498.34 229.91 498.57 229.87C498.74 230.04 498.97 230.2 499.26 230.29C499.49 230.36 499.87 230.68 500.24 231.38C501.03 232.88 501.48 235.74 500.63 238.47C500.24 239.72 499.62 240.84 498.89 241.8C498.77 241.8 498.67 241.82 498.54 241.82C497.39 241.82 496.16 241.63 494.99 241.26C493.5 240.79 492.3 240.11 491.47 239.48C491.42 238.28 491.6 237.01 491.97 235.76L491.98 235.75ZM488.12 240.45C489.41 241.93 491.67 243.35 494.12 244.12C495.58 244.58 497.12 244.81 498.56 244.81C499.17 244.81 500.16 244.76 501.12 244.51C500.26 246.33 498.37 247.38 495.93 247.38C495.05 247.38 494.14 247.23 493.22 246.95C491.39 246.38 489.87 245.32 488.96 243.97C488.43 243.18 487.9 241.96 488.13 240.45H488.12Z" fill="#004791"/>
<path d="M478.35 259.87C478.62 259.81 478.9 259.74 479.28 259.61C480.24 259.3 481.13 258.85 481.92 258.26C482.59 257.77 482.73 256.84 482.23 256.17C481.73 255.5 480.81 255.36 480.15 255.85C479.62 256.24 479 256.54 478.36 256.75C478.22 256.8 478.12 256.83 478.02 256.86C477.1 252.76 474.04 249.86 470.03 249.76C468.09 249.76 467.04 251.03 466.73 251.79C466.69 251.88 466.7 251.99 466.69 252.1C466.2 252.04 465.7 252 465.2 251.99C460.35 251.9 455.58 254.61 454.78 257.73C454.38 257.97 453.8 258.45 453.8 259.26C453.78 260.05 454.27 260.52 454.7 260.82C454.87 261.71 455.38 262.62 456.19 263.46C458.19 265.55 461.6 266.95 464.86 267.02H465.2C465.59 267.02 465.98 267 466.35 266.97C466.37 267.06 466.35 267.16 466.39 267.25C466.67 268.04 467.7 269.38 469.73 269.42H469.93C474.67 269.44 478.21 265.4 478.35 259.85V259.87ZM464.95 264.06C462.09 264 459.54 262.64 458.36 261.42C457.82 260.85 457.63 260.38 457.63 260.16C457.65 259.85 457.58 259.59 457.46 259.36C457.59 259.15 457.66 258.9 457.66 258.59C457.7 257.35 461.2 254.92 465.13 254.99C466.46 255.02 467.72 255.31 468.84 255.75C469.16 256.74 469.41 258.06 469.38 259.61C469.34 261.21 469.02 262.54 468.63 263.52C467.5 263.9 466.24 264.09 464.93 264.06H464.95ZM470.53 266.44C471.64 264.76 472.33 262.17 472.39 259.68C472.44 257.13 471.83 254.53 470.84 252.84C473.59 253.32 475.47 256.1 475.37 259.75C475.29 263.39 473.29 266.1 470.53 266.44Z" fill="#004791"/>
<path d="M494.66 353.68C495.9 354.44 497.24 354.81 498.66 354.81C501.86 354.81 504.94 352.87 506.91 349.63C507.18 349.71 507.45 349.78 507.85 349.86C508.5 350 509.13 350.06 509.78 350.06C510.13 350.06 510.46 350.04 510.81 350C511.63 349.91 512.21 349.17 512.12 348.34C512.03 347.52 511.27 346.92 510.46 347.03C509.81 347.11 509.15 347.08 508.48 346.92C508.34 346.89 508.24 346.87 508.13 346.84C508.58 345.41 508.75 343.94 508.57 342.55C508.23 340.1 506.91 338.04 504.82 336.79C504.19 336.4 503.52 336.21 502.85 336.21C501.73 336.21 501 336.73 500.86 336.85C500.78 336.91 500.73 337.02 500.67 337.09C500.28 336.79 499.85 336.51 499.42 336.25C495.31 333.77 489.78 333.76 487.53 336.07C487.06 336.09 486.33 336.2 485.92 336.91C485.51 337.59 485.7 338.24 485.92 338.71C485.63 339.57 485.61 340.61 485.89 341.74C486.59 344.55 488.85 347.47 491.66 349.14C492.08 349.4 492.53 349.63 492.97 349.85C492.94 349.94 492.88 350.02 492.86 350.11C492.73 350.94 492.95 352.62 494.68 353.67L494.66 353.68ZM505.59 342.96C505.8 344.57 505.38 346.37 504.38 348.03C502.56 351.06 499.38 352.52 496.83 351.43C498.57 350.56 500.47 348.72 501.81 346.5C503.13 344.3 503.89 341.75 503.87 339.78C505.04 340.75 505.46 342.01 505.59 342.96ZM488.78 341.04C488.6 340.27 488.67 339.78 488.78 339.58C488.95 339.32 489.02 339.06 489.02 338.81C489.23 338.68 489.44 338.5 489.58 338.23C490.22 337.18 494.46 336.78 497.86 338.83C498.99 339.51 499.96 340.35 500.72 341.28C500.52 342.31 500.07 343.6 499.26 344.95C498.43 346.3 497.49 347.3 496.68 347.97C495.5 347.73 494.3 347.28 493.19 346.61C490.75 345.14 489.2 342.68 488.78 341.04Z" fill="#004791"/>
<path d="M526.72 335.01C526.63 334.94 526.57 334.85 526.48 334.81C526.34 334.74 525.84 334.53 525.14 334.53C524.48 334.53 523.51 334.71 522.59 335.6C521.04 337.05 520.18 338.95 520.13 341.08C520.08 342.77 520.55 344.51 521.46 346.12C521.37 346.17 521.29 346.21 521.15 346.26C520.55 346.54 519.91 346.71 519.24 346.78C518.42 346.86 517.82 347.59 517.89 348.41C517.97 349.19 518.61 349.76 519.38 349.76C519.43 349.76 519.47 349.76 519.53 349.74C520.52 349.65 521.49 349.39 522.39 348.98C522.76 348.81 523.01 348.69 523.26 348.55C525.37 350.78 528.08 352.05 530.73 352.05C532.75 352.05 534.6 351.31 536.07 349.93C537.55 348.53 537.42 346.85 537.1 346.07C537.06 345.98 536.99 345.93 536.93 345.86C537.32 345.55 537.7 345.23 538.07 344.89C540.46 342.65 542.07 339.33 542.15 336.44C542.19 335.27 541.97 334.27 541.5 333.49C541.62 333.04 541.7 332.33 541.15 331.74C540.61 331.14 539.91 331.13 539.38 331.23C536.74 329.43 531.32 330.6 527.78 333.91C527.41 334.25 527.06 334.6 526.73 334.99L526.72 335.01ZM525.37 346.47C523.88 344.89 523.05 342.95 523.11 341.17C523.14 340.09 523.5 339.12 524.13 338.31C524.51 340.23 525.78 342.53 527.55 344.43C529.3 346.29 531.56 347.71 533.45 348.21C531.18 349.8 527.77 349.02 525.36 346.47H525.37ZM537.73 333.72C537.94 333.96 538.19 334.12 538.44 334.2C538.5 334.44 538.62 334.69 538.84 334.92C539.01 335.09 539.18 335.56 539.15 336.34C539.1 338.04 538.1 340.75 536.02 342.71C535.08 343.6 534.01 344.3 532.9 344.78C531.93 344.28 530.8 343.5 529.75 342.37C528.67 341.22 527.96 340.05 527.54 339.09C528.09 338.02 528.86 336.98 529.83 336.08C532.71 333.37 536.93 332.86 537.74 333.7L537.73 333.72Z" fill="#004791"/>
<path d="M492.06 430.34C491.38 429.16 490.22 428.45 488.95 428.45C488.87 428.45 488.64 428.47 488.55 428.47C488.44 428.49 488.36 428.56 488.27 428.6C488.07 428.14 487.84 427.7 487.58 427.26C485.17 423.09 480.36 420.42 477.27 421.34C476.85 421.12 476.14 420.87 475.47 421.29C474.78 421.68 474.62 422.34 474.59 422.87C473.91 423.48 473.41 424.36 473.1 425.51C472.34 428.31 472.93 431.95 474.56 434.78C474.8 435.23 475.08 435.63 475.38 436.04C475.3 436.1 475.21 436.13 475.17 436.21C474.64 436.87 474.02 438.44 475.04 440.19C476.48 442.69 479.06 444.14 482.11 444.14C483.98 444.14 485.92 443.6 487.7 442.57C487.9 442.77 488.11 442.97 488.41 443.22C489.17 443.88 490.01 444.4 490.92 444.78C491.1 444.86 491.3 444.91 491.49 444.91C492.07 444.91 492.63 444.56 492.87 443.98C493.18 443.21 492.81 442.34 492.05 442.02C491.44 441.78 490.87 441.42 490.36 440.97C490.24 440.87 490.17 440.8 490.09 440.74C493.11 437.8 494.02 433.71 492.06 430.33V430.34ZM475.98 426.3C476.18 425.53 476.48 425.14 476.69 425.02C476.97 424.87 477.14 424.67 477.27 424.48C477.51 424.46 477.77 424.4 478.04 424.25C479.1 423.64 483 425.33 485 428.76C485.66 429.91 486.09 431.12 486.31 432.3C485.63 433.1 484.62 434.01 483.27 434.79C481.9 435.58 480.55 435.96 479.49 436.14C478.59 435.38 477.79 434.42 477.15 433.3C475.72 430.83 475.54 427.94 475.98 426.31V426.3ZM486.25 439.96C484.9 440.75 483.46 441.15 482.1 441.15C480.38 441.15 478.97 440.5 478.01 439.3C479.98 439.39 482.56 438.64 484.75 437.37C486.99 436.07 488.86 434.23 489.79 432.5C490.94 435.39 488.97 438.38 486.24 439.96H486.25Z" fill="#004791"/>
<path d="M525.1 441.92C523.66 439.06 518.36 437.45 513.66 438.61C513.17 438.73 512.69 438.88 512.22 439.05C512.18 438.96 512.16 438.85 512.11 438.77C511.57 437.98 510.05 437.11 508.33 437.54C505.98 438.14 504.11 439.7 503.07 441.96C502.47 443.23 502.21 444.69 502.22 446.19C502.12 446.19 502.02 446.17 501.87 446.16C501.18 446.1 500.55 445.95 499.95 445.67C499.19 445.34 498.31 445.67 497.97 446.44C497.63 447.2 497.97 448.07 498.73 448.41C499.63 448.82 500.59 449.06 501.61 449.15C502 449.19 502.29 449.21 502.55 449.21H502.57C503.73 453.8 507.18 456.9 511.15 456.9C511.8 456.9 512.45 456.82 513.09 456.66C515.06 456.17 515.77 454.63 515.88 453.81C515.9 453.71 515.85 453.61 515.85 453.51C516.34 453.44 516.83 453.35 517.31 453.23C520.49 452.43 523.5 450.32 524.99 447.83C525.6 446.83 525.88 445.84 525.86 444.93C526.18 444.6 526.6 444.01 526.4 443.25C526.23 442.43 525.61 442.09 525.11 441.9L525.1 441.92ZM505.47 448.41C504.99 446.54 505.1 444.69 505.78 443.21C506.19 442.34 506.94 441.25 508.35 440.68C507.76 442.54 507.74 445.22 508.35 447.7C508.93 450.02 510.18 452.46 511.66 453.88C508.84 454.19 506.33 451.92 505.46 448.42L505.47 448.41ZM522.42 446.29C521.55 447.75 519.34 449.63 516.58 450.32C515.32 450.64 514.05 450.74 512.84 450.61C512.26 449.74 511.64 448.51 511.26 446.97C510.87 445.47 510.83 444.11 510.92 443.08C511.93 442.4 513.08 441.84 514.37 441.52C518.21 440.57 522.15 442.18 522.45 443.33C522.51 443.64 522.65 443.88 522.82 444.07C522.76 444.31 522.74 444.59 522.82 444.89C522.89 445.13 522.82 445.62 522.41 446.3L522.42 446.29Z" fill="#004791"/>
<path d="M428.54 512.28C428.49 512.15 428.45 512.04 428.41 511.95C432.48 510.86 435.26 507.75 435.22 503.84C435.2 501.82 433.87 500.78 433.09 500.5C432.98 500.46 432.88 500.48 432.78 500.46C432.82 499.97 432.85 499.46 432.84 498.96C432.76 494.15 429.87 489.45 426.73 488.76C426.48 488.39 426.01 487.84 425.21 487.84C424.41 487.88 423.92 488.34 423.64 488.8C422.75 489 421.87 489.55 421.05 490.37C419.03 492.45 417.75 495.9 417.78 499.17C417.8 499.67 417.83 500.17 417.89 500.66C417.8 500.68 417.71 500.66 417.61 500.7C416.82 501.01 415.53 502.09 415.55 504.11C415.61 508.84 419.81 512.39 425.32 512.39H425.45C425.52 512.65 425.61 512.93 425.74 513.29C426.09 514.26 426.57 515.13 427.19 515.89C427.48 516.26 427.91 516.45 428.35 516.45C428.67 516.45 429.01 516.34 429.29 516.12C429.93 515.6 430.03 514.66 429.51 514.01C429.09 513.52 428.77 512.94 428.54 512.29V512.28ZM423.16 492.45C423.71 491.89 424.17 491.68 424.4 491.68C424.71 491.68 424.97 491.6 425.19 491.48C425.39 491.59 425.64 491.65 425.91 491.65H425.98C427.22 491.65 429.79 495.04 429.84 499C429.86 500.32 429.62 501.59 429.22 502.74C428.22 503.11 426.86 503.4 425.22 503.43C423.72 503.43 422.43 503.16 421.47 502.83C421.04 501.7 420.78 500.45 420.75 499.12C420.72 496.28 421.98 493.67 423.16 492.45ZM418.59 504.79C420.23 505.79 422.73 506.4 425.4 506.4C428 506.36 430.53 505.66 432.17 504.61C431.8 507.38 429.09 509.34 425.44 509.39H425.3C422.2 509.39 419.05 507.82 418.58 504.8L418.59 504.79Z" fill="#004791"/>
<path d="M449.57 522.74C449.08 522.61 448.6 522.51 448.11 522.43C448.11 522.32 448.16 522.23 448.14 522.12C448.06 521.28 447.38 519.74 445.44 519.21C444.76 519.02 444.05 518.93 443.36 518.93C440.3 518.93 437.54 520.79 435.88 523.75C435.79 523.7 435.71 523.64 435.6 523.57C435.04 523.19 434.55 522.73 434.14 522.2C433.65 521.54 432.71 521.41 432.05 521.91C431.39 522.41 431.26 523.34 431.76 524C432.37 524.8 433.1 525.48 433.92 526.05C434.24 526.27 434.49 526.44 434.73 526.56C433.97 529.42 434.25 532.33 435.52 534.55C436.58 536.39 438.22 537.66 440.26 538.22C440.63 538.31 440.99 538.36 441.35 538.36C442.66 538.36 443.64 537.67 444.09 537.07C444.15 536.99 444.15 536.9 444.2 536.81C444.66 536.99 445.13 537.15 445.62 537.28C446.75 537.59 447.94 537.74 449.12 537.74C451.25 537.74 453.34 537.26 454.95 536.33C455.96 535.75 456.7 535.03 457.12 534.21C457.57 534.08 458.21 533.77 458.43 532.98C458.64 532.21 458.29 531.63 457.94 531.23C458.09 528.04 454.24 524.02 449.58 522.73L449.57 522.74ZM440.37 535.08C439.43 534.67 438.65 533.98 438.12 533.05C437.23 531.5 437.06 529.39 437.63 527.28C438.5 524.09 440.81 521.92 443.37 521.92C443.55 521.92 443.76 521.94 443.94 521.96C442.44 523.37 441.14 525.78 440.49 528.07C439.83 530.54 439.8 533.21 440.36 535.08H440.37ZM454.89 532C454.72 532.18 454.58 532.42 454.5 532.72C454.44 532.96 454.13 533.34 453.44 533.74C451.96 534.57 449.13 535.15 446.37 534.39C445.11 534.05 443.97 533.48 442.97 532.77C442.89 531.73 442.95 530.39 443.37 528.87C443.79 527.35 444.42 526.14 445 525.28C446.21 525.18 447.5 525.3 448.77 525.64C452.59 526.69 455.24 530.02 454.92 531.18C454.83 531.47 454.83 531.75 454.88 532H454.89Z" fill="#004791"/>
<path d="M413.98 515.15C409.83 515.15 406.11 517.57 403.75 521.81C402.47 524.18 401.33 525.31 400.3 525.31C400.11 525.31 399.89 525.28 399.65 525.21C399.56 524.51 399.75 522.99 399.88 521.94C400.26 518.89 400.69 515.43 398.75 513.04C397.74 511.79 396.26 511.07 394.51 510.93C386.95 509.9 382.46 514.47 382.43 523.13V524.33C382.43 525.99 382.45 529.85 381.6 530.47C381.26 530.21 380.83 528.78 380.58 527.93C379.86 525.55 378.68 521.57 374.44 521.57C373.79 521.57 373.08 521.68 372.33 521.88C366.44 523.56 365.6 529.32 365.19 532.09L364.95 533.78C364.59 536.42 364.38 537.27 363.95 537.6C363.78 537.36 363.6 537.06 363.45 536.83C362.58 535.44 361.25 533.34 358.75 533.34C357.85 533.34 356.92 533.63 356 534.21C351.6 537.03 351.41 544.3 351.5 547.93C341.6 549.76 341.64 550.53 341.7 551.21C341.7 551.27 341.72 551.33 341.73 551.38C341.73 551.49 341.75 551.59 341.78 551.7C342.01 552.42 342.93 552.47 343.94 552.47C345.55 552.47 348.31 552.22 352.16 551.7C354.5 558.6 357.82 562.36 362.06 562.8C362.34 562.84 362.62 562.85 362.88 562.85C367.3 562.85 367.9 558.92 368.14 557.23C368.19 556.96 368.25 556.59 368.31 556.32H368.33C369.15 556.32 369.91 557.15 371.31 558.74C371.73 559.21 372.16 559.7 372.63 560.21L372.87 560.47C374.3 562.02 377.28 565.26 382.12 565.26C383.39 565.26 384.72 565.03 386.05 564.58C388.32 563.81 389.78 562.67 390.49 561.09C391.55 558.75 390.58 556.37 389.8 554.47C389.5 553.75 389 552.53 389.04 552.23C389.32 552.02 389.52 551.99 389.67 551.99C390.92 551.99 393.09 554.04 394.67 555.52C395.06 555.89 395.44 556.24 395.81 556.59C398.63 559.17 402 560.59 405.31 560.59C408.1 560.59 412.16 559.61 415.8 554.85C417.11 552.99 417.54 551.19 417.09 549.48C416.3 546.48 413.17 544.98 410.39 543.66C409.48 543.21 408.16 542.58 407.6 542.14C408.21 540.8 409.32 540.01 412.31 540.01C412.7 540.01 413.1 540.03 413.5 540.04C418.98 540.43 423.5 538.15 425.67 534.09C427.72 530.28 427.31 525.58 424.61 521.5C421.9 517.46 418.03 515.14 413.96 515.14L413.98 515.15ZM421.74 531.99C420.5 534.3 417.95 535.63 414.71 535.63C414.43 535.63 414.14 535.61 413.81 535.59C413.3 535.55 412.8 535.53 412.32 535.53C410.58 535.53 405.28 535.53 403.26 540.97C401.91 544.58 405.71 546.4 408.47 547.72C410.07 548.49 412.5 549.65 412.76 550.65C412.89 551.14 412.42 551.89 412.2 552.22C410.25 554.77 407.87 556.11 405.32 556.11C403.14 556.11 400.85 555.1 398.85 553.29C398.49 552.96 398.13 552.62 397.76 552.28C395.29 549.94 392.72 547.52 389.69 547.52C388.5 547.52 387.38 547.91 386.35 548.67C383.47 550.87 384.84 554.21 385.67 556.21C386.12 557.32 386.68 558.69 386.43 559.27C386.26 559.63 385.59 560.05 384.63 560.38C383.76 560.67 382.91 560.83 382.14 560.83C379.28 560.83 377.41 558.81 376.19 557.48L375.92 557.18C375.47 556.71 375.07 556.25 374.68 555.82C372.89 553.79 371.21 551.89 368.35 551.89C367.87 551.89 367.38 551.95 366.9 552.06C364.34 552.59 363.95 555.13 363.73 556.62C363.64 557.16 363.5 558.17 363.31 558.37C363.31 558.37 363.02 558.46 362.54 558.41C360.97 558.24 358.73 556.8 356.68 551.11C357.81 550.94 358.99 550.76 360.25 550.56C379.4 547.18 406.49 534.28 406.97 532.87C407 532.76 407.02 532.66 407 532.55C407 532.46 406.97 532.39 406.94 532.32C406.9 532.25 406.86 532.18 406.81 532.12C406.67 531.96 406.47 531.88 406.26 531.88C406.05 531.88 406.05 531.88 403.89 532.73C397.01 535.44 376.05 543.73 359.51 546.63C358.24 546.83 357.09 547.02 356.01 547.2C355.98 540.68 357.49 538.66 358.44 538.04C358.57 537.96 358.66 537.91 358.7 537.88C358.98 538.11 359.42 538.82 359.69 539.26C360.59 540.69 361.83 542.78 364.44 542.23C368.47 541.33 368.96 537.82 369.43 534.43L369.67 532.78C370.12 529.79 370.75 527.04 373.6 526.23C374.93 525.86 375.32 525.87 376.33 529.26C377.02 531.56 377.96 534.7 381.23 534.96C382.73 535.09 383.97 534.62 384.94 533.65C387 531.59 386.98 527.75 386.96 524.35V523.19C387 515.31 391 515.31 392.5 515.31C392.96 515.31 393.44 515.35 394.05 515.44C394.99 515.52 395.23 515.81 395.31 515.91C396.05 516.82 395.72 519.49 395.48 521.43C395.09 524.54 394.66 528.05 397.62 529.26C398.54 529.64 399.45 529.83 400.33 529.83C404.1 529.83 406.36 526.49 407.71 524.01C409.27 521.22 411.5 519.67 414.01 519.67C416.52 519.67 419.07 521.27 420.91 524.06C422.69 526.72 423 529.7 421.76 532.02L421.74 531.99Z" fill="#004791"/>
<path d="M492.21 475.38C491.41 475.38 490.58 475.43 489.76 475.47C488.44 475.53 487.11 475.55 486.64 475.47C486.53 474.17 487.06 472.89 491.05 471.1C495.61 468.71 498.34 464.62 498.32 460.15C498.3 455.87 495.78 452.01 491.54 449.83C486.15 447.05 480.21 447.64 476.83 451.19C474.7 453.42 473.68 456.56 473.84 460.07C473.78 464.04 472.55 464.62 471.75 464.78C471.35 464.24 470.82 462.87 470.44 461.92C469.2 458.78 467.51 454.47 463.2 454.47C462.34 454.47 461.41 454.67 460.52 455.04C457.48 456.22 455.46 458.1 454.52 460.62C453.39 463.63 453.92 467.24 456.1 471.41L456.52 472.17C457.19 473.36 459.16 476.9 458.69 477.91C458.23 477.68 457.36 476.83 456.82 476.31C455.36 474.89 453.55 473.13 451.15 473.13C449.62 473.13 448.18 473.87 446.98 475.19C442.6 479.48 444.68 484.98 445.57 487.33L446.2 489.01C447.03 491.21 447.25 492.05 447.12 492.54C446.91 492.43 446.66 492.3 446.47 492.2C445.47 491.68 444.24 491.02 442.84 491.02C441.68 491.02 440.05 491.47 438.9 493.54C436.04 498.43 440.35 505.6 441.93 508.17C439.38 510.7 439.45 510.97 439.58 511.4C439.62 511.51 439.69 511.66 439.84 511.78C439.9 511.89 439.97 511.98 440.04 512.04C440.18 512.15 440.54 512.25 440.72 512.25C441.36 512.25 442.51 511.68 444.1 510.57C446.26 512.51 450.42 515.79 454.79 515.79C455.81 515.79 456.8 515.61 457.77 515.23C462.58 513.23 460.93 509 460.31 507.42C460.19 507.14 460.06 506.77 459.98 506.5C460.24 506.33 460.44 506.32 460.64 506.32C461.35 506.32 462.44 506.71 463.71 507.15C464.22 507.33 464.76 507.54 465.35 507.72L465.76 507.85C467.02 508.27 468.91 508.9 471.14 508.9C474.25 508.9 476.94 507.67 479.24 505.15C480.73 503.35 481.37 501.63 481.19 499.93C480.91 497.41 478.96 495.85 477.39 494.6C476.78 494.11 475.76 493.31 475.68 492.92C475.78 492.64 475.91 492.31 477.07 492.31C478.36 492.31 480.1 492.77 481.79 493.2C482.39 493.37 482.98 493.51 483.5 493.64C484.88 494 486.24 494.18 487.54 494.18C494.03 494.18 498.7 489.75 499.75 482.58C500.03 480.46 499.61 478.76 498.51 477.5C496.87 475.65 494.27 475.4 492.2 475.4L492.21 475.38ZM495.31 481.96C494.43 488.03 490.55 490.84 484.6 489.29C484.06 489.16 483.51 489.01 482.94 488.87C480.99 488.36 478.97 487.83 477.1 487.83C473.38 487.83 472 490.03 471.51 491.32C470.23 494.62 472.87 496.73 474.63 498.1C475.53 498.84 476.68 499.74 476.76 500.4C476.8 500.82 476.46 501.52 475.89 502.21C474.54 503.69 472.99 504.41 471.17 504.41C469.67 504.41 468.25 503.94 467.21 503.59L466.77 503.45C466.23 503.27 465.72 503.08 465.24 502.92C463.59 502.33 462.15 501.82 460.68 501.82C459.13 501.82 457.73 502.4 456.58 503.52C454.7 505.27 455.62 507.63 456.17 509.04C456.36 509.54 456.73 510.5 456.68 510.74C456.65 510.79 456.49 510.92 456.14 511.08C454.09 511.87 451.25 510.73 447.78 507.79C449.83 506.11 452.28 503.97 455.15 501.35C469.53 488.54 486.02 463.38 485.76 461.92C485.71 461.67 485.53 461.43 485.28 461.35C485.19 461.32 485.11 461.3 485.01 461.3C484.743 461.3 484.163 461.89 483.27 463.07C471.3 478.97 460.93 490.85 452.42 498.41C449.38 501.2 447.08 503.33 445.3 505C441.78 498.96 442.37 496.58 442.85 495.76C442.92 495.64 442.98 495.56 442.99 495.52C443.33 495.6 444 495.95 444.43 496.18C445.36 496.67 446.41 497.23 447.58 497.23C448.46 497.23 449.27 496.92 449.95 496.29C452.76 493.58 451.58 490.46 450.44 487.44L449.81 485.76C448.8 483.05 448.05 480.47 450.26 478.31C450.72 477.81 451.05 477.63 451.2 477.63C451.78 477.63 452.97 478.79 453.75 479.54C455.16 480.91 456.76 482.46 458.85 482.46C459.52 482.46 460.16 482.29 460.79 481.97C461.99 481.36 462.8 480.37 463.17 479.15C464.01 476.3 462.14 472.95 460.49 470L460.1 469.31C458.58 466.4 458.12 463.94 458.76 462.21C459.25 460.92 460.36 459.95 462.23 459.22C462.62 459.05 462.96 458.98 463.23 458.98C464.48 458.98 465.49 461.54 466.29 463.59C467.35 466.29 468.55 469.34 471.51 469.34L471.94 469.31C476.09 468.77 478.27 465.68 478.35 460.03C478.22 457.61 478.84 455.64 480.1 454.31C482.13 452.18 485.87 451.97 489.49 453.85C492.26 455.27 493.84 457.59 493.85 460.2C493.87 462.95 492.04 465.57 489.11 467.1C485.47 468.72 481.41 471.28 482.29 476.56C482.57 478.87 484.44 480.05 487.81 480.05C488.5 480.05 489.24 480.01 490.01 479.97C490.74 479.93 491.49 479.89 492.23 479.89C494.35 479.89 494.97 480.26 495.16 480.47C495.34 480.7 495.4 481.26 495.31 481.97V481.96Z" fill="#004791"/>
<path d="M532.55 374.84C530.14 374.84 527.8 376.33 525.74 377.65C524.91 378.18 523.71 378.94 523.04 379.18C522.37 378.05 522.1 376.48 524.38 373.24C527.28 369.01 527.81 364.17 525.78 360.3C523.84 356.6 519.87 354.41 515.15 354.41L514.61 354.43C509.59 354.6 505.39 356.91 503.37 360.59C501.5 364.02 501.74 368.2 504.03 372.06C506.05 375.57 505.53 376.55 504.79 377.15C504.18 376.87 503.03 375.95 502.25 375.31C500.11 373.59 497.69 371.64 494.95 371.64C493.68 371.64 491.81 372.1 490.31 374.13C488.08 376.75 487.16 379.44 487.56 382.15C488.05 385.28 490.3 388.13 494.26 390.58L495.24 391.18C496.61 392.01 499.82 393.95 499.96 394.93C499.96 394.93 499.88 394.96 499.7 394.96C499.12 394.96 498.21 394.72 497.33 394.49C496.17 394.18 494.84 393.82 493.54 393.82C490.79 393.82 488.83 395.42 488.02 398.31C486.41 404.12 490.83 407.78 492.95 409.55L494.22 410.63C496.14 412.22 496.75 412.83 496.85 413.33C496.57 413.35 496.26 413.35 496.01 413.35C494.56 413.37 492.57 413.4 491.2 414.83C490.37 415.69 489.96 416.86 489.99 418.32C490.12 423.67 496.61 427.67 499.55 429.33C498.6 432.78 498.86 433.19 499.05 433.46L499.75 433.82L499.83 433.8L500.03 433.94C500.44 433.94 500.97 433.92 502.58 430.51C504 430.85 506.29 431.32 508.71 431.32C512.51 431.32 515.33 430.17 517.07 427.9C520.18 423.82 516.79 420.96 515.5 419.89C515.3 419.72 515.04 419.49 514.84 419.31C515.21 418.73 515.96 418.51 518.34 418.1C518.95 417.99 519.58 417.89 520.25 417.75L520.6 417.67C523.16 417.17 529.18 415.99 530.8 408.72C531.3 406.42 531.08 404.61 530.12 403.2C528.69 401.09 526.2 400.7 524.2 400.38C523.44 400.25 522.19 400.06 521.97 399.91C521.85 398.6 524.33 397.83 527.58 396.95C528.08 396.81 528.58 396.67 529.07 396.53C533 395.4 536.05 393.05 537.68 389.89C539.29 386.72 539.4 382.96 537.92 378.89C536.46 375.56 534.17 374.85 532.51 374.85L532.55 374.84ZM500.43 432.91C500.43 432.91 500.51 432.82 500.55 432.77C500.57 432.8 500.62 432.83 500.64 432.88L500.44 432.91H500.43ZM533.71 387.85C532.66 389.9 530.59 391.45 527.86 392.23C527.4 392.36 526.92 392.49 526.44 392.62C522.5 393.69 517.09 395.15 517.54 400.33C517.91 403.89 521.42 404.45 523.52 404.8C524.61 404.97 526.1 405.22 526.45 405.71C526.53 405.84 526.76 406.32 526.45 407.75C525.55 411.83 522.64 412.71 519.75 413.28L519.38 413.35C518.75 413.48 518.16 413.58 517.59 413.69C514.65 414.19 511.6 414.73 510.41 418.3C509.55 420.75 511.47 422.36 512.62 423.33C513.03 423.68 513.78 424.31 513.85 424.56C513.85 424.56 513.83 424.76 513.5 425.19C512.67 426.29 511.05 426.85 508.72 426.85C507.15 426.85 505.59 426.59 504.39 426.34C505.32 424.06 506.44 421.12 507.84 417.27C514.5 398.1 516.05 368.94 515.33 367.94L514.72 367.63C514.233 367.63 513.767 369.183 513.32 372.29C512.08 380.98 509.18 401.29 504.04 416C502.67 419.76 501.66 422.66 500.91 424.95C495.42 421.62 494.51 419.34 494.47 418.23C494.47 418.12 494.47 418.03 494.47 417.97C494.83 417.88 495.59 417.86 496.06 417.86C497.59 417.84 500.16 417.8 501.02 415.37C502.29 411.54 499.64 409.33 497.08 407.2L495.81 406.13C493.54 404.25 491.57 402.32 492.35 399.53C492.68 398.33 493.04 398.33 493.53 398.33C494.25 398.33 495.24 398.59 496.18 398.83C497.34 399.14 498.52 399.46 499.69 399.46C501.75 399.46 502.9 398.45 503.48 397.65C504.31 396.54 504.61 395.28 504.35 394.02C503.79 391.12 500.46 389.12 497.54 387.34L496.6 386.78C493.85 385.06 492.25 383.23 491.97 381.46C491.77 380.11 492.34 378.63 493.78 376.93C494.38 376.13 494.76 376.13 494.93 376.13C496.07 376.13 498 377.68 499.4 378.81C501.34 380.37 503.01 381.72 504.92 381.72C505.7 381.72 506.44 381.48 507 381.06C512.27 377.48 508.97 371.71 507.87 369.81C506.38 367.28 506.17 364.77 507.28 362.75C508.52 360.47 511.32 359.03 514.73 358.92L515.12 358.9C518.18 358.9 520.6 360.17 521.78 362.4C523.04 364.8 522.63 367.82 520.66 370.69C519.51 372.31 516.05 377.24 519.72 382.31C520.45 383.24 521.51 383.77 522.7 383.77C524.49 383.77 526.25 382.63 528.12 381.43C529.6 380.49 531.42 379.32 532.52 379.32C532.72 379.32 533.21 379.32 533.76 380.55C534.77 383.29 534.75 385.82 533.7 387.84L533.71 387.85Z" fill="#004791"/>
<path d="M502.88 261.41C499.3 257.53 493.23 256.89 488.14 259.99C483.84 262.61 481.33 266.67 481.39 270.84C481.46 274.73 483.76 278.26 487.72 280.51C491.02 282.38 490.91 283.81 490.62 284.62C490.56 284.62 490.47 284.62 490.38 284.62C489.64 284.62 488.6 284.44 487.51 284.24C486.14 284 484.61 283.73 483.13 283.73C478.07 283.73 476.78 287.13 476.46 289.14C475.92 292.42 476.51 295.17 478.21 297.28C480.18 299.75 483.49 301.14 488.07 301.42L488.94 301.45C490.83 301.52 494.35 301.65 495.09 302.46C495.09 302.46 495.11 302.48 495.11 302.51C494.71 302.79 493.5 303.11 492.74 303.3C490.24 303.94 485.03 305.27 486.42 311.17C487.8 317.07 493.65 318.16 496.14 318.63L497.91 318.98C500.22 319.42 501.04 319.66 501.38 320.04C501.17 320.18 500.89 320.33 500.69 320.45C499.45 321.17 497.72 322.17 497.24 324.08C496.94 325.24 497.17 326.48 497.92 327.75C500.8 332.42 508.5 332.69 511.7 332.71C512.49 336.04 512.82 336.05 513.32 336.05C513.41 336.05 513.49 336.03 513.56 336.02C513.76 336 514.19 335.85 514.35 335.65C514.55 335.43 514.93 334.93 514.82 332.2C521.85 330.13 525.71 326.99 526.21 322.87C526.89 317.81 522.54 316.98 520.89 316.67C520.62 316.62 520.28 316.55 520 316.48C520.03 315.78 520.6 315.21 522.55 313.64C522.99 313.29 523.45 312.91 523.96 312.49L524.21 312.28C526.22 310.59 530.93 306.64 528.86 299.46C527.62 295.27 525.09 294.39 523.18 294.39C521.72 294.39 520.32 294.9 519.08 295.36C518.26 295.66 517.34 295.98 516.71 295.91C515.97 295 517.79 293.11 520.05 290.91C520.5 290.48 520.93 290.05 521.32 289.66C524.33 286.72 525.88 283.14 525.73 279.58C525.56 276.02 523.72 272.71 520.4 270.01C519.03 268.9 517.63 268.34 516.27 268.34C512.66 268.34 510.69 271.94 509.13 274.82C508.65 275.69 507.98 276.94 507.5 277.49C506.19 276.84 505.64 275.59 505.97 271.53C506.29 267.52 505.18 263.92 502.85 261.38L502.88 261.41ZM506.15 281.8C506.64 282.02 507.15 282.13 507.67 282.13C510.28 282.13 511.71 279.51 513.08 276.98C513.92 275.43 515.34 272.83 516.29 272.83C516.43 272.83 516.86 272.89 517.6 273.5C519.91 275.37 521.18 277.55 521.27 279.79C521.38 282.06 520.29 284.42 518.18 286.49C517.79 286.88 517.37 287.28 516.95 287.69C514.14 290.42 509.88 294.54 513.18 298.66C514.06 299.85 515.33 300.47 516.85 300.47C518.14 300.47 519.4 300.01 520.62 299.57C521.55 299.23 522.52 298.88 523.19 298.88C523.46 298.88 524.02 298.88 524.56 300.72C525.72 304.75 523.61 306.94 521.33 308.86L521.07 309.09C520.61 309.48 520.17 309.83 519.75 310.17C517.37 312.08 514.93 314.05 515.65 317.82C516.13 320.35 518.58 320.82 520.06 321.1C520.58 321.2 521.56 321.39 521.77 321.59C521.77 321.59 521.85 321.78 521.77 322.34C521.61 323.55 520.41 325.77 514.39 327.69C514.08 325.2 513.56 321.92 512.74 317.54C509.5 299 496.47 270.84 494.65 270.84C494.45 270.84 494.26 270.92 494.12 271.06C493.84 271.34 494.307 273.017 495.52 276.09C498.71 284.19 506.17 303.17 508.8 318.32C509.6 322.57 510.22 325.77 510.72 328.23C504.32 328.01 502.33 326.42 501.73 325.45C501.68 325.36 501.64 325.28 501.62 325.22C501.88 324.97 502.51 324.61 502.91 324.38C504.25 323.61 506.47 322.33 505.99 319.79C505.24 315.87 501.94 315.23 498.74 314.62L496.94 314.27C494.05 313.73 491.41 313.01 490.75 310.19C490.45 308.92 490.36 308.57 493.81 307.69C495.99 307.13 499.27 306.29 499.55 302.92C499.61 301.6 499.2 300.4 498.35 299.47C496.34 297.27 492.47 297.13 489.06 297.01L488.24 296.98C485.07 296.79 482.79 295.94 481.65 294.52C480.78 293.43 480.5 291.88 480.83 289.89C481.01 288.77 481.29 288.25 483.07 288.25C484.16 288.25 485.44 288.48 486.67 288.7C487.97 288.93 489.19 289.15 490.32 289.15C492.84 289.15 493.96 287.96 494.5 286.86C495.49 284.58 496.21 280.23 489.86 276.64C487.3 275.18 485.85 273.11 485.82 270.81C485.77 268.24 487.5 265.64 490.41 263.85C493.68 261.86 497.36 262.14 499.51 264.48C500.99 266.09 501.68 268.48 501.45 271.21C501.24 274.17 500.79 279.71 506.11 281.8H506.15Z" fill="#004791"/>
<path d="M418.74 190.26C416.27 194.64 416.01 199.22 418.04 202.83C419.95 206.23 423.69 208.27 428.35 208.41C432.28 208.43 432.82 209.63 432.94 210.54C432.4 210.9 431.02 211.38 430.07 211.7C427.28 212.66 424.15 213.75 422.85 216.47C422.16 217.93 422.14 219.58 422.77 221.29C424.97 228.12 431.01 230.24 438.92 226.46L439.71 226.06C441.55 225.12 443.86 223.95 445.19 223.95C445.43 223.95 445.51 223.97 445.56 224.04C445.36 224.48 444.43 225.35 443.88 225.9C442.39 227.33 440.51 229.1 440.45 231.57C440.42 233.05 441.05 234.48 442.27 235.76C444.01 237.72 446.25 238.71 448.93 238.71C451.08 238.71 453.04 238.05 454.35 237.61L456.21 236.99C457.74 236.47 459.04 235.98 459.69 236.18C459.56 236.42 459.4 236.69 459.27 236.91C458.52 238.15 457.51 239.86 458.01 241.78C458.3 242.94 459.1 243.9 460.37 244.65C461.52 245.3 462.86 245.63 464.37 245.63C467.9 245.63 471.66 243.92 474.43 242.43C476.55 244.73 476.9 244.76 477.22 244.76C477.42 244.79 477.65 244.7 477.83 244.53L478.04 244.5L478.24 244.08C478.4 243.76 478.63 243.22 477 240.58C482.32 235.26 484.23 230.54 482.66 226.58C481.48 223.55 479.25 223.09 478.04 223.09C476.91 223.09 475.9 223.43 475 223.74C474.76 223.83 474.44 223.93 474.18 224.01C473.84 223.33 474.05 222.56 474.98 220.21C475.18 219.72 475.38 219.21 475.58 218.66L475.71 218.34C476.64 215.89 478.83 210.13 473.55 204.81C471.92 203.28 470.35 202.54 468.73 202.54C466.05 202.54 464.34 204.52 462.97 206.12C462.46 206.72 461.6 207.71 461.21 207.76C460.12 207.3 460.79 204.75 461.71 201.71C461.89 201.1 462.08 200.52 462.21 199.99C463.39 196.06 463.08 192.38 461.29 189.36C459.45 186.27 456.21 184.17 451.86 183.26C449.05 182.77 447.19 183.8 446.32 184.67C444.29 186.71 444.32 190.04 444.35 192.96C444.35 193.95 444.37 195.38 444.22 196.09C442.81 196.09 441.61 195.34 439.96 191.76C437.83 186.79 433.75 183.81 429.06 183.81C424.91 183.79 421.05 186.21 418.75 190.27L418.74 190.26ZM422.64 192.47C424.13 189.84 426.54 188.26 429.06 188.26C431.9 188.26 434.43 190.22 435.87 193.54C437.45 197 439.69 200.54 444.25 200.54C444.53 200.54 444.83 200.52 445.12 200.5C448.9 200.15 448.87 195.96 448.84 192.89C448.82 191.14 448.81 188.51 449.52 187.79C449.58 187.73 449.73 187.57 450.34 187.57C450.58 187.57 450.84 187.59 451.05 187.63C454.06 188.25 456.28 189.63 457.45 191.61C458.59 193.52 458.76 195.95 457.94 198.69C457.78 199.23 457.63 199.78 457.45 200.34C456.3 204.1 454.58 209.78 459.44 211.81C460.05 212.08 460.66 212.21 461.28 212.21C463.58 212.21 465.13 210.41 466.37 208.97C467.15 208.07 468.11 206.95 468.74 206.95C468.92 206.95 469.48 207.05 470.43 207.95C473.38 210.92 472.59 213.9 471.53 216.69L471.4 217.04C471.21 217.56 471.01 218.05 470.84 218.51C469.74 221.3 468.61 224.2 471.01 227.22C471.5 227.81 472.39 228.52 473.83 228.52C474.75 228.52 475.62 228.23 476.46 227.95C477.03 227.76 477.68 227.54 478.15 227.54C478.15 227.54 478.32 227.67 478.52 228.19C478.99 229.37 479.02 232.02 474.44 236.8C472.95 234.76 470.91 232.13 468.12 228.71C457.51 215.78 439.21 202.84 433.16 198.57C430.53 196.48 430.37 196.48 430.08 196.48H429.77L429.31 196.95L429.33 197.3C429.357 197.58 430.277 198.36 432.09 199.64L432.27 199.77C439.26 205.36 455.1 219.12 465.06 231.3C467.74 234.59 469.8 237.07 471.39 238.94C469.49 239.92 466.67 241.13 464.36 241.13C463.62 241.13 463.02 241 462.59 240.76C462.48 240.7 462.42 240.65 462.37 240.61C462.47 240.26 462.86 239.61 463.11 239.2C463.89 237.89 465.21 235.68 463.6 233.72C462.51 232.35 461.1 231.65 459.38 231.65C457.93 231.65 456.46 232.15 454.75 232.73L452.89 233.35C451.8 233.71 450.31 234.22 448.89 234.22C447.47 234.22 446.46 233.76 445.54 232.71C445.13 232.29 444.89 231.9 444.9 231.67C444.9 231.06 446.12 229.91 446.94 229.14C448.55 227.59 451.02 225.25 449.63 222.2C448.79 220.43 447.18 219.46 445.16 219.46C442.75 219.46 440.05 220.84 437.65 222.06L436.93 222.42C434.96 223.36 433.15 223.85 431.69 223.85C430.23 223.85 428.15 223.44 426.98 219.82C426.64 218.88 426.81 218.51 426.88 218.4C427.37 217.37 429.75 216.54 431.51 215.95C434.23 215.01 437.61 213.85 437.43 210.62C437.23 207.58 435.48 203.96 428.41 203.93C425.37 203.84 423.08 202.66 421.93 200.63C420.69 198.42 420.95 195.45 422.63 192.47H422.64Z" fill="#004791"/>
<path d="M210.69 407.45L220.76 381.01H215.06L209.77 394.74C209.01 396.78 208.24 399.16 207.58 401.55H207.52C206.87 399.1 206.15 396.77 205.33 394.63L200.19 381H194.13L204.26 407.44H210.67L210.69 407.45Z" fill="#004791"/>
<path d="M243.34 403.06H233.27V395.95H242.88V391.77H233.27V385.31H243.34V381H227.77V407.45H243.34V403.06Z" fill="#004791"/>
<path d="M263.02 407.45V385.67H270.35V381H250.2V385.67H257.53V407.45H263.02Z" fill="#004791"/>
<path d="M293.79 385.31V381H278.23V407.45H293.79V403.06H283.73V395.95H293.34V391.77H283.73V385.31H293.79Z" fill="#004791"/>
<path d="M320.39 395.08L311.48 381H304.16V407.45H309.5L309.45 393.61C309.45 391.17 309.4 389.54 309.29 388.07H309.34C310.05 389.64 311.02 391.52 312.04 393.11L321.14 407.45H328.46V381.01H323.13L323.18 392.65C323.18 396.06 323.24 398.6 323.33 400.27H323.29C322.43 398.44 321.42 396.7 320.39 395.08Z" fill="#004791"/>
<path d="M344.81 403.37C342.58 403.37 340.49 402.95 338.96 402.36L338.76 407.29C340.24 407.64 342.37 407.95 344.2 407.95C350.97 407.95 355.65 404.44 355.65 399.04C355.65 390.75 343.85 392.73 343.85 388.21C343.85 386.22 345.33 384.9 348.67 384.9C350.2 384.9 352.29 385.2 353.72 385.66L353.92 380.99C352.44 380.73 350.41 380.53 348.88 380.53C341.9 380.53 338.04 383.83 338.04 388.81C338.04 397.41 349.68 394.97 349.68 399.65C349.68 402.24 347.3 403.36 344.81 403.36V403.37Z" fill="#004791"/>
<path d="M365.25 381V407.45H370.75V395.02L380.56 407.45H387.83L376.45 393.71L387.28 381H380.51L370.75 392.78V381H365.25Z" fill="#004791"/>
<path d="M399.6 402.29H410.63L412.51 407.44H418.62L408.64 380.99H402.19L392.18 407.45H397.66L399.6 402.3V402.29ZM403.76 390.85C404.27 389.47 404.77 388 405.1 386.74H405.14C405.5 387.96 406.01 389.53 406.52 390.91L409.27 398.33H400.92L403.76 390.86V390.85Z" fill="#004791"/>
<path d="M435.21 380.84C432.09 380.84 428.81 380.94 426.56 381V407.45H432.06V398.74C432.72 398.8 433.74 398.85 434.4 398.85C441.12 398.85 445.74 395.19 445.74 389.39C445.74 384.04 441.94 380.84 435.22 380.84H435.21ZM434.4 394.47C433.68 394.47 432.66 394.43 432.06 394.27V385.32C432.77 385.27 433.74 385.27 434.75 385.27C438.16 385.27 439.89 387.14 439.89 389.74C439.89 392.85 437.81 394.47 434.4 394.47Z" fill="#004791"/>
<path d="M210.77 452.03C218.35 452.03 224.65 446.84 224.65 438.1C224.65 429.36 219.31 424.68 211.63 424.68C203.95 424.68 197.89 429.91 197.89 438.61C197.89 446.52 202.17 452.03 210.77 452.03ZM211.28 429.45C215.81 429.45 218.75 432.56 218.75 438.45C218.75 444.34 215.29 447.2 211.07 447.2C205.88 447.2 203.75 443.23 203.75 438.2C203.75 432.5 207.25 429.45 211.28 429.45Z" fill="#004791"/>
<path d="M244.03 451.92C246.63 451.92 248.96 451.51 251.16 450.76L250.7 445.87C249.13 446.64 247.14 447.1 245.16 447.1C239.91 447.1 236.87 444.09 236.87 438.41C236.87 433.17 239.66 429.4 244.86 429.4C246.69 429.4 248.57 429.71 250.45 430.32L250.95 425.49C249.17 424.99 246.98 424.77 245.25 424.77C235.33 424.77 231.01 431.43 231.01 438.91C231.01 446.94 235.39 451.92 244.03 451.92Z" fill="#004791"/>
<path d="M283.25 451.56V425.12H277.76V435.64H265.29V425.12H259.8V451.56H265.29V440.37H277.76V451.56H283.25Z" fill="#004791"/>
<path d="M312.26 439.15L322.08 451.56H329.35L317.95 437.83L328.78 425.12H322.02L312.26 436.92V425.12H306.77V451.56H312.26V439.15Z" fill="#004791"/>
<path d="M345.88 452.03C353.46 452.03 359.76 446.84 359.76 438.1C359.76 429.36 354.42 424.68 346.75 424.68C339.08 424.68 333.01 429.91 333.01 438.61C333.01 446.52 337.27 452.03 345.88 452.03ZM346.38 429.45C350.9 429.45 353.85 432.56 353.85 438.45C353.85 444.34 350.4 447.2 346.16 447.2C340.98 447.2 338.84 443.23 338.84 438.2C338.84 432.5 342.36 429.45 346.38 429.45Z" fill="#004791"/>
<path d="M375.76 437.23L384.86 451.57H392.18V425.13H386.84L386.9 436.77C386.9 440.18 386.95 442.72 387.05 444.39H387C386.13 442.56 385.12 440.83 384.1 439.21L375.19 425.12H367.86V451.56H373.21L373.16 437.73C373.16 435.28 373.1 433.65 372.99 432.18H373.05C373.76 433.75 374.73 435.64 375.74 437.22L375.76 437.23Z" fill="#004791"/>
<path d="M408.26 447.49C406.03 447.49 403.94 447.09 402.42 446.48L402.22 451.41C403.69 451.77 405.83 452.09 407.66 452.09C414.42 452.09 419.1 448.57 419.1 443.18C419.1 434.9 407.31 436.87 407.31 432.35C407.31 430.37 408.78 429.05 412.13 429.05C413.66 429.05 415.74 429.36 417.17 429.82L417.37 425.13C415.89 424.88 413.87 424.67 412.33 424.67C405.37 424.67 401.5 427.97 401.5 432.96C401.5 441.55 413.14 439.1 413.14 443.79C413.14 446.39 410.76 447.5 408.26 447.5V447.49Z" fill="#004791"/>
<path d="M437.24 451.56V429.8H444.56V425.12H424.42V429.8H431.74V451.56H437.24Z" fill="#004791"/>
<path d="M232.23 350.18L231.58 350.09C217.69 348.37 217.61 345.62 217.28 334.08V314.03L240.48 339.27C249.32 348.96 254.2 354.31 267.07 354.31C269.47 354.31 272.11 354.14 275.17 353.76L275.82 353.69L275.87 350.58L275.14 350.55C267.41 350.21 263.18 345.82 254.78 337.1C253.62 335.89 252.39 334.61 251.08 333.28L228.47 308.12L237.57 298.81L239.51 296.77C247.16 288.74 255.83 279.63 267.39 278.41L268.06 278.34V275.24H237.44V278.34L238.11 278.41C241.14 278.73 242.77 279.43 243.23 280.64C244.09 282.87 241.4 287.46 235.02 294.64L217.26 313.59V294.53C217.6 282.95 217.68 280.19 228.54 278.49L229.18 278.39V275.32H191.93V278.41L192.58 278.5C205.46 280.22 205.53 282.97 205.87 294.51V334.06C205.53 345.64 205.45 348.38 192.58 350.1L191.93 350.19V353.28H232.21V350.18H232.23Z" fill="#004791"/>
<path d="M333.89 350.17L333.23 350.09C318.7 348.36 318.15 345.06 318.15 331.38V280.18H324.15C337.43 280.18 342.85 284.29 346.47 297.14L346.67 297.81L349.56 297.18L348.13 275.2H276.75L275.36 297.18L278.25 297.81L278.45 297.14C282.07 284.31 287.49 280.18 300.78 280.18H306.78V331.38C306.78 345.06 306.23 348.35 291.7 350.09L291.05 350.17V353.28H333.91V350.17H333.89Z" fill="#004791"/>
<path d="M448.48 278.49L449.13 278.4V275.31H408.85V278.39L409.48 278.48C423.8 280.56 423.8 282.41 423.8 294.49V310.04H383.16V294.49C383.16 282.41 383.16 280.56 397.46 278.48L398.11 278.39V275.31H357.84V278.4L358.49 278.49C371.37 280.21 371.44 282.95 371.78 294.5V334.06C371.43 345.64 371.36 348.37 358.49 350.09L357.84 350.18V353.27H398.11V350.19L397.46 350.09C383.16 348.01 383.16 346.16 383.16 334.08V316.28H423.8V334.08C423.8 346.16 423.8 348.01 409.48 350.09L408.85 350.19V353.27H449.13V350.18L448.48 350.09C435.6 348.37 435.53 345.63 435.2 334.08V294.52C435.53 282.95 435.6 280.2 448.48 278.49Z" fill="#004791"/>
<path d="M225.76 173.25C225.48 173.81 223.66 177.66 226.35 181.79C229.28 186.28 234.27 185.51 234.44 185.49C237.89 189.84 243.63 195.03 248.33 193.69C248.33 193.69 277.93 179.97 318.97 179.91H319C360.07 179.97 389.67 193.69 389.67 193.69C394.37 195.03 400.1 189.84 403.55 185.49C403.72 185.51 408.7 186.28 411.64 181.79C414.34 177.67 412.5 173.81 412.23 173.25C414.68 169.28 418.46 165.74 418.46 165.74C420.21 164.13 421.29 161.84 421.29 159.29C421.29 154.44 417.34 150.47 412.49 150.47C412.09 150.47 411.71 150.5 411.34 150.56C411.28 150.32 411.19 150.06 411.13 149.82C413.51 148.59 415.16 146.13 415.16 143.28C415.16 139.2 411.86 135.9 407.78 135.9C406.41 135.9 405.16 136.29 404.06 136.94C403.85 136.7 403.64 136.45 403.42 136.2C404.57 135.1 405.28 133.56 405.28 131.85C405.28 128.49 402.55 125.77 399.19 125.77C397.13 125.77 395.32 126.8 394.23 128.38C393.88 128.15 393.52 127.92 393.17 127.7C393.85 126.78 394.26 125.65 394.26 124.43C394.26 121.38 391.77 118.89 388.71 118.89C386.31 118.89 384.3 120.43 383.53 122.56C382.95 122.31 382.37 122.06 381.78 121.82C382.23 121.07 382.5 120.21 382.5 119.28C382.5 116.51 380.25 114.26 377.47 114.26C374.98 114.26 372.91 116.1 372.53 118.51C372.16 118.39 371.8 118.27 371.4 118.16C370.57 115.22 367.9 113.05 364.68 113.05C363.97 113.05 363.28 113.18 362.65 113.38C362.39 113.17 362.14 112.96 361.87 112.77C361.87 112.66 361.89 112.56 361.89 112.44C361.89 109.18 359.23 106.53 355.97 106.53C354.68 106.53 353.51 106.95 352.54 107.66C352.31 107.57 352.08 107.48 351.85 107.39C351.85 107.34 351.87 107.3 351.87 107.25C351.87 104.3 349.47 101.91 346.52 101.91C344.52 101.91 342.79 103.04 341.88 104.67C341.47 104.59 341.05 104.51 340.63 104.44C340.63 104.38 340.65 104.31 340.65 104.25C340.65 101.57 338.46 99.38 335.78 99.38C333.45 99.38 331.49 101.03 331.03 103.23C330.56 103.2 330.08 103.16 329.6 103.13C330.18 101.75 330.51 100.23 330.51 98.64C330.51 94.22 328.02 90.38 324.34 88.44C324.34 88.44 322.99 87.74 321.04 87.35V78.55H325.98C326.15 78.35 326.48 77.68 326.48 76.48C326.48 75.28 326.15 74.63 325.98 74.43H321.04V69.5C320.84 69.33 320.16 69 318.97 69C317.78 69 317.11 69.32 316.9 69.5V74.43H311.98C311.81 74.63 311.48 75.3 311.48 76.48C311.48 77.66 311.81 78.35 311.98 78.55H316.9V87.35C315 87.73 313.65 88.43 313.65 88.43C309.98 90.37 307.48 94.2 307.48 98.63C307.48 100.22 307.81 101.74 308.4 103.12C307.92 103.15 307.43 103.18 306.97 103.22C306.51 101.02 304.55 99.37 302.23 99.37C299.54 99.37 297.35 101.56 297.35 104.24C297.35 104.3 297.37 104.37 297.37 104.43C296.94 104.51 296.52 104.58 296.11 104.66C295.21 103.02 293.47 101.9 291.48 101.9C288.53 101.9 286.12 104.29 286.12 107.24C286.12 107.29 286.14 107.33 286.14 107.38C285.91 107.47 285.68 107.56 285.45 107.65C284.48 106.95 283.31 106.52 282.02 106.52C278.75 106.52 276.1 109.17 276.1 112.43C276.1 112.54 276.1 112.64 276.12 112.76C275.86 112.96 275.6 113.16 275.35 113.37C274.7 113.17 274.02 113.04 273.31 113.04C270.11 113.04 267.43 115.21 266.59 118.15C266.2 118.27 265.85 118.39 265.46 118.5C265.09 116.09 263.02 114.25 260.52 114.25C257.75 114.25 255.5 116.51 255.5 119.27C255.5 120.21 255.77 121.07 256.22 121.81C255.63 122.05 255.04 122.3 254.47 122.55C253.71 120.42 251.68 118.88 249.29 118.88C246.23 118.88 243.74 121.36 243.74 124.42C243.74 125.65 244.15 126.77 244.83 127.69C244.48 127.92 244.12 128.15 243.78 128.37C242.69 126.8 240.86 125.76 238.81 125.76C235.45 125.76 232.72 128.49 232.72 131.84C232.72 133.55 233.44 135.1 234.58 136.2C234.36 136.44 234.16 136.69 233.94 136.93C232.85 136.28 231.58 135.89 230.21 135.89C226.15 135.89 222.84 139.19 222.84 143.27C222.84 146.13 224.48 148.58 226.87 149.81C226.8 150.05 226.71 150.31 226.65 150.55C226.28 150.5 225.89 150.47 225.5 150.47C220.65 150.47 216.69 154.43 216.69 159.28C216.69 161.83 217.78 164.12 219.52 165.73C219.55 165.73 223.32 169.27 225.77 173.25H225.76ZM233.38 182.43C230.39 182.43 227.97 180 227.97 177.01C227.97 175.88 228.32 174.83 228.91 173.97C229.88 172.52 231.52 171.57 233.39 171.57C235.26 171.57 236.9 172.52 237.87 173.96C238.47 174.83 238.81 175.88 238.81 177.01C238.81 180 236.39 182.43 233.39 182.43H233.38ZM318.97 164.7C316 164.7 313.6 162.29 313.6 159.32C313.6 156.35 316.01 153.95 318.97 153.95C321.93 153.95 324.37 156.36 324.37 159.32C324.37 162.29 321.95 164.7 318.97 164.7ZM318.99 122.76C321.95 122.76 324.36 125.15 324.36 128.1C324.36 131.05 321.95 133.44 318.99 133.44C316.03 133.44 313.65 131.04 313.65 128.1C313.65 125.14 316.03 122.76 318.99 122.76ZM314.81 116.83C314.81 114.53 316.67 112.66 318.98 112.66C321.29 112.66 323.17 114.52 323.17 116.83C323.17 119.14 321.3 121 318.98 121C316.68 121 314.81 119.14 314.81 116.83ZM318.96 135.53C322.63 135.53 325.6 138.49 325.6 142.15C325.6 143.82 324.97 145.35 323.95 146.52C322.57 145.47 320.83 144.85 318.97 144.85C317.11 144.85 315.37 145.48 314 146.53C312.97 145.37 312.35 143.83 312.35 142.16C312.35 138.49 315.32 135.54 318.97 135.54L318.96 135.53ZM404.58 182.43C401.59 182.43 399.17 180.01 399.17 177.02C399.17 175.56 399.75 174.23 400.69 173.26C401.67 172.22 403.06 171.58 404.59 171.58C406.93 171.58 408.91 173.06 409.65 175.12C409.88 175.71 410 176.36 410 177.02C410 180 407.57 182.43 404.58 182.43ZM412.47 153.46C415.68 153.46 418.29 156.07 418.29 159.28C418.29 161.39 416.24 163.95 414.44 165.06C412.91 163.26 410.65 162.1 408.09 162.1C407.87 162.1 407.65 162.12 407.42 162.14C406.93 161.29 406.63 160.32 406.63 159.28C406.63 156.07 409.25 153.46 412.46 153.46H412.47ZM407.77 138.88C410.19 138.88 412.15 140.85 412.15 143.27C412.15 145.69 410.18 147.66 407.77 147.66C405.36 147.66 403.36 145.69 403.36 143.27C403.36 140.85 405.35 138.88 407.77 138.88ZM399.18 128.75C400.9 128.75 402.29 130.13 402.29 131.85C402.29 133.57 400.9 134.93 399.18 134.93C397.46 134.93 396.09 133.55 396.09 131.85C396.09 130.13 397.48 128.75 399.18 128.75ZM388.7 121.87C390.11 121.87 391.25 123.01 391.25 124.41C391.25 125.81 390.1 126.96 388.7 126.96C387.3 126.96 386.16 125.81 386.16 124.41C386.16 123.01 387.3 121.87 388.7 121.87ZM377.46 117.24C378.59 117.24 379.49 118.15 379.49 119.27C379.49 120.39 378.59 121.3 377.46 121.3C376.33 121.3 375.43 120.39 375.43 119.27C375.43 118.15 376.34 117.24 377.46 117.24ZM370.84 123.34C387.81 128.75 396.62 136.96 400.65 145.16C403.92 152.67 403.36 154.43 403.63 159.2C403.72 160.87 404.13 161.99 404.46 162.97C400.58 165.09 400.12 168.08 400.05 168.27C399.89 168.17 399.74 168.06 399.57 167.94C398.14 166.78 396.33 166.07 394.35 166.08C388.17 166.14 384.34 172.18 386.84 178.02C387.45 179.42 390.89 184.5 397.63 182.06C398.03 182.6 398.48 183.1 398.99 183.53C397.05 187.33 392.5 189.13 388.43 187.54C384.38 185.96 381.54 182.63 380.41 178.75C377.4 181.43 373.2 182.72 368.95 181.88C364.39 180.99 361.4 176.55 362.29 171.99C362.37 171.57 362.78 169.91 362.97 169.29C363.57 172.47 366.03 175.14 369.39 175.79C373.82 176.66 378.14 173.75 379.01 169.34C379.88 164.91 376.97 160.6 372.54 159.73C372.06 159.63 371.54 159.73 371.04 159.73C371.18 159.34 371.34 158.91 371.34 158.91C371.53 157.93 371.53 156.97 371.38 156.05C375.42 154.96 378.39 151.28 378.39 146.92C378.39 143.4 376.45 140.33 373.61 138.7C375.99 137.33 377.6 134.8 377.6 131.87C377.6 127.76 374.44 124.4 370.41 124.03C370.57 123.81 370.7 123.57 370.83 123.35L370.84 123.34ZM364.88 149.31C364.2 149.17 363.53 149.14 362.87 149.17C362.61 148.46 362.45 147.71 362.45 146.91C362.45 143.33 365.36 140.43 368.94 140.43C372.52 140.43 375.43 143.34 375.43 146.91C375.43 149.99 373.27 152.57 370.37 153.23C369.23 151.26 367.29 149.78 364.89 149.31H364.88ZM374.62 131.85C374.62 134.57 372.42 136.78 369.69 136.78C366.96 136.78 364.76 134.57 364.76 131.85C364.76 129.13 366.97 126.92 369.69 126.92C372.41 126.92 374.62 129.14 374.62 131.85ZM364.68 116.03C366.89 116.03 368.7 117.83 368.7 120.04C368.7 122.25 366.9 124.05 364.68 124.05C362.46 124.05 360.68 122.25 360.68 120.04C360.68 117.83 362.47 116.03 364.68 116.03ZM362.05 158.13C365.02 158.13 367.43 160.54 367.43 163.5C367.43 166.46 365.01 168.88 362.05 168.88C359.09 168.88 356.67 166.46 356.67 163.5C356.67 160.54 359.08 158.13 362.05 158.13ZM355.98 109.51C357.59 109.51 358.9 110.82 358.9 112.43C358.9 114.04 357.59 115.34 355.98 115.34C354.37 115.34 353.06 114.03 353.06 112.43C353.06 110.83 354.37 109.51 355.98 109.51ZM346.52 104.88C347.83 104.88 348.89 105.93 348.89 107.23C348.89 108.53 347.83 109.58 346.52 109.58C345.21 109.58 344.18 108.53 344.18 107.23C344.18 105.93 345.23 104.88 346.52 104.88ZM335.78 102.35C336.83 102.35 337.67 103.19 337.67 104.22C337.67 105.25 336.83 106.11 335.78 106.11C334.73 106.11 333.92 105.27 333.92 104.22C333.92 103.19 334.75 102.35 335.78 102.35ZM357.08 148.81L358.28 150.89C356.79 152.06 355.68 153.75 355.28 155.77C355.28 155.77 355.26 156.22 355.25 156.62C354.79 156.44 354.37 156.17 353.88 156.08C349.46 155.21 345.14 158.11 344.27 162.54C343.41 166.96 346.3 171.27 350.74 172.15C354.11 172.81 357.38 171.28 359.14 168.55C359.08 169.2 358.83 170.87 358.75 171.3C357.85 175.86 353.42 178.85 348.84 177.95C344.58 177.12 341.47 174.39 339.68 170.76C337.23 173.97 333.64 176.09 329.29 176.09C324.65 176.09 320.85 172.31 320.85 167.66C320.85 167.22 320.93 165.52 320.98 164.88C322.2 167.89 325.14 170.03 328.56 170.03C333.08 170.03 336.76 166.36 336.76 161.85C336.76 157.34 333.08 153.66 328.56 153.66C328.07 153.66 327.58 153.86 327.08 153.95C327.14 153.55 327.21 153.08 327.21 153.08C327.21 152.27 327.08 151.49 326.87 150.75L329.8 148.86C329.8 148.86 329.28 121.17 324.33 108.8C324.5 108.71 324.66 108.61 324.82 108.52C365.3 110.81 361.82 138.93 357.06 148.81H357.08ZM327.45 97.88C327.45 98.05 327.47 98.23 327.47 98.41C327.47 100.08 326.97 101.63 326.12 102.93C325.38 102.91 324.41 102.89 323.37 102.88C323.45 102.54 323.5 102.18 323.5 101.82C323.5 100.12 322.55 98.67 321.16 97.89H327.43L327.45 97.88ZM321.03 90.28C323.44 90.85 325.51 92.59 326.59 94.73H321.03V90.28ZM318.98 99.93C320.01 99.93 320.85 100.77 320.85 101.8C320.85 102.83 320.01 103.67 318.98 103.67C317.95 103.67 317.11 102.84 317.11 101.8C317.11 100.76 317.95 99.93 318.98 99.93ZM318.98 105.46C320.53 105.46 321.8 106.72 321.8 108.27C321.8 109.82 320.53 111.08 318.98 111.08C317.43 111.08 316.17 109.82 316.17 108.27C316.17 106.72 317.42 105.46 318.98 105.46ZM316.93 90.28V94.73H311.39C312.48 92.58 314.54 90.85 316.93 90.28ZM310.54 97.88H316.79C315.41 98.66 314.47 100.11 314.47 101.81C314.47 102.17 314.52 102.53 314.6 102.87C313.57 102.87 312.6 102.89 311.86 102.92C311.02 101.61 310.51 100.07 310.51 98.4C310.51 98.22 310.51 98.05 310.53 97.87L310.54 97.88ZM302.2 102.35C303.22 102.35 304.06 103.19 304.06 104.22C304.06 105.25 303.22 106.11 302.2 106.11C301.18 106.11 300.31 105.27 300.31 104.22C300.31 103.17 301.16 102.35 302.2 102.35ZM291.45 104.88C292.74 104.88 293.79 105.93 293.79 107.23C293.79 108.53 292.75 109.58 291.45 109.58C290.15 109.58 289.08 108.53 289.08 107.23C289.08 105.92 290.15 104.88 291.45 104.88ZM282 109.51C283.61 109.51 284.91 110.82 284.91 112.43C284.91 114.04 283.6 115.34 282 115.34C280.4 115.34 279.07 114.03 279.07 112.43C279.07 110.83 280.38 109.51 282 109.51ZM313.13 108.52C313.29 108.61 313.45 108.71 313.61 108.8C308.67 121.17 308.15 148.86 308.15 148.86L311.08 150.75C310.87 151.49 310.75 152.27 310.75 153.08C310.75 153.08 310.81 153.54 310.88 153.95C310.39 153.86 309.89 153.66 309.4 153.66C304.88 153.66 301.21 157.33 301.21 161.85C301.21 166.37 304.88 170.03 309.4 170.03C312.83 170.03 315.76 167.9 316.97 164.88C317.03 165.52 317.1 167.22 317.1 167.66C317.1 172.31 313.32 176.09 308.67 176.09C304.33 176.09 300.74 173.96 298.29 170.76C296.5 174.39 293.38 177.13 289.12 177.95C284.55 178.85 280.11 175.86 279.21 171.3C279.13 170.87 278.89 169.18 278.82 168.55C280.59 171.27 283.86 172.81 287.23 172.15C291.67 171.28 294.55 166.97 293.69 162.54C292.83 158.11 288.51 155.21 284.08 156.08C283.59 156.17 283.17 156.44 282.71 156.62C282.71 156.22 282.69 155.77 282.69 155.77C282.3 153.76 281.19 152.06 279.69 150.89L280.89 148.81C276.11 138.93 272.63 110.81 313.11 108.52H313.13ZM281.3 163.51C281.3 166.48 278.89 168.88 275.92 168.88C272.95 168.88 270.54 166.47 270.54 163.51C270.54 160.55 272.95 158.13 275.92 158.13C278.9 158.13 281.3 160.54 281.3 163.51ZM267.6 153.23C264.71 152.58 262.54 150 262.54 146.91C262.54 143.33 265.45 140.43 269.03 140.43C272.61 140.43 275.52 143.34 275.52 146.91C275.52 147.7 275.35 148.46 275.1 149.17C274.44 149.14 273.77 149.17 273.09 149.31C270.68 149.77 268.74 151.26 267.6 153.23ZM273.29 116.03C275.5 116.03 277.29 117.83 277.29 120.04C277.29 122.25 275.5 124.05 273.29 124.05C271.08 124.05 269.27 122.25 269.27 120.04C269.27 117.83 271.07 116.03 273.29 116.03ZM268.27 126.93C270.98 126.93 273.2 129.14 273.2 131.86C273.2 134.58 270.99 136.79 268.27 136.79C265.55 136.79 263.34 134.58 263.34 131.86C263.34 129.15 265.54 126.93 268.27 126.93ZM260.52 117.24C261.64 117.24 262.54 118.15 262.54 119.27C262.54 120.39 261.63 121.3 260.52 121.3C259.41 121.3 258.49 120.39 258.49 119.27C258.49 118.15 259.39 117.24 260.52 117.24ZM249.28 121.87C250.68 121.87 251.82 123.01 251.82 124.41C251.82 125.81 250.68 126.96 249.28 126.96C247.88 126.96 246.72 125.81 246.72 124.41C246.72 123.01 247.86 121.87 249.28 121.87ZM267.12 123.33C267.25 123.56 267.38 123.79 267.52 124.01C263.51 124.38 260.34 127.73 260.34 131.85C260.34 134.78 261.95 137.31 264.32 138.68C261.46 140.32 259.54 143.38 259.54 146.9C259.54 151.27 262.51 154.94 266.55 156.03C266.4 156.96 266.4 157.93 266.59 158.89C266.59 158.89 266.75 159.33 266.89 159.71C266.39 159.71 265.86 159.62 265.38 159.71C260.95 160.58 258.05 164.89 258.92 169.32C259.78 173.74 264.1 176.64 268.53 175.77C271.9 175.12 274.36 172.45 274.97 169.27C275.16 169.88 275.56 171.54 275.64 171.97C276.54 176.53 273.55 180.97 268.99 181.86C264.73 182.69 260.53 181.41 257.52 178.73C256.4 182.61 253.55 185.94 249.5 187.52C245.44 189.11 240.89 187.31 238.94 183.51C239.45 183.08 239.9 182.58 240.3 182.04C247.05 184.49 250.5 179.4 251.09 178C253.59 172.16 249.77 166.12 243.58 166.06C241.61 166.04 239.78 166.75 238.35 167.92C238.19 168.03 238.04 168.15 237.87 168.25C237.82 168.05 237.36 165.06 233.47 162.95C233.8 161.97 234.23 160.85 234.31 159.18C234.58 154.4 234.02 152.65 237.29 145.14C241.34 136.95 250.14 128.74 267.12 123.33ZM238.79 128.75C240.49 128.75 241.88 130.13 241.88 131.85C241.88 133.57 240.5 134.93 238.79 134.93C237.08 134.93 235.68 133.55 235.68 131.85C235.68 130.13 237.07 128.75 238.79 128.75ZM225.82 143.27C225.82 140.85 227.79 138.88 230.2 138.88C232.61 138.88 234.61 140.85 234.61 143.27C234.61 145.69 232.64 147.66 230.2 147.66C227.78 147.66 225.82 145.7 225.82 143.27ZM225.5 153.46C228.71 153.46 231.33 156.07 231.33 159.28C231.33 160.33 231.02 161.29 230.54 162.14C230.32 162.12 230.1 162.1 229.87 162.1C227.32 162.1 225.05 163.26 223.52 165.06C221.72 163.94 219.68 161.39 219.68 159.28C219.68 156.07 222.28 153.46 225.49 153.46H225.5Z" fill="#004791"/>
<path d="M378.89 216.46C379.67 216.46 380.39 215.99 380.69 215.22C381.04 214.23 380.55 213.13 379.56 212.77C360.46 205.7 340.32 202.11 319.65 202.11H318.32C297.67 202.11 277.52 205.7 258.43 212.77C257.44 213.14 256.94 214.23 257.3 215.22C257.66 216.2 258.76 216.71 259.75 216.35C278.42 209.43 298.12 205.92 318.32 205.92H319.65C339.86 205.92 359.56 209.43 378.23 216.35C378.45 216.42 378.68 216.46 378.89 216.46Z" fill="#004791"/>
<path d="M390.42 205.34L387.63 197.92L387.21 196.79L383.64 197.38C364.07 189.87 343.48 185.89 322.36 185.51L318.97 183.57L315.6 185.51C294.49 185.89 273.89 189.88 254.33 197.38L250.75 196.79L250.33 197.92L247.54 205.34L255.53 209.78L258.11 206.72C276.26 199.91 295.34 196.23 314.89 195.8L318.97 198.13L323.07 195.8C342.63 196.24 361.71 199.91 379.87 206.72L382.43 209.78L390.43 205.34H390.42ZM254.86 206.05C253.77 205.44 252.31 204.63 251.19 204.01C251.65 202.81 252.23 201.24 252.66 200.08C253.98 200.3 256.62 200.73 259.02 201.13C257.45 202.98 255.72 205.02 254.87 206.05H254.86ZM288.53 196.48L282.13 197.79C280.37 198.15 278.64 197.02 278.28 195.26C277.92 193.5 279.04 191.77 280.81 191.41L287.23 190.09C289 189.72 290.72 190.87 291.09 192.63C291.44 194.38 290.3 196.1 288.53 196.47V196.48ZM318.97 194.69L312.26 190.86L318.98 187.01L325.71 190.86L318.97 194.69ZM359.7 195.26C359.34 197.02 357.62 198.16 355.85 197.79L349.45 196.48C347.68 196.12 346.55 194.39 346.9 192.63C347.27 190.87 348.99 189.72 350.76 190.09L357.17 191.41C358.94 191.78 360.07 193.5 359.7 195.27V195.26ZM378.96 201.11C381.36 200.72 384 200.28 385.32 200.06C385.75 201.22 386.33 202.8 386.79 203.99C385.66 204.61 384.2 205.42 383.11 206.03C382.24 205.02 380.52 202.98 378.96 201.11Z" fill="#004791"/>
</svg>
